<?xml version="1.0" encoding="UTF-8"?>
<svg version="1.1" xmlns="http://www.w3.org/2000/svg" width="221" height="215">
<path d="M0 0 C1.63966989 1.52605497 3.26507319 3.06759935 4.875 4.625 C5.61363281 5.33785156 6.35226563 6.05070312 7.11328125 6.78515625 C26.69632758 27.0638703 35.45506623 54.75609967 35.0234375 82.515625 C34.22789295 110.50314309 22.11465261 134.73645523 2.875 154.625 C1.80572266 155.73294922 1.80572266 155.73294922 0.71484375 156.86328125 C-13.9743985 171.04860439 -32.66144764 179.38657143 -52.52734375 183.08203125 C-55.04296324 183.36047201 -55.04296324 183.36047201 -56.125 184.625 C-58.57330426 184.71343793 -60.99320599 184.74028752 -63.44140625 184.72265625 C-64.53798805 184.72053383 -64.53798805 184.72053383 -65.65672302 184.71836853 C-68.00035632 184.71275408 -70.34389539 184.70019922 -72.6875 184.6875 C-74.27278508 184.68248686 -75.85807166 184.67792363 -77.44335938 184.67382812 C-81.3372761 184.66277997 -85.23112205 184.64550572 -89.125 184.625 C-89.125 183.965 -89.125 183.305 -89.125 182.625 C-90.135625 182.563125 -91.14625 182.50125 -92.1875 182.4375 C-117.33723578 179.19952696 -140.8344276 162.12828112 -156.125 142.625 C-173.2399834 118.25503506 -180.75133204 89.89774847 -175.87109375 60.24609375 C-169.95637478 31.53957812 -154.23501728 6.1174453 -129.48071289 -10.25927734 C-88.3370808 -36.50192379 -36.53922927 -31.88776296 0 0 Z " fill="#0180FF" transform="translate(182.125,29.375)"/>
<path d="M0 0 C1.14984375 -0.00773437 2.2996875 -0.01546875 3.484375 -0.0234375 C5.16273438 -0.01957031 5.16273438 -0.01957031 6.875 -0.015625 C8.38707031 -0.01224121 8.38707031 -0.01224121 9.9296875 -0.00878906 C13 0.25 13 0.25 20 2.25 C20 10.5 20 18.75 20 27.25 C10.4375 27.375 10.4375 27.375 7.46655273 27.36767578 C1.8593461 27.54846172 -1.65896092 28.49179866 -5.67797852 32.52270508 C-9.91379717 38.05703877 -9.40555787 45.52259529 -9.625 52.1875 C-9.810625 57.1684375 -9.810625 57.1684375 -10 62.25 C-0.76 62.25 8.48 62.25 18 62.25 C18 73.5 18 73.5 17.34375 77.6015625 C17.22193359 78.38869629 17.10011719 79.17583008 16.97460938 79.98681641 C16.81798828 80.93991699 16.66136719 81.89301758 16.5 82.875 C16.005 85.96875 15.51 89.0625 15 92.25 C6.75 92.25 -1.5 92.25 -10 92.25 C-9.67 117.33 -9.34 142.41 -9 168.25 C-19.89 168.25 -30.78 168.25 -42 168.25 C-41.67 143.17 -41.34 118.09 -41 92.25 C-49.91 92.25 -58.82 92.25 -68 92.25 C-68 82.35 -68 72.45 -68 62.25 C-59.09 62.25 -50.18 62.25 -41 62.25 C-41.05800781 59.93484375 -41.11601563 57.6196875 -41.17578125 55.234375 C-41.21495984 52.95055554 -41.24521354 50.66677587 -41.2746582 48.3828125 C-41.29954765 46.81558012 -41.33347282 45.24846065 -41.37719727 43.68164062 C-41.72271861 30.96645524 -40.09462121 20.26525305 -31.796875 10 C-22.5440884 0.98859044 -12.27784861 -0.08258643 0 0 Z " fill="#FCFDFF" transform="translate(135,45.75)"/>
<path d="M0 0 C0.66 0.33 1.32 0.66 2 1 C-1.3 4.3 -4.6 7.6 -8 11 C-8 7.0234755 -6.61988497 5.9109833 -4 3 C-1.75 1.1875 -1.75 1.1875 0 0 Z " fill="#CBE4FF" transform="translate(109,51)"/>
</svg>
