<?xml version="1.0" encoding="UTF-8"?>
<svg version="1.1" xmlns="http://www.w3.org/2000/svg" width="253" height="240">
<path d="M0 0 C5.31436961 4.72833499 9.78691645 9.91631339 14.01464844 15.63818359 C14.91570312 16.81767578 14.91570312 16.81767578 15.83496094 18.02099609 C33.45610777 41.96363058 41.18237081 72.26211926 37.19458008 101.72729492 C33.64673558 125.00634105 24.41069654 147.05410408 8.12792969 164.34912109 C5.9738159 166.61537524 5.9738159 166.61537524 4.07714844 169.14599609 C-1.33531404 175.68605492 -8.91343053 180.97372504 -15.98535156 185.63818359 C-16.64535156 185.63818359 -17.30535156 185.63818359 -17.98535156 185.63818359 C-18.31535156 186.29818359 -18.64535156 186.95818359 -18.98535156 187.63818359 C-20.74780273 188.65966797 -20.74780273 188.65966797 -23.02832031 189.73193359 C-23.85525391 190.12251953 -24.6821875 190.51310547 -25.53417969 190.91552734 C-26.40494141 191.31900391 -27.27570313 191.72248047 -28.17285156 192.13818359 C-29.02427734 192.54166016 -29.87570313 192.94513672 -30.75292969 193.36083984 C-37.13141604 196.35029284 -43.3776732 198.55518539 -50.23535156 200.20068359 C-54.22087172 201.11830571 -54.22087172 201.11830571 -57.98535156 202.63818359 C-60.55357901 202.8781218 -63.09877224 203.06364749 -65.67285156 203.20068359 C-66.43090088 203.24241699 -67.1889502 203.28415039 -67.9699707 203.32714844 C-75.31524524 203.70210255 -82.63038104 203.81063308 -89.98535156 203.63818359 C-90.80648437 203.63302734 -91.62761719 203.62787109 -92.47363281 203.62255859 C-107.72597472 202.88496693 -125.97506955 195.36550261 -138.98535156 187.63818359 C-139.31535156 186.97818359 -139.64535156 186.31818359 -139.98535156 185.63818359 C-141.64232535 184.94777785 -143.31092767 184.2851201 -144.98535156 183.63818359 C-149.04871443 181.50491809 -151.78683465 178.90939408 -154.98535156 175.63818359 C-156.47925602 174.31874973 -157.97980624 173.00681894 -159.48535156 171.70068359 C-165.67534354 166.21433156 -170.22093993 160.02216419 -175.02050781 153.32177734 C-176.29599317 151.57971285 -177.62651588 149.87618447 -179.01660156 148.22412109 C-190.97075407 132.52243665 -195.07534468 109.78969198 -195.98535156 90.63818359 C-196.04432617 89.65833496 -196.04432617 89.65833496 -196.10449219 88.65869141 C-197.77550287 58.56633808 -185.36348263 32.62591147 -166.98535156 9.63818359 C-166.14617187 8.58050781 -166.14617187 8.58050781 -165.29003906 7.50146484 C-147.4379792 -14.20390849 -118.67038013 -26.7017159 -91.23535156 -29.98681641 C-56.95977713 -32.92319739 -25.93696996 -22.35144098 0 0 Z " fill="#EE5729" transform="translate(202.9853515625,33.36181640625)"/>
<path d="M0 0 C0.70125 0.09023438 1.4025 0.18046875 2.125 0.2734375 C4 0.625 4 0.625 6 1.625 C7.3921875 1.5940625 7.3921875 1.5940625 8.8125 1.5625 C12.14181081 1.6277806 13.96234451 2.36548431 17 3.625 C18.0725 3.74875 19.145 3.8725 20.25 4 C24.33367466 4.68061244 27.40557434 6.04774795 31.08203125 7.8828125 C32.03142578 8.25019531 32.03142578 8.25019531 33 8.625 C33.66 8.295 34.32 7.965 35 7.625 C38.52903356 15.60061584 41.44212901 23.46486173 43.3125 32 C43.47137695 32.72364746 43.63025391 33.44729492 43.79394531 34.19287109 C50.27844907 65.46813151 42.88026242 95.58137104 26.5625 122.5 C23.49171686 127.17660552 19.94400726 131.26706689 16.11328125 135.3359375 C13.95916746 137.60219165 13.95916746 137.60219165 12.0625 140.1328125 C6.65003752 146.67287133 -0.92807897 151.96054145 -8 156.625 C-8.66 156.625 -9.32 156.625 -10 156.625 C-10.33 157.285 -10.66 157.945 -11 158.625 C-12.76245117 159.64648437 -12.76245117 159.64648437 -15.04296875 160.71875 C-15.86990234 161.10933594 -16.69683594 161.49992188 -17.54882812 161.90234375 C-18.41958984 162.30582031 -19.29035156 162.70929688 -20.1875 163.125 C-21.03892578 163.52847656 -21.89035156 163.93195313 -22.76757812 164.34765625 C-29.14606447 167.33710925 -35.39232163 169.5420018 -42.25 171.1875 C-46.23552016 172.10512212 -46.23552016 172.10512212 -50 173.625 C-52.56822745 173.8649382 -55.11342068 174.0504639 -57.6875 174.1875 C-58.44554932 174.2292334 -59.20359863 174.2709668 -59.98461914 174.31396484 C-67.32989368 174.68891896 -74.64502947 174.79744948 -82 174.625 C-82.82113281 174.61984375 -83.64226562 174.6146875 -84.48828125 174.609375 C-99.74062316 173.87178334 -117.98971799 166.35231901 -131 158.625 C-131.33 157.965 -131.66 157.305 -132 156.625 C-133.65697379 155.93459426 -135.3255761 155.2719365 -137 154.625 C-141.06336287 152.4917345 -143.80148308 149.89621048 -147 146.625 C-148.49390446 145.30556614 -149.99445468 143.99363534 -151.5 142.6875 C-157.68999198 137.20114796 -162.23558836 131.0089806 -167.03515625 124.30859375 C-168.31064161 122.56652925 -169.64116431 120.86300087 -171.03125 119.2109375 C-182.47202157 104.18357484 -187.62918961 81.10847178 -188 62.625 C-187.67 61.635 -187.34 60.645 -187 59.625 C-183.20131999 57.72565999 -179.07444479 56.77942602 -175 55.625 C-171.9907608 54.65201266 -168.995029 53.64075596 -166 52.625 C-163 51.625 -163 51.625 -160 51.625 C-159.2575 51.150625 -158.515 50.67625 -157.75 50.1875 C-154.4699259 48.32382153 -151.72359838 48.03873315 -148 47.625 C-147.01 47.295 -146.02 46.965 -145 46.625 C-144.99413376 47.20636215 -144.98826752 47.7877243 -144.98222351 48.38670349 C-144.91798691 54.4709227 -144.83349124 60.55462769 -144.73754883 66.63842773 C-144.70441948 68.90496006 -144.67635072 71.17157251 -144.65356445 73.43823242 C-144.61979765 76.70786488 -144.56747028 79.97677098 -144.51171875 83.24609375 C-144.50532883 84.24958359 -144.4989389 85.25307343 -144.49235535 86.28697205 C-144.23835438 98.60986345 -139.54475397 110.71333359 -131.07421875 119.80859375 C-119.59241992 129.86327634 -105.93667 131.10815208 -91.3984375 131.12890625 C-89.7919591 131.13857383 -88.18548321 131.14866817 -86.57901001 131.15916443 C-83.22204482 131.17704297 -79.86531015 131.18269435 -76.50830078 131.1809082 C-72.25197209 131.18060447 -67.99715755 131.22148049 -63.74118614 131.27322483 C-60.42409782 131.30694624 -57.10736117 131.3126549 -53.79011917 131.31107903 C-52.22353546 131.31456843 -50.65693744 131.3275452 -49.09052658 131.35107613 C-35.35894533 131.53799855 -21.62051779 128.97714331 -10.890625 119.66015625 C0.34613036 107.56439273 2.62297066 94.18962492 2.53125 78.34765625 C2.53395178 76.68818434 2.53783988 75.02871399 2.54284668 73.36924744 C2.54871118 69.9072244 2.54027932 66.44561691 2.52148438 62.98364258 C2.4987143 58.5781415 2.5118246 54.17361654 2.53577423 49.76815128 C2.55033075 46.34570662 2.54558121 42.92348771 2.53526306 39.50103569 C2.53262195 37.87816689 2.53577183 36.25527661 2.54518127 34.63243294 C2.6020929 22.06060343 0.86430262 11.41176127 -6 0.625 C-3.6150282 -0.5674859 -2.60431911 -0.354264 0 0 Z " fill="#ED9C26" transform="translate(195,62.375)"/>
<path d="M0 0 C5.31295711 4.72707825 9.795493 9.91158539 14.01464844 15.63818359 C14.65015625 16.49412109 15.28566406 17.35005859 15.94042969 18.23193359 C24.13216932 29.59863014 24.13216932 29.59863014 26.01464844 34.63818359 C25.63964844 36.89599609 25.63964844 36.89599609 25.01464844 38.63818359 C24.16902344 38.16380859 23.32339844 37.68943359 22.45214844 37.20068359 C18.83476452 35.55641818 15.93432753 35.16966551 12.01464844 34.63818359 C10.48511236 34.14349098 8.96431132 33.62117859 7.45214844 33.07568359 C3.79319545 31.78793026 0.90881358 31.55352783 -2.98535156 31.63818359 C-5.33215453 31.02060387 -7.66687282 30.35480429 -9.98535156 29.63818359 C-11.21898437 29.45642578 -11.21898437 29.45642578 -12.47753906 29.27099609 C-15.39606397 28.53454588 -16.4539912 27.57264946 -18.54785156 25.45068359 C-26.9365573 17.72926126 -37.81827751 13.40629389 -49.18310547 13.36352539 C-50.20670166 13.35585899 -50.20670166 13.35585899 -51.25097656 13.34803772 C-53.48804718 13.33423621 -55.72480613 13.33509232 -57.96191406 13.33740234 C-59.53502514 13.33350818 -61.10813518 13.32917204 -62.6812439 13.32441711 C-65.97454232 13.31697361 -69.26773354 13.31723106 -72.56103516 13.32250977 C-76.74667195 13.32827985 -80.93186269 13.3114243 -85.11742592 13.28816509 C-88.36744685 13.27330434 -91.61736367 13.27257303 -94.86741257 13.27567482 C-96.40852104 13.27516705 -97.94963621 13.27003358 -99.49071121 13.2598629 C-114.74141096 13.17160869 -128.66185467 14.63913073 -140.11816406 25.69677734 C-153.23603462 40.21425333 -152.74407783 57.06218626 -152.98535156 75.63818359 C-156.9152209 77.22676742 -160.85684119 78.58759331 -164.89941406 79.85693359 C-167.23921166 80.64302467 -167.23921166 80.64302467 -169.98535156 82.63818359 C-171.30535156 82.63818359 -172.62535156 82.63818359 -173.98535156 82.63818359 C-176.29941394 83.19999339 -176.29941394 83.19999339 -178.61035156 84.01318359 C-179.38636719 84.26841797 -180.16238281 84.52365234 -180.96191406 84.78662109 C-183.16112452 85.56231872 -183.16112452 85.56231872 -184.98535156 87.63818359 C-187.31829932 87.68060083 -189.65237723 87.67911297 -191.98535156 87.63818359 C-195.10320269 88.2846302 -195.10320269 88.2846302 -195.98535156 90.63818359 C-197.71082539 59.57965466 -186.04864438 33.48292526 -166.98535156 9.63818359 C-166.14617187 8.58050781 -166.14617187 8.58050781 -165.29003906 7.50146484 C-147.4379792 -14.20390849 -118.67038013 -26.7017159 -91.23535156 -29.98681641 C-56.95977713 -32.92319739 -25.93696996 -22.35144098 0 0 Z " fill="#7F489B" transform="translate(202.9853515625,33.36181640625)"/>
<path d="M0 0 C1.5669324 -0.00457635 3.13386281 -0.00988616 4.70079041 -0.0158844 C7.96247588 -0.02474998 11.22391562 -0.02246658 14.4855957 -0.01245117 C18.63319162 -0.00094619 22.77993799 -0.02122945 26.92742252 -0.05036831 C30.15597271 -0.0688441 33.38432327 -0.06841581 36.61291313 -0.06273079 C38.14089592 -0.06257909 39.66889358 -0.06849607 41.19682503 -0.08102226 C56.06429267 -0.18581697 69.4669822 2.84127168 80.5390625 13.48828125 C91.24192682 25.38035272 93.03463432 38.27626281 93.00390625 53.703125 C93.01170508 55.35398275 93.02037942 57.00483657 93.02987671 58.65568542 C93.04470733 62.09912173 93.04428845 65.54214762 93.03369141 68.9855957 C93.02212079 73.35634428 93.05595872 77.72539247 93.10238075 82.09586048 C93.13212501 85.50129189 93.13356284 88.90632651 93.1273613 92.31186485 C93.12837453 93.92112274 93.1385965 95.53040686 93.15898514 97.1395359 C93.3188919 111.52250563 90.45049981 124.09703787 80.65625 135.28515625 C68.58815499 146.78853971 54.48768308 149.06058207 38.5 148.96484375 C36.88919339 148.96754682 35.27838838 148.97143597 33.66758728 148.97644043 C30.30988865 148.98229897 26.95261899 148.97389283 23.5949707 148.95507812 C19.32746934 148.9323089 15.06097579 148.94542154 10.79351139 148.96936798 C7.47225082 148.98394145 4.15122238 148.97916737 0.82995415 148.96885681 C-0.74184862 148.9662203 -2.31367365 148.96934871 -3.88545036 148.97877502 C-17.94347466 149.04460477 -30.75915697 147.16045207 -41.59765625 137.43359375 C-50.80401419 127.65283566 -55.80606851 117.48483523 -55.88818359 103.9387207 C-55.89490082 103.23667007 -55.90161804 102.53461945 -55.90853882 101.81129456 C-55.92736967 99.51474719 -55.93143577 97.21849454 -55.93359375 94.921875 C-55.94003347 93.30535264 -55.94676267 91.68883142 -55.95376587 90.0723114 C-55.96570248 86.69083967 -55.96945058 83.30946981 -55.96826172 79.92797852 C-55.96805907 75.62904833 -55.99532128 71.33078319 -56.02980614 67.03201008 C-56.05222446 63.69362994 -56.05609468 60.35540588 -56.05504227 57.01695824 C-56.05737737 55.43396915 -56.06608061 53.85097436 -56.081707 52.26806068 C-56.21923896 36.89419843 -53.71371539 23.76499287 -42.61328125 12.40234375 C-30.22026498 1.06609631 -16.15472919 -0.041947 0 0 Z M-35.59765625 24.43359375 C-40.09755646 31.15422394 -41.71124975 36.33204793 -41.7746582 44.41430664 C-41.7812294 45.10923218 -41.7878006 45.80415771 -41.79457092 46.5201416 C-41.81424612 48.81551233 -41.82595701 51.11081762 -41.8359375 53.40625 C-41.84001303 54.19422911 -41.84408855 54.98220821 -41.84828758 55.79406548 C-41.8691293 59.96939707 -41.88343607 64.14469605 -41.89282227 68.32006836 C-41.90384929 72.60806278 -41.93821116 76.89553293 -41.97799397 81.18334293 C-42.00429492 84.5010415 -42.01252623 87.81861805 -42.01610374 91.13641167 C-42.02093937 92.71548417 -42.03246579 94.29455234 -42.05114174 95.8735218 C-42.17288834 106.85402824 -41.74731245 117.81101329 -33.91015625 126.37109375 C-33.30816406 127.06074219 -32.70617187 127.75039062 -32.0859375 128.4609375 C-23.27279886 135.44780565 -13.73617511 135.04010415 -3.0078125 135 C-1.29584924 135.00524403 0.41611112 135.01152334 2.12806702 135.01878357 C5.70457621 135.02915326 9.28068669 135.02467619 12.85717773 135.01000977 C17.41776164 134.99282917 21.9770847 135.01632563 26.53752804 135.05149937 C30.06970915 135.07356569 33.60159286 135.07200967 37.13382149 135.06373405 C38.81417791 135.06291954 40.49455728 135.06968642 42.17484856 135.08450508 C52.9804 135.1652068 61.40106955 134.4152774 70.0234375 127.2578125 C70.62285156 126.55269531 71.22226563 125.84757812 71.83984375 125.12109375 C72.45730469 124.42371094 73.07476562 123.72632813 73.7109375 123.0078125 C79.37501679 114.38742392 78.86006884 105.51001969 78.8359375 95.59765625 C78.84050597 93.95152574 78.84581352 92.30539713 78.8518219 90.65927124 C78.86072812 87.21808092 78.85835899 83.77712298 78.84838867 80.3359375 C78.83691076 75.94924335 78.85710467 71.56335564 78.88630581 67.17676735 C78.90474805 63.77929681 78.90435933 60.3820166 78.89866829 56.98450851 C78.89851601 55.36834966 78.90448252 53.75217713 78.91695976 52.13606644 C78.98580575 41.75701528 78.23527941 33.36846187 72.46484375 24.43359375 C70.22114452 22.25788541 68.37319678 21.3413544 65.40234375 20.43359375 C65.40234375 19.77359375 65.40234375 19.11359375 65.40234375 18.43359375 C64.35046875 17.95921875 63.29859375 17.48484375 62.21484375 16.99609375 C61.62316406 16.72925781 61.03148437 16.46242188 60.421875 16.1875 C55.78659128 14.45711362 51.29896794 14.29567998 46.3840332 14.2565918 C45.69710892 14.2500206 45.01018463 14.2434494 44.30244446 14.23667908 C42.04016996 14.21704939 39.7779616 14.20530547 37.515625 14.1953125 C36.73834738 14.19123697 35.96106976 14.18716145 35.16023827 14.18296242 C31.04440965 14.16214369 26.92861393 14.147825 22.81274414 14.13842773 C18.58409075 14.12738369 14.35596649 14.0929953 10.12749958 14.05325603 C6.8561665 14.02698082 3.58495736 14.01872621 0.31352806 14.01514626 C-1.24404275 14.01030689 -2.80160901 13.99876946 -4.35907555 13.98010826 C-16.25998108 13.84639768 -27.31891454 14.84879101 -35.59765625 24.43359375 Z " fill="#FDF8F8" transform="translate(105.59765625,45.56640625)"/>
<path d="M0 0 C0.70125 0.09023438 1.4025 0.18046875 2.125 0.2734375 C4 0.625 4 0.625 6 1.625 C7.3921875 1.5940625 7.3921875 1.5940625 8.8125 1.5625 C12.14181081 1.6277806 13.96234451 2.36548431 17 3.625 C18.0725 3.74875 19.145 3.8725 20.25 4 C24.33367466 4.68061244 27.40557434 6.04774795 31.08203125 7.8828125 C31.71496094 8.12773438 32.34789062 8.37265625 33 8.625 C33.66 8.295 34.32 7.965 35 7.625 C38.52903356 15.60061584 41.44212901 23.46486173 43.3125 32 C43.47137695 32.72364746 43.63025391 33.44729492 43.79394531 34.19287109 C50.27844907 65.46813151 42.88026242 95.58137104 26.5625 122.5 C23.49171686 127.17660552 19.94400726 131.26706689 16.11328125 135.3359375 C13.96127796 137.59922434 13.96127796 137.59922434 12.078125 140.1171875 C9.7573407 142.91783322 7.26095091 145.08550783 4.4375 147.375 C3.01244141 148.54289062 3.01244141 148.54289062 1.55859375 149.734375 C-1 151.625 -1 151.625 -4 152.625 C-3.814375 151.903125 -3.62875 151.18125 -3.4375 150.4375 C-2.97556095 147.46789183 -3.40292255 145.53575256 -4 142.625 C-3.68521554 141.28716607 -3.35412344 139.95296291 -3 138.625 C-3.33 137.635 -3.66 136.645 -4 135.625 C-3.01 134.635 -3.01 134.635 -2 133.625 C-1.28293018 131.64251285 -0.61709587 129.64084651 0 127.625 C0.33 126.635 0.66 125.645 1 124.625 C-0.28472694 122.05554611 -1.59174176 120.03325824 -3.625 118 C-5 116.625 -5 116.625 -6 113.625 C-5.109375 111.42578125 -5.109375 111.42578125 -3.75 108.9375 C-2.7994699 107.18461067 -1.88687799 105.41093838 -1 103.625 C-0.4846167 102.59624756 0.0307666 101.56749512 0.56176758 100.50756836 C3.10027807 93.59505795 2.45110426 85.90622519 2.43359375 78.640625 C2.43816285 76.97686552 2.44347058 75.31310793 2.44947815 73.64935303 C2.45838661 70.16947749 2.45601383 66.6898317 2.44604492 63.20996094 C2.43458478 58.78086791 2.4547325 54.35257571 2.48396206 49.9235878 C2.50243756 46.48829216 2.50200874 43.05318419 2.49632454 39.61785126 C2.49617256 37.98659902 2.50211295 36.35533305 2.51461601 34.72412872 C2.59766811 22.10923226 0.88931746 11.45107029 -6 0.625 C-3.6150282 -0.5674859 -2.60431911 -0.354264 0 0 Z " fill="#E91C7B" transform="translate(195,62.375)"/>
<path d="M0 0 C1.11955078 0.63615234 1.11955078 0.63615234 2.26171875 1.28515625 C11.09668877 6.67013798 18.04049926 13.97469183 20.53125 24.17578125 C22.48051676 35.92011345 22.19672811 46.04486738 15.33203125 56.00390625 C8.79152733 64.40686522 0.77331514 70.90609546 -10.13427734 72.26611328 C-22.33789658 73.20284608 -32.38426614 71.61814353 -42.12109375 63.75 C-49.67310822 56.7161071 -54.3764545 48.68185686 -55.34375 38.31640625 C-55.64552065 25.83064575 -53.55602843 17.22473606 -45 8 C-33.4555869 -3.89709374 -14.88275207 -9.13453808 0 0 Z " fill="#FDF8FA" transform="translate(141,86)"/>
<path d="M0 0 C1.57886896 -0.0020247 3.157737 -0.00493943 4.73660278 -0.00869751 C8.03656976 -0.01310483 11.33629209 -0.00674321 14.63623047 0.00732422 C18.84121706 0.02438711 23.04562783 0.01458342 27.25059319 -0.00339317 C30.5090865 -0.01429841 33.76744614 -0.01075352 37.02594376 -0.0030098 C38.57510574 -0.00102489 40.12428033 -0.00340616 41.67342758 -0.01044846 C50.87949254 -0.04311369 59.43233664 0.20444957 67.8203125 4.3984375 C67.8203125 5.0584375 67.8203125 5.7184375 67.8203125 6.3984375 C68.57957031 6.64078125 69.33882813 6.883125 70.12109375 7.1328125 C73.21674644 8.58431969 74.19604909 9.79236005 76.0078125 12.6484375 C76.74064453 13.76992187 76.74064453 13.76992187 77.48828125 14.9140625 C80.36428138 20.27809794 81.06776109 24.90620578 81.04736328 30.96435547 C81.04765533 31.69674942 81.04794739 32.42914337 81.04824829 33.18373108 C81.04686344 35.58615279 81.03134247 37.98825798 81.015625 40.390625 C81.01189186 42.06356639 81.00904631 43.73650998 81.00704956 45.40945435 C80.9994368 49.79889022 80.97980869 54.1881924 80.9576416 58.57757568 C80.93713226 63.06211539 80.92803698 67.54667684 80.91796875 72.03125 C80.89656046 80.82037365 80.86245315 89.60938891 80.8203125 98.3984375 C80.4903125 98.3984375 80.1603125 98.3984375 79.8203125 98.3984375 C79.4903125 91.7984375 79.1603125 85.1984375 78.8203125 78.3984375 C77.1703125 77.7384375 75.5203125 77.0784375 73.8203125 76.3984375 C73.1603125 75.7384375 72.5003125 75.0784375 71.8203125 74.3984375 C69.82700408 73.05512096 67.82646384 71.72249738 65.8203125 70.3984375 C65.0984375 69.8003125 64.3765625 69.2021875 63.6328125 68.5859375 C63.0346875 68.1940625 62.4365625 67.8021875 61.8203125 67.3984375 C60.3353125 67.8934375 60.3353125 67.8934375 58.8203125 68.3984375 C58.76423828 66.94824219 58.76423828 66.94824219 58.70703125 65.46875 C58.08039083 53.05881223 56.7073121 43.65869109 47.8203125 34.3984375 C38.83216856 26.32708424 29.78188249 22.88798786 17.75390625 23.12109375 C6.55925757 23.91038874 -1.64761077 29.36802033 -9.0546875 37.4609375 C-11.43140823 40.28160151 -13.16586741 42.79374384 -14.1796875 46.3984375 C-15.4996875 46.0684375 -16.8196875 45.7384375 -18.1796875 45.3984375 C-18.5096875 46.0584375 -18.8396875 46.7184375 -19.1796875 47.3984375 C-20.3553125 47.12 -20.3553125 47.12 -21.5546875 46.8359375 C-24.15058525 46.13881484 -24.15058525 46.13881484 -26.1796875 47.3984375 C-26.1796875 46.7384375 -26.1796875 46.0784375 -26.1796875 45.3984375 C-27.3553125 45.8934375 -27.3553125 45.8934375 -28.5546875 46.3984375 C-31.1796875 47.3984375 -31.1796875 47.3984375 -33.1796875 47.3984375 C-33.8396875 48.0584375 -34.4996875 48.7184375 -35.1796875 49.3984375 C-35.8396875 49.0684375 -36.4996875 48.7384375 -37.1796875 48.3984375 C-37.5096875 52.6884375 -37.8396875 56.9784375 -38.1796875 61.3984375 C-38.5096875 61.3984375 -38.8396875 61.3984375 -39.1796875 61.3984375 C-39.27936796 56.16981419 -39.35153497 50.94175706 -39.39941406 45.71240234 C-39.41939589 43.93756461 -39.44659105 42.16279156 -39.48144531 40.38818359 C-39.89109925 18.97774089 -39.89109925 18.97774089 -32.8046875 10.5859375 C-31.9384375 9.8640625 -31.0721875 9.1421875 -30.1796875 8.3984375 C-29.2515625 7.5321875 -28.3234375 6.6659375 -27.3671875 5.7734375 C-18.89015845 -0.54278022 -10.12131894 -0.04587163 0 0 Z " fill="#E02376" transform="translate(103.1796875,59.6015625)"/>
<path d="M0 0 C0.6875 2.140625 0.6875 2.140625 1 4 C-4.625 5.125 -4.625 5.125 -8 4 C-9.40824893 3.91978001 -10.81997231 3.89234023 -12.23046875 3.90234375 C-13.43413086 3.90717773 -13.43413086 3.90717773 -14.66210938 3.91210938 C-15.91217773 3.92467773 -15.91217773 3.92467773 -17.1875 3.9375 C-18.03248047 3.94201172 -18.87746094 3.94652344 -19.74804688 3.95117188 C-21.83206155 3.96294597 -23.91603977 3.9808811 -26 4 C-26.33 4.66 -26.66 5.32 -27 6 C-27.72219727 5.8242041 -28.44439453 5.6484082 -29.18847656 5.46728516 C-32.04390971 4.99270205 -34.13509085 5.1000433 -36.984375 5.5234375 C-37.92023438 5.6575 -38.85609375 5.7915625 -39.8203125 5.9296875 C-40.78710938 6.07664062 -41.75390625 6.22359375 -42.75 6.375 C-44.66130392 6.65470301 -46.57276113 6.93336069 -48.484375 7.2109375 C-49.40669922 7.34854492 -50.32902344 7.48615234 -51.27929688 7.62792969 C-53.89749374 7.98598174 -56.50909802 8.24007928 -59.140625 8.4765625 C-60.41421875 8.64929688 -61.6878125 8.82203125 -63 9 C-63.33 9.66 -63.66 10.32 -64 11 C-64 10.34 -64 9.68 -64 9 C-65.8141927 9.28094582 -67.62635001 9.57506433 -69.4375 9.875 C-70.44683594 10.03742187 -71.45617187 10.19984375 -72.49609375 10.3671875 C-73.32238281 10.57601562 -74.14867188 10.78484375 -75 11 C-75.33 11.66 -75.66 12.32 -76 13 C-76.99 12.6596875 -76.99 12.6596875 -78 12.3125 C-81.66847086 11.93036762 -83.80544298 12.86500736 -87.1328125 14.30859375 C-89 15 -89 15 -92 15 C-94.65121635 15.42992698 -97.03714057 16.01358801 -99.5625 16.9375 C-102.60244086 17.87711808 -105.36507208 18.40455265 -108.5 18.875 C-119.14934954 20.58154173 -128.80709692 23.30915524 -138 29 C-142.1385908 31.2721675 -145.36490932 32.27292695 -150 33 C-152.30455855 33.70785743 -154.57683778 34.48310097 -156.8515625 35.28125 C-158.88584306 35.96180932 -160.9128455 36.50890482 -163 37 C-163.78515625 35.39453125 -163.78515625 35.39453125 -164 33 C-162.56001172 30.70978995 -161.14777937 28.75689628 -159.4375 26.6875 C-158.9729541 26.10790527 -158.5084082 25.52831055 -158.02978516 24.93115234 C-156.69821756 23.2774837 -155.35047085 21.63823275 -154 20 C-153.43152344 19.28714844 -152.86304688 18.57429688 -152.27734375 17.83984375 C-134.51461205 -3.88115685 -105.61623756 -16.3481366 -78.25 -19.625 C-51.56041812 -21.91149066 -21.86534179 -16.39900634 0 0 Z " fill="#694C9E" transform="translate(190,23)"/>
<path d="M0 0 C0.66 0 1.32 0 2 0 C2.01213028 0.87537415 2.01213028 0.87537415 2.02450562 1.76843262 C2.1108822 7.86862154 2.21039847 13.96849782 2.31738281 20.06835938 C2.35555289 22.34174326 2.39042619 24.61518508 2.421875 26.88867188 C2.46778607 30.16557451 2.52573733 33.44208244 2.5859375 36.71875 C2.59748871 37.72740112 2.60903992 38.73605225 2.62094116 39.77526855 C2.73992137 45.52611929 3.4873279 50.45897409 5 56 C4.625 59 4.625 59 4 61 C2.5459375 60.9071875 2.5459375 60.9071875 1.0625 60.8125 C-2.79103557 60.8125 -5.86025788 61.83277393 -9.45703125 63.1328125 C-15.04310517 65.03774093 -21.0727599 67 -27 67 C-35.63361298 51.33488779 -40.6396338 33.96286907 -41 16 C-40.67 15.01 -40.34 14.02 -40 13 C-36.20131999 11.10065999 -32.07444479 10.15442602 -28 9 C-24.9907608 8.02701266 -21.995029 7.01575596 -19 6 C-16 5 -16 5 -13 5 C-12.2575 4.525625 -11.515 4.05125 -10.75 3.5625 C-7.48628931 1.70811893 -4.6986058 1.42676221 -1 1 C-0.67 0.67 -0.34 0.34 0 0 Z " fill="#ED5927" transform="translate(48,109)"/>
<path d="M0 0 C6.92675414 3.59340146 12.6623616 9.7173085 15.2265625 17.125 C16.39829972 25.35319918 14.56124819 31.16170025 10.2265625 38.125 C9.6696875 39.053125 9.1128125 39.98125 8.5390625 40.9375 C3.09896179 46.08354121 -2.80598209 48.44221295 -10.2734375 48.8125 C-16.9845532 48.51212026 -21.7464244 46.57931541 -26.7734375 42.125 C-32.15944112 35.74241775 -35.35744786 29.2289682 -35.14453125 20.8125 C-34.05742366 12.93955241 -29.72310843 7.43007546 -23.73828125 2.5 C-16.93655919 -2.25985321 -7.85593747 -2.47849295 0 0 Z " fill="#ED2A4A" transform="translate(133.7734375,96.875)"/>
<path d="M0 0 C3.375 0.625 3.375 0.625 7 2 C7.67106065 3.99852997 8.3368493 5.99883144 9 8 C10.60381648 10.38937375 12.45804263 12.55221534 14.3125 14.75 C20.14640675 21.91095714 24.40960682 29.051369 27 38 C27.66 38 28.32 38 29 38 C29.33 38.66 29.66 39.32 30 40 C30.66 39.01 31.32 38.02 32 37 C31.01 36.505 31.01 36.505 30 36 C31.98 35.505 31.98 35.505 34 35 C34.33 33.02 34.66 31.04 35 29 C35.66 29 36.32 29 37 29 C33.19635833 45.48244723 23.59758001 61.51269476 12.11328125 73.7109375 C9.96127796 75.97422434 9.96127796 75.97422434 8.078125 78.4921875 C5.7573407 81.29283322 3.26095091 83.46050783 0.4375 85.75 C-0.98755859 86.91789062 -0.98755859 86.91789062 -2.44140625 88.109375 C-5 90 -5 90 -8 91 C-7.7215625 89.9171875 -7.7215625 89.9171875 -7.4375 88.8125 C-6.97556095 85.84289183 -7.40292255 83.91075256 -8 81 C-7.68521554 79.66216607 -7.35412344 78.32796291 -7 77 C-7.33 76.01 -7.66 75.02 -8 74 C-7.01 73.01 -7.01 73.01 -6 72 C-5.28293018 70.01751285 -4.61709587 68.01584651 -4 66 C-3.67 65.01 -3.34 64.02 -3 63 C-4.28472694 60.43054611 -5.59174176 58.40825824 -7.625 56.375 C-9 55 -9 55 -10 52 C-9.109375 49.80078125 -9.109375 49.80078125 -7.75 47.3125 C-6.7994699 45.55961067 -5.88687799 43.78593838 -5 42 C-4.46117187 40.91976562 -3.92234375 39.83953125 -3.3671875 38.7265625 C-0.88267671 31.92224499 -1.45745302 24.22293439 -1.375 17.0625 C-1.3384876 14.77254782 -1.29797146 12.48276667 -1.25234985 10.19297791 C-1.22514108 8.77524429 -1.20378191 7.35738405 -1.18881226 5.93946838 C-1.11074992 1.11074992 -1.11074992 1.11074992 0 0 Z " fill="#EC2163" transform="translate(199,124)"/>
<path d="M0 0 C1.57886896 -0.0020247 3.157737 -0.00493943 4.73660278 -0.00869751 C8.03656976 -0.01310483 11.33629209 -0.00674321 14.63623047 0.00732422 C18.84121706 0.02438711 23.04562783 0.01458342 27.25059319 -0.00339317 C30.5090865 -0.01429841 33.76744614 -0.01075352 37.02594376 -0.0030098 C38.57510574 -0.00102489 40.12428033 -0.00340616 41.67342758 -0.01044846 C50.87949254 -0.04311369 59.43233664 0.20444957 67.8203125 4.3984375 C67.8203125 5.0584375 67.8203125 5.7184375 67.8203125 6.3984375 C68.57957031 6.64078125 69.33882813 6.883125 70.12109375 7.1328125 C73.21674644 8.58431969 74.19604909 9.79236005 76.0078125 12.6484375 C76.74064453 13.76992187 76.74064453 13.76992187 77.48828125 14.9140625 C81.06011443 21.57589799 81.08745209 27.52718811 81.015625 34.921875 C81.0127951 36.02318756 81.00996521 37.12450012 81.00704956 38.25918579 C80.99588728 41.76404858 80.97078961 45.26865242 80.9453125 48.7734375 C80.93527761 51.15494422 80.92615265 53.53645495 80.91796875 55.91796875 C80.89596087 61.74487947 80.86252249 67.57163998 80.8203125 73.3984375 C80.4903125 73.3984375 80.1603125 73.3984375 79.8203125 73.3984375 C79.8203125 58.2184375 79.8203125 43.0384375 79.8203125 27.3984375 C75.8603125 27.8934375 75.8603125 27.8934375 71.8203125 28.3984375 C70.8303125 27.4084375 70.8303125 27.4084375 69.8203125 26.3984375 C68.7890625 27.0584375 67.7578125 27.7184375 66.6953125 28.3984375 C63.18153637 30.35994305 60.89182091 31.24666842 56.8203125 30.3984375 C53.91217378 28.81428241 51.70334228 27.14260895 49.8203125 24.3984375 C49.51698507 21.37599635 50.04428677 19.39907033 50.8203125 16.3984375 C49.3353125 16.8934375 49.3353125 16.8934375 47.8203125 17.3984375 C47.4078125 16.9240625 46.9953125 16.4496875 46.5703125 15.9609375 C44.6381275 14.23577232 43.33838975 13.83258875 40.8203125 13.3984375 C40.8203125 12.7384375 40.8203125 12.0784375 40.8203125 11.3984375 C40.2221875 11.5840625 39.6240625 11.7696875 39.0078125 11.9609375 C36.8203125 12.3984375 36.8203125 12.3984375 33.8203125 11.3984375 C32.36759257 11.36018045 30.9127076 11.3842391 29.4609375 11.44921875 C28.59936035 11.48716553 27.7377832 11.5251123 26.85009766 11.56420898 C25.474104 11.6368396 25.474104 11.6368396 24.0703125 11.7109375 C23.13106934 11.75871338 22.19182617 11.80648926 21.22412109 11.85571289 C10.86873169 12.43375789 0.79534532 13.42183317 -9.1796875 16.3984375 C-11.01257206 16.87931793 -12.84587525 17.35860696 -14.6796875 17.8359375 C-22.5817219 19.87602973 -22.5817219 19.87602973 -29.1796875 24.3984375 C-33.1396875 26.3784375 -33.1396875 26.3784375 -37.1796875 28.3984375 C-37.5096875 39.2884375 -37.8396875 50.1784375 -38.1796875 61.3984375 C-38.5096875 61.3984375 -38.8396875 61.3984375 -39.1796875 61.3984375 C-39.27936796 56.16981419 -39.35153497 50.94175706 -39.39941406 45.71240234 C-39.41939589 43.93756461 -39.44659105 42.16279156 -39.48144531 40.38818359 C-39.89109925 18.97774089 -39.89109925 18.97774089 -32.8046875 10.5859375 C-31.9384375 9.8640625 -31.0721875 9.1421875 -30.1796875 8.3984375 C-29.2515625 7.5321875 -28.3234375 6.6659375 -27.3671875 5.7734375 C-18.89015845 -0.54278022 -10.12131894 -0.04587163 0 0 Z " fill="#CA3086" transform="translate(103.1796875,59.6015625)"/>
<path d="M0 0 C0.76280273 0.19682373 1.52560547 0.39364746 2.31152344 0.59643555 C6.63606014 1.8194534 9.32920422 3.0124368 12.25 6.625 C11.569375 6.74875 10.88875 6.8725 10.1875 7 C7.12363427 7.61088485 7.12363427 7.61088485 3.6875 8.6875 C0.25 9.625 0.25 9.625 -3.75 9.625 C-4.41 9.955 -5.07 10.285 -5.75 10.625 C-8.68525624 12.09262812 -11.52609963 11.625 -14.75 11.625 C-16.77189077 11.7553551 -18.79270117 11.90297761 -20.8125 12.0625 C-22.40771484 12.18431641 -22.40771484 12.18431641 -24.03515625 12.30859375 C-26.7127281 12.46442024 -26.7127281 12.46442024 -28.75 13.625 C-31.6232346 14.09784888 -34.49233918 14.53024819 -37.375 14.9375 C-48.16950054 16.51044943 -58.9261455 18.27687494 -69.68017578 20.10449219 C-72.77428148 20.62911708 -75.86952756 21.1466336 -78.96484375 21.6640625 C-92.44685471 23.93672586 -92.44685471 23.93672586 -105.73828125 27.109375 C-107.75 27.625 -107.75 27.625 -109.75 27.625 C-106.53352976 17.82481724 -94.45547266 12.57558744 -85.7890625 8.09375 C-58.65114096 -5.03966388 -29.13843762 -7.74450381 0 0 Z " fill="#5651A1" transform="translate(156.75,7.375)"/>
<path d="M0 0 C5.30721977 2.35876434 6.83639731 5.91130316 9 11 C8.34 11.99 7.68 12.98 7 14 C6.30899447 15.99172182 5.64097297 17.99161804 5 20 C4.67 20.66 4.34 21.32 4 22 C4.2475 22.8971875 4.2475 22.8971875 4.5 23.8125 C5.11059785 26.48386557 4.54568895 28.33976638 4 31 C4.495 32.485 4.495 32.485 5 34 C3.66132023 37.64418381 2.94589485 39.54957388 -0.625 41.25 C-1.40875 41.4975 -2.1925 41.745 -3 42 C-3.495 42.99 -3.495 42.99 -4 44 C-6.42121921 45.3434992 -8.81477556 46.56772819 -11.3125 47.75 C-11.98990234 48.09160156 -12.66730469 48.43320313 -13.36523438 48.78515625 C-18.41973655 51.18641535 -18.41973655 51.18641535 -21.48046875 50.203125 C-21.98191406 49.80609375 -22.48335937 49.4090625 -23 49 C-23 48.34 -23 47.68 -23 47 C-23.66 47 -24.32 47 -25 47 C-26.5078125 44.8828125 -26.5078125 44.8828125 -28.125 42.125 C-28.66382813 41.22007812 -29.20265625 40.31515625 -29.7578125 39.3828125 C-31 37 -31 37 -31 35 C-31.66 34.67 -32.32 34.34 -33 34 C-34.02323436 32.68441297 -35.01755155 31.34631825 -36 30 C-36.89235739 28.95535408 -37.78837144 27.91382368 -38.6875 26.875 C-41 24 -41 24 -41 22 C-43.64 21.34 -46.28 20.68 -49 20 C-49 19.34 -49 18.68 -49 18 C-49.66 17.67 -50.32 17.34 -51 17 C-50.35675781 17.00112793 -49.71351563 17.00225586 -49.05078125 17.00341797 C-31.66428883 16.93211103 -14.99541314 16.09050153 -2 3 C-1.34 2.01 -0.68 1.02 0 0 Z " fill="#ED542A" transform="translate(188,177)"/>
<path d="M0 0 C0.99 0 1.98 0 3 0 C4.423125 -0.0309375 4.423125 -0.0309375 5.875 -0.0625 C9 0 9 0 11.625 0.5625 C14.18331799 1.0337691 15.52660178 0.63829632 18 0 C18.639375 0.165 19.27875 0.33 19.9375 0.5 C22.01449921 1.15696453 22.01449921 1.15696453 24.1875 0.5625 C33.82206302 -1.3644126 42.69575195 0.90973917 51 6 C54 8.625 54 8.625 56 11 C56 11.66 56 12.32 56 13 C56.721875 13.2475 57.44375 13.495 58.1875 13.75 C61.24713266 15.10983674 63.4673738 16.82917754 66 19 C61.40772074 22.58212111 57.9206731 23.63301135 52.0625 23.75 C51.32249756 23.77819824 50.58249512 23.80639648 49.82006836 23.83544922 C47.54662506 23.91353442 45.27442653 23.96129902 43 24 C42.31035156 24.01514648 41.62070313 24.03029297 40.91015625 24.04589844 C36.60264472 24.1319647 32.30688509 24.10098207 28 24 C27.17886719 23.99484375 26.35773438 23.9896875 25.51171875 23.984375 C9.66686433 23.21812988 -7.14815729 15.1911694 -21 8 C-21 5 -21 5 -19.9375 3.25 C-16.92632938 1.30730928 -14.41403384 2.3903511 -11 3 C-10.01 2.67 -9.02 2.34 -8 2 C-8 2.66 -8 3.32 -8 4 C-5.06556598 3.73343428 -5.06556598 3.73343428 -2 3 C-1.34 2.01 -0.68 1.02 0 0 Z " fill="#EEBB58" transform="translate(85,213)"/>
<path d="M0 0 C0.66 0 1.32 0 2 0 C1.79141357 0.63526611 1.58282715 1.27053223 1.36791992 1.92504883 C-0.94905269 9.56303578 -1.53123648 16.73591905 -1.6875 24.6875 C-1.72166016 25.87794922 -1.75582031 27.06839844 -1.79101562 28.29492188 C-1.87258666 31.19652018 -1.94202748 34.0978508 -2 37 C-5.92986933 38.58858383 -9.87148963 39.94940971 -13.9140625 41.21875 C-16.25386009 42.00484108 -16.25386009 42.00484108 -19 44 C-20.32 44 -21.64 44 -23 44 C-25.31406237 44.5618098 -25.31406237 44.5618098 -27.625 45.375 C-28.40101562 45.63023438 -29.17703125 45.88546875 -29.9765625 46.1484375 C-32.17577296 46.92413513 -32.17577296 46.92413513 -34 49 C-36.33294775 49.04241723 -38.66702567 49.04092937 -41 49 C-44.11785113 49.64644661 -44.11785113 49.64644661 -45 52 C-45.32174744 41.38233443 -45.59770914 31.16600382 -42 21 C-41.34 20.34 -40.68 19.68 -40 19 C-39.34 19.66 -38.68 20.32 -38 21 C-37.4225 20.566875 -36.845 20.13375 -36.25 19.6875 C-35.5075 19.130625 -34.765 18.57375 -34 18 C-33.34 17.46375 -32.68 16.9275 -32 16.375 C-29.3575153 14.55829177 -27.18131339 14 -24 14 C-23.67 13.34 -23.34 12.68 -23 12 C-22.01 11.67 -21.02 11.34 -20 11 C-19.34 10.34 -18.68 9.68 -18 9 C-15.375 8.875 -15.375 8.875 -13 9 C-12.773125 8.38125 -12.54625 7.7625 -12.3125 7.125 C-10.58827791 4.33340234 -9.08971083 3.95633907 -6 3 C-5.278125 2.835 -4.55625 2.67 -3.8125 2.5 C-1.76715335 2.0962237 -1.76715335 2.0962237 0 0 Z " fill="#A63692" transform="translate(52,72)"/>
<path d="M0 0 C3 0 3 0 4.6875 1.5 C5.120625 1.995 5.55375 2.49 6 3 C7.093125 2.67 8.18625 2.34 9.3125 2 C12.81142063 1.05114017 15.41710145 1 19 1 C19.66 1.66 20.32 2.32 21 3 C22.99712919 3.03273982 24.99541834 3.05791065 26.9921875 3.0078125 C29.4401112 2.99828751 31.61089419 3.47556214 34 4 C35.41561128 4.15574505 36.83246171 4.30039785 38.25 4.4375 C51.89817416 5.89817416 51.89817416 5.89817416 56 10 C57.3433489 10.54813179 58.6996111 11.06493738 60.0625 11.5625 C60.79597656 11.83191406 61.52945313 12.10132813 62.28515625 12.37890625 C62.85105469 12.58386719 63.41695313 12.78882813 64 13 C64 13.99 64 14.98 64 16 C65.485 16.495 65.485 16.495 67 17 C67.433125 17.7425 67.86625 18.485 68.3125 19.25 C69.85918122 21.77051755 70.93383972 22.90467485 73.1875 24.6875 C74.115625 25.450625 75.04375 26.21375 76 27 C76 27.66 76 28.32 76 29 C77.98 29.495 77.98 29.495 80 30 C80 30.99 80 31.98 80 33 C76.7 33.99 73.4 34.98 70 36 C70.33 34.68 70.66 33.36 71 32 C70.4225 31.66226563 69.845 31.32453125 69.25 30.9765625 C68.5075 30.53054687 67.765 30.08453125 67 29.625 C66.2575 29.18414062 65.515 28.74328125 64.75 28.2890625 C64.1725 27.86367187 63.595 27.43828125 63 27 C63 26.34 63 25.68 63 25 C61.515 24.505 61.515 24.505 60 24 C58 22 58 22 57 20 C54.73774618 18.92745649 54.73774618 18.92745649 52 18 C51.05125 17.649375 50.1025 17.29875 49.125 16.9375 C43.74643268 15.3239298 39.46807731 14.81771301 34 16 C32.66666667 15.66666667 31.33333333 15.33333333 30 15 C28.32577014 15.29299023 26.65821773 15.62690101 25 16 C21.70331445 16 19.17976546 15.65225958 16 15 C12.83071308 15 10.09056921 15.29174456 7 16 C6.484375 16.53625 5.96875 17.0725 5.4375 17.625 C4.963125 18.07875 4.48875 18.5325 4 19 C1.5 18.6875 1.5 18.6875 -1 18 C-1.99 18 -2.98 18 -4 18 C-4.65097656 17.97679687 -5.30195312 17.95359375 -5.97265625 17.9296875 C-7.98121994 17.87712695 -9.99176042 17.93624636 -12 18 C-12.66 18.66 -13.32 19.32 -14 20 C-18.08078833 19.69771938 -21.63030876 17.12165745 -25 15 C-27 12 -27 12 -27 9 C-27.99 8.67 -28.98 8.34 -30 8 C-29 6 -29 6 -27.25 5.3671875 C-14.04347826 2.47826087 -14.04347826 2.47826087 -9 5 C-8.34 4.34 -7.68 3.68 -7 3 C-6.34 3 -5.68 3 -5 3 C-4.34 2.34 -3.68 1.68 -3 1 C-2.67 1.66 -2.34 2.32 -2 3 C-1.34 2.01 -0.68 1.02 0 0 Z " fill="#EFAF40" transform="translate(78,199)"/>
<path d="M0 0 C1.12588014 0.95729916 2.2506715 1.91587895 3.375 2.875 C4.00148437 3.40867187 4.62796875 3.94234375 5.2734375 4.4921875 C6.55836651 5.61432007 7.79371975 6.79371975 9 8 C13.82419041 8.67314285 16.10864354 7.37100832 20.12890625 4.828125 C23.56298606 3.30823999 26.41027055 4.20904266 30 5 C30.66 5.33 31.32 5.66 32 6 C33.19388403 55.75892726 33.19388403 55.75892726 33 77 C32.67 77 32.34 77 32 77 C31.67 70.4 31.34 63.8 31 57 C29.35 56.34 27.7 55.68 26 55 C25.34 54.34 24.68 53.68 24 53 C22.00669158 51.65668346 20.00615134 50.32405988 18 49 C17.278125 48.401875 16.55625 47.80375 15.8125 47.1875 C15.214375 46.795625 14.61625 46.40375 14 46 C12.515 46.495 12.515 46.495 11 47 C10.96261719 46.03320312 10.92523438 45.06640625 10.88671875 44.0703125 C10.25566018 31.57287817 8.80611392 22.40187639 0 13 C-1.10225005 12.01558515 -2.22506258 11.05326274 -3.375 10.125 C-6 8 -6 8 -7 5 C-6.34 4.01 -5.68 3.02 -5 2 C-2.375 1.8125 -2.375 1.8125 0 2 C0 1.34 0 0.68 0 0 Z " fill="#EC1971" transform="translate(151,81)"/>
<path d="M0 0 C2.3381615 -0.29758419 4.67182036 -0.63239269 7 -1 C11 -1 11 -1 13 0 C14.3921875 -0.2475 14.3921875 -0.2475 15.8125 -0.5 C19.03534961 -1.00554504 20.87783939 -0.78054015 24 0 C27.3467173 0.59497196 30.68860744 1.09411819 34.0625 1.5 C54.39202853 4.08152743 54.39202853 4.08152743 59.37304688 9.49121094 C60.61580975 11.26300131 61.72827035 13.06473969 62.8125 14.9375 C63.19341797 15.55818359 63.57433594 16.17886719 63.96679688 16.81835938 C69.11833655 25.28998067 69.11833655 25.28998067 68.625 28.25 C68.41875 28.8275 68.2125 29.405 68 30 C67.154375 29.525625 66.30875 29.05125 65.4375 28.5625 C61.82011608 26.91823458 58.9196791 26.53148191 55 26 C53.47046392 25.50530739 51.94966289 24.982995 50.4375 24.4375 C46.77854701 23.14974666 43.89416515 22.91534424 40 23 C37.65319703 22.38242027 35.31847874 21.7166207 33 21 C32.17757812 20.87882812 31.35515625 20.75765625 30.5078125 20.6328125 C27.58928759 19.89636229 26.53136036 18.93446587 24.4375 16.8125 C14.90158986 8.03512817 3.5352489 4.74718038 -9.08984375 4.5859375 C-10.03436905 4.56657135 -10.97889435 4.5472052 -11.95204163 4.5272522 C-14.94710467 4.46782308 -17.94220691 4.42121846 -20.9375 4.375 C-22.97722962 4.33678644 -25.01694369 4.29773277 -27.05664062 4.2578125 C-32.03763299 4.1621519 -37.01870083 4.07798635 -42 4 C-42 3.34 -42 2.68 -42 2 C-35.29569777 1.07526866 -28.64820092 0.68140947 -21.890625 0.39453125 C-1.6477984 -0.54926613 -1.6477984 -0.54926613 0 0 Z " fill="#984599" transform="translate(160,42)"/>
<path d="M0 0 C3 1 3 1 5.5 3.5625 C7.7760635 6.34905007 7.7760635 6.34905007 11 6 C12.35368596 7.31266518 13.68799596 8.64567325 15 10 C15.66 10 16.32 10 17 10 C19.02743962 14.05487924 18.31711493 19.16784984 18.375 23.625 C18.43107422 25.22794922 18.43107422 25.22794922 18.48828125 26.86328125 C18.55808879 33.16922945 17.93043435 37.41632596 14.37353516 42.68505859 C13 44 13 44 10 44 C8 42 8 42 7 40 C6.4225 40.2475 5.845 40.495 5.25 40.75 C4.5075 40.8325 3.765 40.915 3 41 C1.6434836 39.69026002 0.31442362 38.35197858 -1 37 C-3.28764263 35.81418092 -5.58854088 34.92748428 -8 34 C-9.32 35.32 -10.64 36.64 -12 38 C-12.66 37.67 -13.32 37.34 -14 37 C-14 36.34 -14 35.68 -14 35 C-14.99 35 -15.98 35 -17 35 C-17.33 35.66 -17.66 36.32 -18 37 C-18.66 36.34 -19.32 35.68 -20 35 C-20.66 35.66 -21.32 36.32 -22 37 C-22.66 36.01 -23.32 35.02 -24 34 C-24.33 34.66 -24.66 35.32 -25 36 C-26.5 34.625 -26.5 34.625 -28 33 C-28 32.34 -28 31.68 -28 31 C-26.35 30.67 -24.7 30.34 -23 30 C-22.67 29.01 -22.34 28.02 -22 27 C-20.66570162 25.94630515 -19.28225659 24.95407227 -17.875 24 C-11.06902985 18.88199701 -7.36859962 11.91313414 -3.6875 4.375 C-2 1 -2 1 0 0 Z M-15 32 C-14.67 32.99 -14.34 33.98 -14 35 C-14 34.01 -14 33.02 -14 32 C-14.33 32 -14.66 32 -15 32 Z " fill="#EE2A48" transform="translate(165,126)"/>
<path d="M0 0 C0.70125 0.09023438 1.4025 0.18046875 2.125 0.2734375 C4 0.625 4 0.625 6 1.625 C7.3921875 1.5940625 7.3921875 1.5940625 8.8125 1.5625 C12.14181081 1.6277806 13.96234451 2.36548431 17 3.625 C18.0725 3.74875 19.145 3.8725 20.25 4 C24.33367466 4.68061244 27.40557434 6.04774795 31.08203125 7.8828125 C31.71496094 8.12773438 32.34789062 8.37265625 33 8.625 C33.66 8.295 34.32 7.965 35 7.625 C38.52903356 15.60061584 41.44212901 23.46486173 43.3125 32 C43.47137695 32.72364746 43.63025391 33.44729492 43.79394531 34.19287109 C45.45043298 42.18223856 46.16182878 50.03489945 46.0625 58.1875 C46.05798828 58.91001953 46.05347656 59.63253906 46.04882812 60.37695312 C46.03724279 62.12633944 46.01931762 63.87568199 46 65.625 C45.67 65.625 45.34 65.625 45 65.625 C44.95101562 64.67238281 44.90203125 63.71976562 44.8515625 62.73828125 C44.77679688 61.48402344 44.70203125 60.22976562 44.625 58.9375 C44.55539063 57.69613281 44.48578125 56.45476562 44.4140625 55.17578125 C44.03378754 51.91474407 43.49652836 49.53066821 42 46.625 C40.18703385 46.00407282 40.18703385 46.00407282 38 45.625 C29.97117466 41.08696828 24.53639059 33.5234673 20 25.625 C20 24.965 20 24.305 20 23.625 C19.01 23.955 18.02 24.285 17 24.625 C15.48816502 23.4418248 13.98193112 22.24786701 12.546875 20.97265625 C8.9672753 17.8540656 6.78773844 16.625 2 16.625 C-0.66666667 11.29166667 -3.33333333 5.95833333 -6 0.625 C-3.6150282 -0.5674859 -2.60431911 -0.354264 0 0 Z " fill="#D22F8D" transform="translate(195,62.375)"/>
<path d="M0 0 C1.20163555 1.80245332 2.37281154 3.62659882 3.48046875 5.48828125 C10.0167663 16.30233876 16.58742819 20.71536084 28 26 C28 26.66 28 27.32 28 28 C25.2915983 28.02714434 22.58347279 28.04690846 19.875 28.0625 C18.73417969 28.07506836 18.73417969 28.07506836 17.5703125 28.08789062 C13.24958808 28.10651444 9.26553027 27.77672782 5 27 C2.94603274 27.40929986 2.94603274 27.40929986 1 28 C0.278125 27.95875 -0.44375 27.9175 -1.1875 27.875 C-5.38368505 28.06149711 -9.07939457 29.56500716 -13 31 C-12.67 32.65 -12.34 34.3 -12 36 C-16.34112838 32.64549171 -19.04930734 29.68639422 -22 25 C-24.0832104 22.18418712 -26.18261937 19.38146525 -28.29296875 16.5859375 C-29.82440448 14.26600511 -30.57388329 12.7093391 -31 10 C-8.70873786 3 -8.70873786 3 -1 3 C-0.67 2.01 -0.34 1.02 0 0 Z " fill="#ED9124" transform="translate(53,166)"/>
<path d="M0 0 C3.29148243 1.13499394 3.9959869 1.99283376 5.75 5.125 C6.1625 6.07375 6.575 7.0225 7 8 C6.34 8.66 5.68 9.32 5 10 C5.28983269 13.30683466 5.28983269 13.30683466 7 16 C7.66 16.99 8.32 17.98 9 19 C8.34 19.66 7.68 20.32 7 21 C7.66 21.33 8.32 21.66 9 22 C9 22.66 9 23.32 9 24 C10.32 24 11.64 24 13 24 C14.33333333 26.66666667 15.66666667 29.33333333 17 32 C17.56074219 32.96679688 17.56074219 32.96679688 18.1328125 33.953125 C19.27932866 36.6593163 19.50054348 38.07374578 19 41 C17.30530092 43.44888454 15.66074885 45.54958865 13.6875 47.75 C12.88131226 48.66881958 12.88131226 48.66881958 12.05883789 49.60620117 C0.48015222 62.50661593 0.48015222 62.50661593 -7 65 C-6.814375 64.278125 -6.62875 63.55625 -6.4375 62.8125 C-5.97556095 59.84289183 -6.40292255 57.91075256 -7 55 C-6.68521554 53.66216607 -6.35412344 52.32796291 -6 51 C-6.495 49.515 -6.495 49.515 -7 48 C-6.34 47.34 -5.68 46.68 -5 46 C-4.28293018 44.01751285 -3.61709587 42.01584651 -3 40 C-2.67 39.01 -2.34 38.02 -2 37 C-3.28472694 34.43054611 -4.59174176 32.40825824 -6.625 30.375 C-8 29 -8 29 -9 26 C-8.109375 23.80078125 -8.109375 23.80078125 -6.75 21.3125 C-3.01876342 14.17132777 -0.71881669 8.05074688 0 0 Z " fill="#ED344D" transform="translate(198,150)"/>
<path d="M0 0 C0.639375 0.495 1.27875 0.99 1.9375 1.5 C3.70974339 3.09802862 3.70974339 3.09802862 5 3 C5.58541458 9.42808167 1.80365705 13.17411012 -2 18 C-4.14027339 20.5648385 -6.0206666 22.60826664 -9.1875 23.875 C-11 24 -11 24 -13 23 C-13.33 23.66 -13.66 24.32 -14 25 C-14.97850195 26.02104551 -15.97980427 27.0206121 -17 28 C-17.66 28.66 -18.32 29.32 -19 30 C-21.625 30.125 -21.625 30.125 -24 30 C-24.33 30.99 -24.66 31.98 -25 33 C-27.03125 33.66015625 -27.03125 33.66015625 -29.5 34.0625 C-31.91007019 34.42516952 -31.91007019 34.42516952 -34 35 C-34.33 35.66 -34.66 36.32 -35 37 C-35.99 37.66 -36.98 38.32 -38 39 C-38.66 39.53625 -39.32 40.0725 -40 40.625 C-42 42 -42 42 -45 42 C-46.486095 36.47034419 -45.3345711 33.08711847 -43.25 28 C-42.98445313 27.31421875 -42.71890625 26.6284375 -42.4453125 25.921875 C-40.83775758 21.83275472 -39.02490561 17.90343251 -37 14 C-35.02 14 -33.04 14 -31 14 C-30.67 13.34 -30.34 12.68 -30 12 C-28.00390625 11.33203125 -28.00390625 11.33203125 -25.5625 10.8125 C-24.35787109 10.54373047 -24.35787109 10.54373047 -23.12890625 10.26953125 C-21 10 -21 10 -19 11 C-18.67 10.34 -18.34 9.68 -18 9 C-16.68225804 8.60955794 -15.34332728 8.29044914 -14 8 C-8.11138709 6.15980846 -4.24479153 4.54799093 0 0 Z " fill="#8B3D99" transform="translate(57,52)"/>
<path d="M0 0 C0.66 0 1.32 0 2 0 C2 5.94 2 11.88 2 18 C-6 20 -6 20 -8.875 20.3125 C-9.57625 20.539375 -10.2775 20.76625 -11 21 C-11.309375 21.825 -11.61875 22.65 -11.9375 23.5 C-12.4634375 24.7375 -12.4634375 24.7375 -13 26 C-16.11909446 26.86272825 -18.7724251 27 -22 27 C-22.61875 27.350625 -23.2375 27.70125 -23.875 28.0625 C-26.61095728 29.26953998 -28.17417038 28.78495267 -31 28 C-31.33 28.66 -31.66 29.32 -32 30 C-32.804375 30.144375 -33.60875 30.28875 -34.4375 30.4375 C-37.34440658 30.76502717 -37.34440658 30.76502717 -39 34 C-39.3622244 31.06328811 -39.71508387 28.12596806 -40.0625 25.1875 C-40.2181543 23.93743164 -40.2181543 23.93743164 -40.37695312 22.66210938 C-40.47041016 21.85966797 -40.56386719 21.05722656 -40.66015625 20.23046875 C-40.74918213 19.49207764 -40.83820801 18.75368652 -40.92993164 17.99291992 C-41 16 -41 16 -40 13 C-36.20131999 11.10065999 -32.07444479 10.15442602 -28 9 C-24.9907608 8.02701266 -21.995029 7.01575596 -19 6 C-16 5 -16 5 -13 5 C-12.2575 4.525625 -11.515 4.05125 -10.75 3.5625 C-7.48628931 1.70811893 -4.6986058 1.42676221 -1 1 C-0.67 0.67 -0.34 0.34 0 0 Z " fill="#E43D3C" transform="translate(48,109)"/>
<path d="M0 0 C0.99 0.33 1.98 0.66 3 1 C3.99 1 4.98 1 6 1 C6.99 1.33 7.98 1.66 9 2 C8.76023437 3.50240234 8.76023437 3.50240234 8.515625 5.03515625 C7.27958636 14.53954424 7.08426032 23.18958573 11 32 C11.1875 35 11.1875 35 11 37 C7.77167035 38.07610988 7.0998653 37.93935312 4 37 C0.93532406 35.9706844 0.93532406 35.9706844 -2 37 C-2 36.34 -2 35.68 -2 35 C-2.99 35 -3.98 35 -5 35 C-5.33 35.66 -5.66 36.32 -6 37 C-6 36.34 -6 35.68 -6 35 C-7.1446875 35.2475 -7.1446875 35.2475 -8.3125 35.5 C-11 36 -11 36 -14 36 C-14 25.11 -14 14.22 -14 3 C-5 2 -5 2 -1 2 C-0.67 1.34 -0.34 0.68 0 0 Z " fill="#ED3141" transform="translate(79,104)"/>
<path d="M0 0 C7.3658406 1.76780174 10.5625191 2.94888969 15 9 C15.99 9 16.98 9 18 9 C21 12.33333333 21 12.33333333 21 15 C21.66 15.33 22.32 15.66 23 16 C24.33333333 18 25.66666667 20 27 22 C28.29470975 23.37086915 29.62150897 24.71340837 31 26 C31.66 26.66 32.32 27.32 33 28 C35.67545087 29.71503261 37.9757213 30.9919071 41 32 C42.83248906 35.4845895 43.24829019 38.40849314 43.23046875 42.30859375 C43.22853516 43.30310547 43.22660156 44.29761719 43.22460938 45.32226562 C43.20624023 46.86430664 43.20624023 46.86430664 43.1875 48.4375 C43.18685547 49.46166016 43.18621094 50.48582031 43.18554688 51.54101562 C43.156874 56.46319279 43.03672373 61.16472054 42 66 C41.67 66 41.34 66 41 66 C41 62.37 41 58.74 41 55 C40.01 54.505 40.01 54.505 39 54 C38.0415766 52.2814477 37.08394141 50.56244388 36.1328125 48.83984375 C33.83396993 45.10620634 30.65081277 42.4917252 27.1875 39.875 C26.465625 39.25625 25.74375 38.6375 25 38 C25 37.01 25 36.02 25 35 C24.4225 34.855625 23.845 34.71125 23.25 34.5625 C22.13625 34.2840625 22.13625 34.2840625 21 34 C20.29875 33.896875 19.5975 33.79375 18.875 33.6875 C17 33 17 33 16.0625 31.3125 C15.711875 30.549375 15.36125 29.78625 15 29 C14.14653381 27.94061815 13.26958869 26.89989293 12.375 25.875 C10 23 10 23 10 21 C9.360625 20.79375 8.72125 20.5875 8.0625 20.375 C6 19 6 19 5.25 15.875 C5.1675 14.92625 5.085 13.9775 5 13 C4.34 13 3.68 13 3 13 C2.34 13.66 1.68 14.32 1 15 C0.67 10.05 0.34 5.1 0 0 Z " fill="#E22289" transform="translate(197,77)"/>
<path d="M0 0 C1.32 0 2.64 0 4 0 C4 0.66 4 1.32 4 2 C4.99 1.67 5.98 1.34 7 1 C7 1.66 7 2.32 7 3 C9.475 3.495 9.475 3.495 12 4 C12.0825 4.61875 12.165 5.2375 12.25 5.875 C12.79278299 8.15354435 12.79278299 8.15354435 14.875 9.0625 C15.57625 9.371875 16.2775 9.68125 17 10 C19.41846761 12.04639567 20.77574726 14.08062809 22 17 C22 17.66 22 18.32 22 19 C22.66 19.33 23.32 19.66 24 20 C25.0703125 21.55859375 25.0703125 21.55859375 26.125 23.4375 C26.47820312 24.05496094 26.83140625 24.67242187 27.1953125 25.30859375 C28 27 28 27 28 29 C29.98 29.495 29.98 29.495 32 30 C32 30.66 32 31.32 32 32 C32.66 32.33 33.32 32.66 34 33 C32.5437455 33.67119549 31.08492133 34.33681807 29.625 35 C28.81289062 35.37125 28.00078125 35.7425 27.1640625 36.125 C25 37 25 37 23 37 C23 36.01 23 35.02 23 34 C21.68 33.67 20.36 33.34 19 33 C19 32.34 19 31.68 19 31 C18.01 30.67 17.02 30.34 16 30 C14.5 28.4765625 14.5 28.4765625 13 26.625 C11.49517152 24.78315265 10.07144892 23.06516406 8.3125 21.4609375 C7 20 7 20 7 17 C5.63875 16.7834375 5.63875 16.7834375 4.25 16.5625 C-1.08 15.64 -1.08 15.64 -3 15 C-3.33 14.34 -3.66 13.68 -4 13 C-9.62732812 10.64988979 -14.91061281 9.75642451 -21 10 C-22.33783393 9.68521554 -23.67203709 9.35412344 -25 9 C-25.804375 9.04125 -26.60875 9.0825 -27.4375 9.125 C-30.71207131 8.96526481 -32.42364369 7.98747487 -35 6 C-35 5.01 -35 4.02 -35 3 C-33.35 3 -31.7 3 -30 3 C-29.67 2.34 -29.34 1.68 -29 1 C-28.34 1.66 -27.68 2.32 -27 3 C-24.34462628 3.56520003 -21.70855287 3.73788198 -19 4 C-18.34 3.01 -17.68 2.02 -17 1 C-16.67 1.66 -16.34 2.32 -16 3 C-13.97536745 3.65213292 -13.97536745 3.65213292 -12 4 C-11.34 3.01 -10.68 2.02 -10 1 C-9.01 1.66 -8.02 2.32 -7 3 C-6.01 3 -5.02 3 -4 3 C-3.34 2.34 -2.68 1.68 -2 1 C-1.01 1.66 -0.02 2.32 1 3 C0.505 1.515 0.505 1.515 0 0 Z " fill="#EF8B37" transform="translate(135,195)"/>
<path d="M0 0 C0.69337967 -0.00029205 1.38675934 -0.00058411 2.10115051 -0.00088501 C4.3737171 0.00049893 6.64594832 0.01601539 8.91845703 0.03173828 C10.50171734 0.03547175 12.08497996 0.03831715 13.66824341 0.04031372 C17.82094786 0.0479239 21.97351084 0.06754972 26.12615967 0.08972168 C30.36940599 0.11023664 34.61267533 0.11932749 38.85595703 0.12939453 C47.17112588 0.15079825 55.48618007 0.18490236 63.80126953 0.22705078 C64.79126953 2.70205078 64.79126953 2.70205078 65.80126953 5.22705078 C64.81126953 4.89705078 63.82126953 4.56705078 62.80126953 4.22705078 C61.89376953 4.55705078 60.98626953 4.88705078 60.05126953 5.22705078 C56.17306757 6.42034369 53.7880478 5.8352034 49.80126953 5.22705078 C47.74877754 5.42893524 45.69656578 5.64163022 43.65283203 5.91845703 C40.78849588 6.22843314 37.94234403 6.35056852 35.06420898 6.45361328 C26.38727414 6.79248836 17.88548003 7.79886744 9.30126953 9.10205078 C8.21595947 9.26358643 7.13064941 9.42512207 6.01245117 9.59155273 C-1.20204348 10.73202448 -8.65280766 11.95300391 -15.24365234 15.25 C-18.10452361 16.67972113 -21.11948003 17.39802182 -24.19873047 18.22705078 C-25.23893694 15.67381671 -25.31003444 14.52121128 -24.32373047 11.91455078 C-17.86753353 3.74936053 -10.38553539 -0.0369592 0 0 Z " fill="#B8328B" transform="translate(92.19873046875,60.77294921875)"/>
<path d="M0 0 C1.134375 0.020625 2.26875 0.04125 3.4375 0.0625 C3.4375 0.7225 3.4375 1.3825 3.4375 2.0625 C5.7475 2.0625 8.0575 2.0625 10.4375 2.0625 C10.4375 1.4025 10.4375 0.7425 10.4375 0.0625 C13.4075 0.3925 16.3775 0.7225 19.4375 1.0625 C20.0975 2.7125 20.7575 4.3625 21.4375 6.0625 C22.7575 6.0625 24.0775 6.0625 25.4375 6.0625 C28.49162231 12.79777319 28.83844583 18.44232002 28.73046875 25.78125 C28.72622391 26.87973267 28.72197906 27.97821533 28.71760559 29.10998535 C28.70090661 32.5944136 28.66326996 36.07824861 28.625 39.5625 C28.60994185 41.93488744 28.59625543 44.30728401 28.58398438 46.6796875 C28.55103188 52.47415836 28.50092035 58.26828678 28.4375 64.0625 C28.1075 64.0625 27.7775 64.0625 27.4375 64.0625 C27.4375 48.8825 27.4375 33.7025 27.4375 18.0625 C23.4775 18.5575 23.4775 18.5575 19.4375 19.0625 C18.7775 18.4025 18.1175 17.7425 17.4375 17.0625 C16.40625 17.7225 15.375 18.3825 14.3125 19.0625 C10.79872387 21.02400555 8.50900841 21.91073092 4.4375 21.0625 C1.52936128 19.47834491 -0.67947022 17.80667145 -2.5625 15.0625 C-2.86582743 12.04005885 -2.33852573 10.06313283 -1.5625 7.0625 C-2.5525 7.3925 -3.5425 7.7225 -4.5625 8.0625 C-5.18125 7.3509375 -5.18125 7.3509375 -5.8125 6.625 C-7.744685 4.89983482 -9.04442275 4.49665125 -11.5625 4.0625 C-11.5625 3.4025 -11.5625 2.7425 -11.5625 2.0625 C-10.428125 1.918125 -9.29375 1.77375 -8.125 1.625 C-4.13770521 0.99542714 -4.0324238 0.07074428 0 0 Z " fill="#D9328B" transform="translate(155.5625,68.9375)"/>
<path d="M0 0 C0.495 0.99 0.495 0.99 1 2 C2.1446875 1.7215625 2.1446875 1.7215625 3.3125 1.4375 C6 1 6 1 9 2 C9 4.97 9 7.94 9 11 C5.09302088 12.6384106 1.12427348 13.95074007 -2.9140625 15.21875 C-5.25386009 16.00484108 -5.25386009 16.00484108 -8 18 C-9.32 18 -10.64 18 -12 18 C-14.31406237 18.5618098 -14.31406237 18.5618098 -16.625 19.375 C-17.40101562 19.63023438 -18.17703125 19.88546875 -18.9765625 20.1484375 C-21.17577296 20.92413513 -21.17577296 20.92413513 -23 23 C-25.33294775 23.04241723 -27.66702567 23.04092937 -30 23 C-33.11785113 23.64644661 -33.11785113 23.64644661 -34 26 C-34.05398987 23.72942623 -34.09278742 21.45848712 -34.125 19.1875 C-34.14820313 17.92292969 -34.17140625 16.65835938 -34.1953125 15.35546875 C-34 12 -34 12 -32 9 C-31.34 9 -30.68 9 -30 9 C-29.01 8.690625 -28.02 8.38125 -27 8.0625 C-23.11156159 6.90250367 -19.26954506 6.55311756 -15.234375 6.24609375 C-12.83154374 6.06077414 -12.83154374 6.06077414 -10 5 C-9.67 4.34 -9.34 3.68 -9 3 C-6.93734178 2.6088062 -4.90556733 2.49325481 -2.8125 2.34375 C-2.214375 2.2303125 -1.61625 2.116875 -1 2 C-0.67 1.34 -0.34 0.68 0 0 Z " fill="#C13973" transform="translate(41,98)"/>
<path d="M0 0 C3 0 3 0 4.6875 1.5 C5.120625 1.995 5.55375 2.49 6 3 C7.093125 2.67 8.18625 2.34 9.3125 2 C12.81142063 1.05114017 15.41710145 1 19 1 C19.66 1.66 20.32 2.32 21 3 C22.99712919 3.03273982 24.99541834 3.05791065 26.9921875 3.0078125 C29.4401112 2.99828751 31.61089419 3.47556214 34 4 C35.41561128 4.15574505 36.83246171 4.30039785 38.25 4.4375 C50.05067231 5.70044821 50.05067231 5.70044821 55 9 C55 9.66 55 10.32 55 11 C54.01 11.33 53.02 11.66 52 12 C51.01 11.34 50.02 10.68 49 10 C46.08879151 9.53351555 43.24103955 9.16382928 40.3125 8.875 C39.14557617 8.74544922 39.14557617 8.74544922 37.95507812 8.61328125 C32.94100723 8.08636471 28.04054013 7.92354544 23 8 C20 8 20 8 18 7 C17.67 7.99 17.34 8.98 17 10 C15 10 13 10 11 10 C10.34 10.66 9.68 11.32 9 12 C7.68 12 6.36 12 5 12 C4.34 11.34 3.68 10.68 3 10 C2.67 10.66 2.34 11.32 2 12 C-0.765625 12.4140625 -0.765625 12.4140625 -4.25 12.625 C-5.38953125 12.69976562 -6.5290625 12.77453125 -7.703125 12.8515625 C-9.70006497 12.94147212 -11.70060943 12.98681921 -13.69921875 12.94921875 C-16.26184101 12.892519 -16.26184101 12.892519 -19.5625 14.1875 C-23 15 -23 15 -25.4375 13.8125 C-27 12 -27 12 -27 9 C-27.99 8.67 -28.98 8.34 -30 8 C-29 6 -29 6 -27.25 5.3671875 C-14.04347826 2.47826087 -14.04347826 2.47826087 -9 5 C-8.34 4.34 -7.68 3.68 -7 3 C-6.34 3 -5.68 3 -5 3 C-4.34 2.34 -3.68 1.68 -3 1 C-2.67 1.66 -2.34 2.32 -2 3 C-1.34 2.01 -0.68 1.02 0 0 Z " fill="#EEA933" transform="translate(78,199)"/>
<path d="M0 0 C0 0.66 0 1.32 0 2 C1.98 2 3.96 2 6 2 C5.67 2.99 5.34 3.98 5 5 C3.02 4.67 1.04 4.34 -1 4 C-1.33 4.66 -1.66 5.32 -2 6 C-2.515625 5.814375 -3.03125 5.62875 -3.5625 5.4375 C-6.86417926 4.8448909 -9.67850274 5.51784717 -13 6 C-14.49979921 6.02454217 -16.0001676 6.02242274 -17.5 6 C-33.66687778 5.65034414 -33.66687778 5.65034414 -49 10 C-49.66 9.67 -50.32 9.34 -51 9 C-51.33 9.66 -51.66 10.32 -52 11 C-54 11.33333333 -56 11.66666667 -58 12 C-58.33 12.66 -58.66 13.32 -59 14 C-60.99571323 14.67939174 -62.99594773 15.34561559 -65 16 C-65.66 16.66 -66.32 17.32 -67 18 C-67.66 18.33 -68.32 18.66 -69 19 C-69.66 19.99 -70.32 20.98 -71 22 C-71.99 22 -72.98 22 -74 22 C-75.38938077 23.96147874 -76.7260411 25.96166576 -78 28 C-78.33 28 -78.66 28 -79 28 C-79 24.37 -79 20.74 -79 17 C-77.35 16.34 -75.7 15.68 -74 15 C-73.67 14.34 -73.34 13.68 -73 13 C-59.21638501 3.67578986 -40.24217774 0.92812444 -24 0 C-22.5728114 -0.10271433 -21.14573417 -0.20698357 -19.71875 -0.3125 C-18.20838581 -0.41742475 -16.69796898 -0.52159461 -15.1875 -0.625 C-14.48197998 -0.67736816 -13.77645996 -0.72973633 -13.04956055 -0.78369141 C-8.50014302 -1.07034497 -4.45971014 -0.78117798 0 0 Z " fill="#D3277C" transform="translate(144,71)"/>
<path d="M0 0 C1.13501953 -0.23976562 1.13501953 -0.23976562 2.29296875 -0.484375 C5.14397459 -1.02742373 7.37313125 -0.93624019 10.25 -0.625 C11.68472656 -0.47804687 11.68472656 -0.47804687 13.1484375 -0.328125 C14.94671263 -0.12120019 16.74384974 0.09612827 18.5390625 0.328125 C22.65668992 0.85143551 25.92719659 1.07809502 30 0 C30.99 0 31.98 0 33 0 C33.66 0.66 34.32 1.32 35 2 C36.99760305 2.34740923 38.99787771 2.67966043 41 3 C45.2419169 4.37238488 46.74344752 7.29280664 49 11 C39.64746623 11.88320724 30.39245165 12.21130375 21 12 C20.17371094 11.99484375 19.34742187 11.9896875 18.49609375 11.984375 C9.38653157 11.54077893 0.5716136 7.89196264 -8 5 C-8 4.34 -8 3.68 -8 3 C-8.66 2.67 -9.32 2.34 -10 2 C-4.13333333 -1.33333333 -4.13333333 -1.33333333 0 0 Z " fill="#EAC166" transform="translate(92,225)"/>
<path d="M0 0 C5.79429713 3.86286476 10.64739637 9.32164506 12.9375 15.9375 C13.16698466 19.61945388 13.11445253 23.25426588 12.9375 26.9375 C12.6075 26.9375 12.2775 26.9375 11.9375 26.9375 C11.793125 25.885625 11.64875 24.83375 11.5 23.75 C10.76948384 21.16710357 10.1880231 20.13263886 8.046875 18.46484375 C5.71734921 17.16934217 3.37016006 16.02621508 0.9375 14.9375 C0.27492187 14.61652344 -0.38765625 14.29554687 -1.0703125 13.96484375 C-4.36477231 12.43170769 -6.35473008 11.9375 -10.0625 11.9375 C-10.3925 10.9475 -10.7225 9.9575 -11.0625 8.9375 C-12.0525 9.2675 -13.0425 9.5975 -14.0625 9.9375 C-15.73254829 9.62154492 -17.39887583 9.28570041 -19.0625 8.9375 C-20.09375 8.9375 -21.125 8.9375 -22.1875 8.9375 C-25.0625 8.9375 -25.0625 8.9375 -28.0625 7.9375 C-28.3925 8.9275 -28.7225 9.9175 -29.0625 10.9375 C-29.7225 10.9375 -30.3825 10.9375 -31.0625 10.9375 C-31.3925 11.5975 -31.7225 12.2575 -32.0625 12.9375 C-33.0525 13.2675 -34.0425 13.5975 -35.0625 13.9375 C-33.17104479 7.69569781 -29.03408367 3.57349496 -24.125 -0.5 C-17.13336395 -4.08146168 -6.87440565 -3.5247377 0 0 Z " fill="#ED2661" transform="translate(136.0625,98.0625)"/>
<path d="M0 0 C1.62109375 1.48828125 1.62109375 1.48828125 3 3 C1.948125 3.32871094 1.948125 3.32871094 0.875 3.6640625 C-9.38506067 7.09337626 -16.53466864 12.27807099 -23 21 C-24.43701723 23.77853916 -24.43701723 23.77853916 -25 26 C-26.32 25.67 -27.64 25.34 -29 25 C-29.33 25.66 -29.66 26.32 -30 27 C-30.78375 26.814375 -31.5675 26.62875 -32.375 26.4375 C-34.97089775 25.74037734 -34.97089775 25.74037734 -37 27 C-37 26.34 -37 25.68 -37 25 C-37.78375 25.33 -38.5675 25.66 -39.375 26 C-42 27 -42 27 -44 27 C-44.66 27.66 -45.32 28.32 -46 29 C-46.99 28.34 -47.98 27.68 -49 27 C-49.36328125 25.125 -49.36328125 25.125 -49.3125 23 C-49.30669922 21.948125 -49.30669922 21.948125 -49.30078125 20.875 C-49 19 -49 19 -47 17 C-44.375 17.375 -44.375 17.375 -42 18 C-42 17.34 -42 16.68 -42 16 C-41.34 16 -40.68 16 -40 16 C-39.67 15.34 -39.34 14.68 -39 14 C-38.67 14.33 -38.34 14.66 -38 15 C-37.34 14.34 -36.68 13.68 -36 13 C-35.67 13.33 -35.34 13.66 -35 14 C-32.83333333 13.16666667 -32.83333333 13.16666667 -32 11 C-27.5 8 -27.5 8 -25 8 C-24.67 7.34 -24.34 6.68 -24 6 C-21.93734178 5.6088062 -19.90556733 5.49325481 -17.8125 5.34375 C-17.214375 5.2303125 -16.61625 5.116875 -16 5 C-15.67 4.34 -15.34 3.68 -15 3 C-12.66666667 3 -10.33333333 3 -8 3 C-7.38125 2.690625 -6.7625 2.38125 -6.125 2.0625 C-3.99937874 0.99968937 -2.36973375 0.22932907 0 0 Z " fill="#E3276B" transform="translate(114,80)"/>
<path d="M0 0 C2.93902349 -0.13481759 5.87189559 -0.23399416 8.8125 -0.3125 C10.06256836 -0.3753418 10.06256836 -0.3753418 11.33789062 -0.43945312 C13.66145599 -0.48611106 15.72570306 -0.48493084 18 0 C20.07421875 2.51953125 20.07421875 2.51953125 21 5 C21.99 4.01 22.98 3.02 24 2 C24.433125 2.9590625 24.433125 2.9590625 24.875 3.9375 C25.82823451 6.15206079 25.82823451 6.15206079 28 7 C30.42771144 9.74436945 31.74336426 12.6202327 33.10546875 16 C34.49308828 19.10245065 36.2601648 21.97779581 38.01171875 24.88671875 C39 27 39 27 39 31 C35.75 32.625 35.75 32.625 32 34 C29.5625 33.1875 29.5625 33.1875 28 32 C28 31.34 28 30.68 28 30 C27.34 30 26.68 30 26 30 C24.4921875 27.8828125 24.4921875 27.8828125 22.875 25.125 C22.33617187 24.22007812 21.79734375 23.31515625 21.2421875 22.3828125 C20 20 20 20 20 18 C19.34 17.67 18.68 17.34 18 17 C16.97676564 15.68441297 15.98244845 14.34631825 15 13 C14.10764261 11.95535408 13.21162856 10.91382368 12.3125 9.875 C10 7 10 7 10 5 C7.36 4.34 4.72 3.68 2 3 C2 2.34 2 1.68 2 1 C1.34 0.67 0.68 0.34 0 0 Z " fill="#EF7733" transform="translate(137,194)"/>
<path d="M0 0 C0.99 0 1.98 0 3 0 C4.423125 -0.0309375 4.423125 -0.0309375 5.875 -0.0625 C9 0 9 0 11.625 0.5625 C14.18331799 1.0337691 15.52660178 0.63829632 18 0 C18.639375 0.165 19.27875 0.33 19.9375 0.5 C22.01449921 1.15696453 22.01449921 1.15696453 24.1875 0.5625 C31.85360988 -0.97072198 38.85082923 -0.07458539 45.875 3.4375 C48 5 48 5 49 8 C47 10 47 10 44 11 C43.01 10.34 42.02 9.68 41 9 C40.34 9.33 39.68 9.66 39 10 C39.33 8.68 39.66 7.36 40 6 C38.02 6.99 36.04 7.98 34 9 C33.505 8.01 33.505 8.01 33 7 C32.05125 7.350625 31.1025 7.70125 30.125 8.0625 C25.98207294 9.28250306 22.36190054 8.80609579 18.13671875 8.19140625 C15.948607 7.8068495 15.948607 7.8068495 14 9 C12.42479578 8.76029501 10.84998019 8.51772933 9.27734375 8.26171875 C0.92948233 7.20417133 0.92948233 7.20417133 -7 9 C-12.3235948 9.93280688 -17.11018825 10.77089332 -22 8 C-21.1875 5.5625 -21.1875 5.5625 -20 3 C-17 2 -17 2 -15.125 2.5 C-12.48719714 3.1206595 -10.6018854 2.65047135 -8 2 C-8 2.66 -8 3.32 -8 4 C-5.06556598 3.73343428 -5.06556598 3.73343428 -2 3 C-1.34 2.01 -0.68 1.02 0 0 Z " fill="#EFB84B" transform="translate(85,213)"/>
<path d="M0 0 C1.77524382 2.66286573 3.20007488 5.26681686 4.625 8.125 C5.07101563 9.01445312 5.51703125 9.90390625 5.9765625 10.8203125 C7 13 7 13 7 14 C5.9378125 14.18175781 4.875625 14.36351562 3.78125 14.55078125 C-5.00774522 15.95705019 -5.00774522 15.95705019 -13.4375 18.6875 C-17.70825805 20.26093718 -21.51096368 21.10458571 -26 20 C-28.87864854 16.8334866 -30.07354295 14.09779081 -31 10 C-8.70873786 3 -8.70873786 3 -1 3 C-0.67 2.01 -0.34 1.02 0 0 Z " fill="#EC7C25" transform="translate(53,166)"/>
<path d="M0 0 C2.375 0.25 2.375 0.25 5 1 C6.125 3 6.125 3 7 5 C7.99 5.33 8.98 5.66 10 6 C9.67 7.32 9.34 8.64 9 10 C9.66 10.33 10.32 10.66 11 11 C11.39465208 13.58317727 11.50806152 16.14188281 11.65625 18.75 C11.7696875 19.4925 11.883125 20.235 12 21 C12.66 21.33 13.32 21.66 14 22 C13.34 22 12.68 22 12 22 C12.350625 22.556875 12.70125 23.11375 13.0625 23.6875 C14.2500817 26.6168682 13.99130348 28.02608955 13 31 C11.625 32.5 11.625 32.5 10 34 C9.566875 34.78375 9.13375 35.5675 8.6875 36.375 C6.51908207 39.74809456 4.21592083 41.60516534 1 44 C0.34 44 -0.32 44 -1 44 C-0.814375 43.278125 -0.62875 42.55625 -0.4375 41.8125 C0.02443905 38.84289183 -0.40292255 36.91075256 -1 34 C-0.68521554 32.66216607 -0.35412344 31.32796291 0 30 C-0.33 29.01 -0.66 28.02 -1 27 C-0.34 26.34 0.32 25.68 1 25 C1.71706982 23.01751285 2.38290413 21.01584651 3 19 C3.33 18.01 3.66 17.02 4 16 C2.71527306 13.43054611 1.40825824 11.40825824 -0.625 9.375 C-2 8 -2 8 -3 5 C-1.5625 2.3125 -1.5625 2.3125 0 0 Z " fill="#ED403A" transform="translate(192,171)"/>
<path d="M0 0 C1.03125 0.144375 2.0625 0.28875 3.125 0.4375 C5.043125 0.7159375 5.043125 0.7159375 7 1 C8.02996094 1.144375 9.05992187 1.28875 10.12109375 1.4375 C11.25675781 1.6025 12.39242187 1.7675 13.5625 1.9375 C15.17318359 2.16759766 15.17318359 2.16759766 16.81640625 2.40234375 C20 3 20 3 23.1171875 4.0625 C25.85072522 4.95145536 27.729588 5.10811039 30.5625 5.0625 C33.62129951 5.33163295 34.64498906 5.60393337 36.72265625 7.921875 C40.19378973 13.83923904 40.19378973 13.83923904 39.6171875 17.29296875 C39.41351563 17.85628906 39.20984375 18.41960937 39 19 C38.154375 18.525625 37.30875 18.05125 36.4375 17.5625 C32.82011608 15.91823458 29.9196791 15.53148191 26 15 C24.47046392 14.50530739 22.94966289 13.982995 21.4375 13.4375 C17.77854701 12.14974666 14.89416515 11.91534424 11 12 C8.65319703 11.38242027 6.31847874 10.7166207 4 10 C3.19046875 9.88398437 2.3809375 9.76796875 1.546875 9.6484375 C-1.49461909 8.87406937 -2.90344274 7.68751266 -5.1875 5.5625 C-5.86167969 4.94503906 -6.53585938 4.32757813 -7.23046875 3.69140625 C-8.50177392 2.47622934 -9.75644225 1.24355775 -11 0 C-7.15492001 -1.3842288 -3.96489801 -0.67201661 0 0 Z " fill="#AC4197" transform="translate(189,53)"/>
<path d="M0 0 C0.70125 0.09023438 1.4025 0.18046875 2.125 0.2734375 C4 0.625 4 0.625 6 1.625 C7.3921875 1.5940625 7.3921875 1.5940625 8.8125 1.5625 C12.14181081 1.6277806 13.96234451 2.36548431 17 3.625 C18.0725 3.74875 19.145 3.8725 20.25 4 C24.33367466 4.68061244 27.40557434 6.04774795 31.08203125 7.8828125 C31.71496094 8.12773438 32.34789062 8.37265625 33 8.625 C33.66 8.295 34.32 7.965 35 7.625 C36.00419637 10.0816947 37.00350501 12.54018353 38 15 C38.28617188 15.69867188 38.57234375 16.39734375 38.8671875 17.1171875 C41 22.3984375 41 22.3984375 41 24.625 C39.3125 25.4375 39.3125 25.4375 37 25.625 C34.5625 23.4375 34.5625 23.4375 32 20.625 C29.06745825 18.05008529 26.91219743 16.2045848 23 15.625 C23 14.965 23 14.305 23 13.625 C22.13375 13.50125 21.2675 13.3775 20.375 13.25 C17 12.625 17 12.625 14.203125 11.66015625 C10.93253345 10.60319678 7.75748074 10.02765179 4.375 9.4375 C-1.4739339 8.15700364 -1.4739339 8.15700364 -3.73046875 5.875 C-4.8125 3.9375 -4.8125 3.9375 -6 0.625 C-3.6150282 -0.5674859 -2.60431911 -0.354264 0 0 Z " fill="#C53592" transform="translate(195,62.375)"/>
<path d="M0 0 C2.0625 0.4375 2.0625 0.4375 4 1 C4 2.98 4 4.96 4 7 C1.66229203 7.69265421 -0.16799856 7.99600003 -2.625 7.9375 C-5.19124804 7.73240775 -5.19124804 7.73240775 -7 10 C-7 10.99 -7 11.98 -7 13 C-7.66 13 -8.32 13 -9 13 C-9.33 13.99 -9.66 14.98 -10 16 C-10.99 16 -11.98 16 -13 16 C-15.01151741 16.63106429 -17.01363702 17.29373761 -19 18 C-18.67 19.32 -18.34 20.64 -18 22 C-22.52381127 24.04301154 -27.16371695 25.00956295 -32 26 C-31.79375 26.61875 -31.5875 27.2375 -31.375 27.875 C-31.25125 28.57625 -31.1275 29.2775 -31 30 C-31.66 30.66 -32.32 31.32 -33 32 C-33.72791548 29.77715066 -34.43165008 27.54637243 -35.125 25.3125 C-35.51945312 24.07113281 -35.91390625 22.82976562 -36.3203125 21.55078125 C-37.04502585 17.76477877 -36.97584703 16.26104844 -35 13 C-29.99954915 10.67420891 -24.48617765 10 -19 10 C-16.44137136 8.88059997 -14.33818978 7.55879319 -12 6 C-11.34 6 -10.68 6 -10 6 C-9.67 4.68 -9.34 3.36 -9 2 C-9 2.66 -9 3.32 -9 4 C-8.34 4 -7.68 4 -7 4 C-6.67 3.34 -6.34 2.68 -6 2 C-4.34178227 1.62690101 -2.67422986 1.29299023 -1 1 C-0.67 0.67 -0.34 0.34 0 0 Z " fill="#E9422F" transform="translate(46,126)"/>
<path d="M0 0 C2.24628959 0.08396885 4.49243523 0.14546294 6.73950195 0.20458984 C8.18160288 0.25144254 9.62366296 0.29957393 11.06567383 0.34912109 C12.35836182 0.39327148 13.6510498 0.43742188 14.98291016 0.48291016 C18.20066694 0.81101487 20.51881677 1.45404915 23.42114258 2.83349609 C23.09114258 3.82349609 22.76114258 4.81349609 22.42114258 5.83349609 C21.76114258 5.50349609 21.10114258 5.17349609 20.42114258 4.83349609 C20.09114258 5.49349609 19.76114258 6.15349609 19.42114258 6.83349609 C18.11274414 6.80384766 16.8043457 6.77419922 15.45629883 6.74365234 C7.88946171 6.74498289 0.38357441 7.55540203 -7.14135742 8.27099609 C-18.61329993 9.3524784 -30.07140679 10.2265077 -41.57885742 10.83349609 C-40.91885742 9.84349609 -40.25885742 8.85349609 -39.57885742 7.83349609 C-38.91885742 7.83349609 -38.25885742 7.83349609 -37.57885742 7.83349609 C-37.57885742 7.17349609 -37.57885742 6.51349609 -37.57885742 5.83349609 C-35.62265164 5.20186852 -33.66374672 4.57859963 -31.70385742 3.95849609 C-30.61331055 3.61044922 -29.52276367 3.26240234 -28.39916992 2.90380859 C-26.50811523 2.37400391 -26.50811523 2.37400391 -24.57885742 1.83349609 C-23.54643921 1.54249023 -23.54643921 1.54249023 -22.49316406 1.24560547 C-15.02590336 -0.56731941 -7.61463403 -0.29057719 0 0 Z " fill="#4755A3" transform="translate(121.578857421875,4.16650390625)"/>
<path d="M0 0 C3.37785552 1.08091377 6.30545387 2.52389849 9.390625 4.2578125 C9.96296875 4.50273437 10.5353125 4.74765625 11.125 5 C11.785 4.67 12.445 4.34 13.125 4 C13.125 4.66 13.125 5.32 13.125 6 C13.69347656 6.17015625 14.26195312 6.3403125 14.84765625 6.515625 C20.0572114 8.15067737 24.47863141 10.13309172 29.125 13 C28.57776317 16.37462715 28.0701 18.08235 26.125 21 C25.135 21 24.145 21 23.125 21 C21.125 19 21.125 19 20.125 17 C19.5475 17.2475 18.97 17.495 18.375 17.75 C17.26125 17.87375 17.26125 17.87375 16.125 18 C14.7684836 16.69026002 13.43942362 15.35197858 12.125 14 C9.83735737 12.81418092 7.53645912 11.92748428 5.125 11 C3.805 12.32 2.485 13.64 1.125 15 C0.465 14.67 -0.195 14.34 -0.875 14 C-0.875 13.34 -0.875 12.68 -0.875 12 C-1.865 12 -2.855 12 -3.875 12 C-4.205 12.66 -4.535 13.32 -4.875 14 C-5.535 13.34 -6.195 12.68 -6.875 12 C-7.535 12.66 -8.195 13.32 -8.875 14 C-9.535 13.01 -10.195 12.02 -10.875 11 C-11.205 11.66 -11.535 12.32 -11.875 13 C-13.375 11.625 -13.375 11.625 -14.875 10 C-14.875 9.34 -14.875 8.68 -14.875 8 C-13.225 7.67 -11.575 7.34 -9.875 7 C-9.545 6.01 -9.215 5.02 -8.875 4 C-5.85579609 1.4722944 -4.00091398 0 0 0 Z M-1.875 9 C-1.545 9.99 -1.215 10.98 -0.875 12 C-0.875 11.01 -0.875 10.02 -0.875 9 C-1.205 9 -1.535 9 -1.875 9 Z " fill="#EE3C35" transform="translate(151.875,149)"/>
<path d="M0 0 C1.98 0.99 1.98 0.99 4 2 C4.639375 2.2475 5.27875 2.495 5.9375 2.75 C8 4 8 4 10.375 7 C13.2376527 10.27160309 14.89740868 10.90597565 19 12 C23.07335788 16.07335788 22.05902924 23.84536176 22.09765625 29.34765625 C22.09109231 31.58595855 22.0792901 33.82425105 22.0625 36.0625 C22.05798828 37.21427734 22.05347656 38.36605469 22.04882812 39.55273438 C22.03714426 42.36854518 22.02076281 45.18424398 22 48 C21.67 48 21.34 48 21 48 C20.505 38.1 20.505 38.1 20 28 C18.35 27.34 16.7 26.68 15 26 C14.34 25.34 13.68 24.68 13 24 C11.00669158 22.65668346 9.00615134 21.32405988 7 20 C6.278125 19.401875 5.55625 18.80375 4.8125 18.1875 C4.214375 17.795625 3.61625 17.40375 3 17 C2.01 17.33 1.02 17.66 0 18 C0 12.06 0 6.12 0 0 Z " fill="#ED215E" transform="translate(162,110)"/>
<path d="M0 0 C0.66 0 1.32 0 2 0 C2.05416188 1.60379341 2.09286638 3.20811406 2.125 4.8125 C2.14820313 5.70582031 2.17140625 6.59914063 2.1953125 7.51953125 C2 10 2 10 0 13 C-0.99 13 -1.98 13 -3 13 C-3.825 13.165 -4.65 13.33 -5.5 13.5 C-8.51536532 14.10307306 -11.24087657 13.99091032 -14.3125 13.875 C-17.97359284 13.99910484 -20.56713719 14.82970586 -24 16 C-24.99 15.67 -25.98 15.34 -27 15 C-27.33 15.66 -27.66 16.32 -28 17 C-28.78375 16.95875 -29.5675 16.9175 -30.375 16.875 C-33.16116119 16.71271266 -33.16116119 16.71271266 -35 19 C-38.125 18.625 -38.125 18.625 -41 18 C-40.8125 15.625 -40.8125 15.625 -40 13 C-37.875 11.8125 -37.875 11.8125 -35 11 C-33.9275 10.690625 -32.855 10.38125 -31.75 10.0625 C-30.5125 9.711875 -29.275 9.36125 -28 9 C-24.9907608 8.02701266 -21.995029 7.01575596 -19 6 C-16 5 -16 5 -13 5 C-12.2575 4.525625 -11.515 4.05125 -10.75 3.5625 C-7.48628931 1.70811893 -4.6986058 1.42676221 -1 1 C-0.67 0.67 -0.34 0.34 0 0 Z " fill="#D83855" transform="translate(48,109)"/>
<path d="M0 0 C3 1 3 1 5 3 C7.30911405 3.8473813 9.64474673 4.52421344 12.00390625 5.21875 C14 6 14 6 15 8 C15.99 8.33 16.98 8.66 18 9 C19.37849103 10.28659163 20.70529025 11.62913085 22 13 C22.886875 13.845625 23.77375 14.69125 24.6875 15.5625 C27 18 27 18 28 21 C28.66 21 29.32 21 30 21 C30.495 21.99 30.495 21.99 31 23 C32.65 23.33 34.3 23.66 36 24 C36.495 30.435 36.495 30.435 37 37 C26.61043143 31.80521571 18.99681683 23.91781246 13 14 C13 13.34 13 12.68 13 12 C12.01 12.33 11.02 12.66 10 13 C8.48975014 11.81806532 6.98509468 10.62505968 5.5546875 9.34765625 C3.00989456 7.14174277 0.44470737 5 -3 5 C-2.67 4.01 -2.34 3.02 -2 2 C-1.34 2 -0.68 2 0 2 C0 1.34 0 0.68 0 0 Z " fill="#DA278E" transform="translate(202,74)"/>
<path d="M0 0 C0.66 0.33 1.32 0.66 2 1 C2.99 0.67 3.98 0.34 5 0 C9.28311409 1.14216376 13.08221088 2.94782475 17 5 C17 5.66 17 6.32 17 7 C17.99 7.33 18.98 7.66 20 8 C22.04108797 11.00791911 22.19878036 13.42195344 22 17 C18.77167035 18.07610988 18.0998653 17.93935312 15 17 C11.93532406 15.9706844 11.93532406 15.9706844 9 17 C9 16.34 9 15.68 9 15 C8.01 15 7.02 15 6 15 C5.67 15.66 5.34 16.32 5 17 C5 16.34 5 15.68 5 15 C4.236875 15.165 3.47375 15.33 2.6875 15.5 C0 16 0 16 -3 16 C-3.08075665 13.70890403 -3.13907731 11.41700733 -3.1875 9.125 C-3.22230469 7.84882813 -3.25710937 6.57265625 -3.29296875 5.2578125 C-3.19628906 4.18273437 -3.09960938 3.10765625 -3 2 C-2.01 1.34 -1.02 0.68 0 0 Z " fill="#EE3931" transform="translate(68,124)"/>
<path d="M0 0 C0.99 0.33 1.98 0.66 3 1 C0.79196322 5.41607356 -1.63395181 7.68332137 -6 10 C-8.375 9.75 -8.375 9.75 -10 9 C-10.33 9.66 -10.66 10.32 -11 11 C-11.97850195 12.02104551 -12.97980427 13.0206121 -14 14 C-14.66 14.66 -15.32 15.32 -16 16 C-18.625 16.125 -18.625 16.125 -21 16 C-21.33 16.99 -21.66 17.98 -22 19 C-24.03125 19.66015625 -24.03125 19.66015625 -26.5 20.0625 C-28.91007019 20.42516952 -28.91007019 20.42516952 -31 21 C-31.33 21.66 -31.66 22.32 -32 23 C-32.99 23.66 -33.98 24.32 -35 25 C-35.66 25.53625 -36.32 26.0725 -37 26.625 C-39 28 -39 28 -42 28 C-43.09865494 23.38564927 -43.3105856 20.2360736 -41 16 C-37.8125 14.75 -37.8125 14.75 -34 14 C-32.741875 13.62875 -31.48375 13.2575 -30.1875 12.875 C-27 12 -27 12 -25 12 C-24.34 11.34 -23.68 10.68 -23 10 C-22.01 10 -21.02 10 -20 10 C-19.34 9.34 -18.68 8.68 -18 8 C-16.0618281 7.24444146 -14.12132973 6.4936787 -12.1640625 5.7890625 C-7.86441832 4.2213222 -3.82423599 2.54949066 0 0 Z " fill="#9A3995" transform="translate(54,66)"/>
<path d="M0 0 C0.515625 0.309375 1.03125 0.61875 1.5625 0.9375 C4.66665423 2.29059287 7.65115007 2.61359424 11 3 C11.66 2.01 12.32 1.02 13 0 C13.33 0.66 13.66 1.32 14 2 C15.86464182 2.57460044 15.86464182 2.57460044 18 3 C20.03658797 3.70855446 22.04281903 4.47811195 24.0546875 5.25390625 C25.54560577 5.8257243 27.05135583 6.35899955 28.5625 6.875 C36.45536827 10.51786228 40.84560186 16.22131673 46 23 C49.01370172 27.0596733 49.01370172 27.0596733 53 30 C53 30.66 53 31.32 53 32 C54.32 32 55.64 32 57 32 C56.67 33.32 56.34 34.64 56 36 C55.01 36 54.02 36 53 36 C53 35.01 53 34.02 53 33 C51.68 32.67 50.36 32.34 49 32 C49 31.34 49 30.68 49 30 C48.01 29.67 47.02 29.34 46 29 C44.5 27.4765625 44.5 27.4765625 43 25.625 C41.49517152 23.78315265 40.07144892 22.06516406 38.3125 20.4609375 C37 19 37 19 37 16 C35.63875 15.7834375 35.63875 15.7834375 34.25 15.5625 C28.92 14.64 28.92 14.64 27 14 C26.67 13.34 26.34 12.68 26 12 C20.37267188 9.64988979 15.08938719 8.75642451 9 9 C7.66216607 8.68521554 6.32796291 8.35412344 5 8 C4.195625 8.04125 3.39125 8.0825 2.5625 8.125 C-0.71207131 7.96526481 -2.42364369 6.98747487 -5 5 C-5 4.01 -5 3.02 -5 2 C-3.35 2 -1.7 2 0 2 C0 1.34 0 0.68 0 0 Z " fill="#EE9C35" transform="translate(105,196)"/>
<path d="M0 0 C1.33173604 0.21795731 2.6637904 0.43397528 3.99609375 0.6484375 C29.33895421 4.7796514 29.33895421 4.7796514 36 7 C37.3917773 7.21555251 38.78831216 7.40193746 40.1875 7.5625 C41.445625 7.706875 42.70375 7.85125 44 8 C44 8.33 44 8.66 44 9 C37.48979803 9.12757048 30.97992251 9.21467172 24.46875 9.2746582 C22.25736445 9.29968484 20.04606063 9.3337169 17.83496094 9.37719727 C14.64237209 9.43837176 11.45088387 9.46632914 8.2578125 9.48828125 C7.28135773 9.51408768 6.30490295 9.5398941 5.29885864 9.56648254 C-1.69382545 9.56929127 -7.22516016 8.06435073 -13 4 C-14.78024292 1.83003235 -14.78024292 1.83003235 -16 0 C-11.25565802 -2.37217099 -5.02310693 -0.89032315 0 0 Z " fill="#ED7925" transform="translate(88,171)"/>
<path d="M0 0 C0 3.96 0 7.92 0 12 C-1.340625 11.95875 -2.68125 11.9175 -4.0625 11.875 C-11.07996307 11.89689536 -16.74239881 14.20527495 -22.984375 17.1953125 C-25.68446536 18.27325555 -27.99434507 18.00024587 -30.875 17.875 C-35.18160007 18.047264 -37.94240227 18.94240227 -41 22 C-41 21.01 -41 20.02 -41 19 C-41.66 18.67 -42.32 18.34 -43 18 C-42.34 16.02 -41.68 14.04 -41 12 C-40.34 12.66 -39.68 13.32 -39 14 C-38.34 13.34 -37.68 12.68 -37 12 C-36.01 12 -35.02 12 -34 12 C-33.34 11.34 -32.68 10.68 -32 10 C-28.875 10.375 -28.875 10.375 -26 11 C-25.67 10.34 -25.34 9.68 -25 9 C-24.278125 9.03738281 -23.55625 9.07476562 -22.8125 9.11328125 C-16.45560253 8.85723955 -10.25970747 5.40334013 -5 2 C-1.21052632 0 -1.21052632 0 0 0 Z " fill="#B83781" transform="translate(50,88)"/>
<path d="M0 0 C0.99 0 1.98 0 3 0 C3.495 3.465 3.495 3.465 4 7 C0.09302088 8.6384106 -3.87572652 9.95074007 -7.9140625 11.21875 C-10.25386009 12.00484108 -10.25386009 12.00484108 -13 14 C-14.32 14 -15.64 14 -17 14 C-19.31406237 14.5618098 -19.31406237 14.5618098 -21.625 15.375 C-22.40101562 15.63023438 -23.17703125 15.88546875 -23.9765625 16.1484375 C-26.17577296 16.92413513 -26.17577296 16.92413513 -28 19 C-30.3329614 19.04166002 -32.6670386 19.04166002 -35 19 C-35.66 19.33 -36.32 19.66 -37 20 C-37 18.02 -37 16.04 -37 14 C-36.34 13.67 -35.68 13.34 -35 13 C-34.34 12.34 -33.68 11.68 -33 11 C-30.79296875 10.1484375 -30.79296875 10.1484375 -28.1875 9.375 C-27.33542969 9.11460938 -26.48335937 8.85421875 -25.60546875 8.5859375 C-23 8 -23 8 -20.30078125 8.0390625 C-17.79985215 8.26318643 -17.79985215 8.26318643 -16 6 C-11.05716947 3.84492589 -6.4304292 2.58227468 -1 3 C-0.67 2.01 -0.34 1.02 0 0 Z " fill="#CE3665" transform="translate(46,102)"/>
<path d="M0 0 C3.26104325 2.69036068 3.9034571 4.32419973 4.5 8.5 C3.9231981 12.53761333 2.85349783 14.14650217 0 17 C-2.925916 18.462958 -4.75617347 18.44523109 -8 18 C-10.95881249 15.42711957 -12.58043481 13.76623409 -13.484375 9.9609375 C-13.72998808 6.31767678 -13.27796342 4.34745428 -11 1.5 C-6.82296856 -0.58851572 -4.65066471 -0.66438067 0 0 Z " fill="#FDF5F8" transform="translate(168,72)"/>
<path d="M0 0 C0.99 0.33 1.98 0.66 3 1 C3.99 1 4.98 1 6 1 C6.99 1.33 7.98 1.66 9 2 C8.34 7.61 7.68 13.22 7 19 C6.67 19 6.34 19 6 19 C5.87625 17.865625 5.7525 16.73125 5.625 15.5625 C5.41875 14.386875 5.2125 13.21125 5 12 C4.34 11.67 3.68 11.34 3 11 C2.67 11.66 2.34 12.32 2 13 C2 12.34 2 11.68 2 11 C1.01 11.33 0.02 11.66 -1 12 C-4 12 -4 12 -7 11 C-7.33 11.66 -7.66 12.32 -8 13 C-11 13 -11 13 -14 12 C-14 9.03 -14 6.06 -14 3 C-9.60587331 2.48304392 -5.42613977 2 -1 2 C-0.67 1.34 -0.34 0.68 0 0 Z " fill="#E92D53" transform="translate(79,104)"/>
<path d="M0 0 C6.97506248 -0.26713005 13.21469889 0.42000963 20 2 C20.79792969 2.16757812 21.59585938 2.33515625 22.41796875 2.5078125 C25.80742338 3.22317478 29.02702068 4.00917684 32.3125 5.125 C35.16285516 6.2063907 35.16285516 6.2063907 39 6 C40.42944945 8.35438733 41.08661261 9.48032433 40.625 12.25 C40.41875 12.8275 40.2125 13.405 40 14 C38.7315625 13.2884375 38.7315625 13.2884375 37.4375 12.5625 C33.82011608 10.91823458 30.9196791 10.53148191 27 10 C25.47046392 9.50530739 23.94966289 8.982995 22.4375 8.4375 C18.77854701 7.14974666 15.89416515 6.91534424 12 7 C9.65319703 6.38242027 7.31847874 5.7166207 5 5 C3.33753959 4.64628502 1.67225729 4.30404678 0 4 C0 2.68 0 1.36 0 0 Z " fill="#B73B94" transform="translate(188,58)"/>
<path d="M0 0 C2.64 0.99 5.28 1.98 8 3 C8 3.99 8 4.98 8 6 C8.99 6.33 9.98 6.66 11 7 C11.433125 7.7425 11.86625 8.485 12.3125 9.25 C13.85918122 11.77051755 14.93383972 12.90467485 17.1875 14.6875 C18.115625 15.450625 19.04375 16.21375 20 17 C20 17.66 20 18.32 20 19 C21.32 19.33 22.64 19.66 24 20 C24 20.99 24 21.98 24 23 C19.05 24.485 19.05 24.485 14 26 C14.33 24.68 14.66 23.36 15 22 C14.4225 21.66226563 13.845 21.32453125 13.25 20.9765625 C12.5075 20.53054687 11.765 20.08453125 11 19.625 C10.2575 19.18414062 9.515 18.74328125 8.75 18.2890625 C8.1725 17.86367187 7.595 17.43828125 7 17 C7 16.34 7 15.68 7 15 C6.34 15 5.68 15 5 15 C4.97421875 14.38511719 4.9484375 13.77023438 4.921875 13.13671875 C4.7663953 8.04764174 4.7663953 8.04764174 1.9375 4.125 C1.298125 3.75375 0.65875 3.3825 0 3 C0 2.01 0 1.02 0 0 Z " fill="#EFA145" transform="translate(134,209)"/>
<path d="M0 0 C0.66 0.33 1.32 0.66 2 1 C2.3125 3.8125 2.3125 3.8125 2 7 C-0.125 8.625 -0.125 8.625 -3 10 C-3.969375 10.70125 -4.93875 11.4025 -5.9375 12.125 C-9.09690312 14.05932844 -11.3467667 14.65207302 -15 15 C-15.33 15.99 -15.66 16.98 -16 18 C-17.32 17.34 -18.64 16.68 -20 16 C-20.33 16.66 -20.66 17.32 -21 18 C-21.78375 17.979375 -22.5675 17.95875 -23.375 17.9375 C-25.98114961 17.81315937 -25.98114961 17.81315937 -28 19 C-28.66 17.35 -29.32 15.7 -30 14 C-27.79240529 13.42766063 -25.62690222 12.93781704 -23.375 12.5625 C-20.82892516 12.17899671 -20.82892516 12.17899671 -19 10 C-15.49086046 8.41744687 -11.9534988 6.98155987 -8.375 5.5625 C-5.1053295 4.04876366 -2.69516326 2.36847681 0 0 Z " fill="#B1338C" transform="translate(48,81)"/>
<path d="M0 0 C0.66 0 1.32 0 2 0 C-1.09609149 13.41639647 -8.33816521 25.69879369 -16 37 C-18.33333333 32.33333333 -20.66666667 27.66666667 -23 23 C-21 21 -21 21 -18 20 C-17.34 20.66 -16.68 21.32 -16 22 C-15.01 22 -14.02 22 -13 22 C-12.34 21.34 -11.68 20.68 -11 20 C-10.34 20.66 -9.68 21.32 -9 22 C-7.02 17.38 -5.04 12.76 -3 8 C-3.66 7.67 -4.32 7.34 -5 7 C-3.68 6.67 -2.36 6.34 -1 6 C-0.67 4.02 -0.34 2.04 0 0 Z " fill="#E83062" transform="translate(234,153)"/>
<path d="M0 0 C9.21488863 -0.0697738 18.42968512 -0.12294944 27.64478111 -0.15543652 C31.92457849 -0.17103542 36.20419398 -0.19216697 40.48388672 -0.22631836 C44.62065014 -0.25911939 48.75723955 -0.27689635 52.89412308 -0.28463173 C54.46564087 -0.29013826 56.03715008 -0.30089037 57.60859299 -0.31719017 C66.8952827 -0.40961054 75.50219409 -0.24890296 84 4 C84 4.66 84 5.32 84 6 C84.7425 6.226875 85.485 6.45375 86.25 6.6875 C89.5425747 8.2589561 90.97497109 9.99995716 93 13 C93 13.66 93 14.32 93 15 C92.01 15 91.02 15 90 15 C88 12 88 12 88 9 C85.18146844 8.06048948 83.0327004 8 80 8 C74.25 8 74.25 8 72 7 C69 3.67857143 69 3.67857143 69 1 C46.23 1 23.46 1 0 1 C0 0.67 0 0.34 0 0 Z " fill="#CA66AB" transform="translate(87,60)"/>
<path d="M0 0 C2.33746522 0.30300475 4.67085177 0.63858045 7 1 C7.99 1 8.98 1 10 1 C10.33 1.66 10.66 2.32 11 3 C11.99 2.67 12.98 2.34 14 2 C17.30355083 2.40287205 18.60880279 2.60880279 21 5 C21.66 5 22.32 5 23 5 C24.38232443 6.62626404 25.71937515 8.2925002 27 10 C20.9025231 12.0324923 13.98944165 12.19189427 7.9921875 9.80078125 C3.79751479 7.373252 0.86922948 5.59810459 -1 1 C-0.67 0.67 -0.34 0.34 0 0 Z " fill="#EE4041" transform="translate(106,134)"/>
<path d="M0 0 C2.97 0 5.94 0 9 0 C9 0.66 9 1.32 9 2 C8.34 2 7.68 2 7 2 C6.67 2.66 6.34 3.32 6 4 C5.34 3.67 4.68 3.34 4 3 C4 3.66 4 4.32 4 5 C3.34 5 2.68 5 2 5 C1.67 5.66 1.34 6.32 1 7 C-4.22222222 9 -4.22222222 9 -7 9 C-7.66 9.66 -8.32 10.32 -9 11 C-11.65537372 11.56520003 -14.29144713 11.73788198 -17 12 C-17.66 9.69 -18.32 7.38 -19 5 C-18.154375 4.87625 -17.30875 4.7525 -16.4375 4.625 C-12.94841938 4.05559053 -12.94841938 4.05559053 -9.4375 2.9375 C-6.40145325 2.10948725 -4.11160302 1.811418 -1 2 C-0.67 1.34 -0.34 0.68 0 0 Z " fill="#DC3D47" transform="translate(27,122)"/>
<path d="M0 0 C0.99 0.66 1.98 1.32 3 2 C3 2.66 3 3.32 3 4 C3.66 4.33 4.32 4.66 5 5 C7.42771144 7.74436945 8.74336426 10.6202327 10.10546875 14 C11.49308828 17.10245065 13.2601648 19.97779581 15.01171875 22.88671875 C16 25 16 25 16 29 C15.01 29.33 14.02 29.66 13 30 C13 29.01 13 28.02 13 27 C12.34 27 11.68 27 11 27 C10.71125 26.38125 10.4225 25.7625 10.125 25.125 C9.06279958 22.86674235 9.06279958 22.86674235 7 21 C5.79167805 18.70019855 4.62981913 16.40013833 3.5 14.0625 C1.80981552 10.58666037 0.14995768 7.22493652 -2 4 C-1.34 2.68 -0.68 1.36 0 0 Z " fill="#EF692E" transform="translate(160,196)"/>
<path d="M0 0 C0.66 0 1.32 0 2 0 C1.67 0.66 1.34 1.32 1 2 C0.67 1.34 0.34 0.68 0 0 Z M-6.93359375 0.90234375 C-5.69802734 0.91974609 -5.69802734 0.91974609 -4.4375 0.9375 C-3.61121094 0.94652344 -2.78492187 0.95554688 -1.93359375 0.96484375 C-1.29550781 0.97644531 -0.65742188 0.98804688 0 1 C-0.33 1.99 -0.66 2.98 -1 4 C-0.67 4.99 -0.34 5.98 0 7 C-4.52381127 9.04301154 -9.16371695 10.00956295 -14 11 C-13.690625 11.928125 -13.690625 11.928125 -13.375 12.875 C-13.25125 13.57625 -13.1275 14.2775 -13 15 C-13.66 15.66 -14.32 16.32 -15 17 C-16.32 12.38 -17.64 7.76 -19 3 C-16.525 3.495 -16.525 3.495 -14 4 C-13.67 3.34 -13.34 2.68 -13 2 C-12.01 2 -11.02 2 -10 2 C-9 1 -9 1 -6.93359375 0.90234375 Z " fill="#E74C34" transform="translate(28,141)"/>
<path d="M0 0 C0.99 0.33 1.98 0.66 3 1 C2.34 1 1.68 1 1 1 C1 1.66 1 2.32 1 3 C3.97 3.33 6.94 3.66 10 4 C10.98466253 6.95398758 11.12127836 8.85249022 11.11352539 11.93041992 C11.11344986 12.93123093 11.11337433 13.93204193 11.11329651 14.96318054 C11.10813522 16.04138565 11.10297394 17.11959076 11.09765625 18.23046875 C11.0962413 19.33602615 11.09482635 20.44158356 11.09336853 21.5806427 C11.08776514 25.11628917 11.07521204 28.65187262 11.0625 32.1875 C11.05748544 34.58268138 11.05292246 36.97786375 11.04882812 39.37304688 C11.03779461 45.24871947 11.02105316 51.12435523 11 57 C10.67 57 10.34 57 10 57 C10 41.82 10 26.64 10 11 C7.36 11.33 4.72 11.66 2 12 C1.34 11.34 0.68 10.68 0 10 C-0.66 10 -1.32 10 -2 10 C-1.34 6.7 -0.68 3.4 0 0 Z " fill="#EA2C85" transform="translate(173,76)"/>
<path d="M0 0 C0.66 0 1.32 0 2 0 C1.51300086 4.28559243 0.73940076 6.68989075 -2 10 C-2.33 10.99 -2.66 11.98 -3 13 C-4.32 12.67 -5.64 12.34 -7 12 C-7.33 12.66 -7.66 13.32 -8 14 C-8.78375 13.814375 -9.5675 13.62875 -10.375 13.4375 C-12.97089775 12.74037734 -12.97089775 12.74037734 -15 14 C-15 13.34 -15 12.68 -15 12 C-16.65 12.66 -18.3 13.32 -20 14 C-19.6875 12.0625 -19.6875 12.0625 -19 10 C-18.01 9.67 -17.02 9.34 -16 9 C-15.34 8.34 -14.68 7.68 -14 7 C-13.67 7 -13.34 7 -13 7 C-13 6.67 -13 6.34 -13 6 C-11.63875 5.814375 -11.63875 5.814375 -10.25 5.625 C-6.0542141 4.8181181 -3.53467644 3.35645096 0 1 C0 0.67 0 0.34 0 0 Z " fill="#EA2860" transform="translate(92,93)"/>
<path d="M0 0 C0 3.96 0 7.92 0 12 C-2.21354167 11.96744792 -4.42708333 11.93489583 -6.640625 11.90234375 C-9.00234701 11.91917899 -9.00234701 11.91917899 -11.234375 12.56640625 C-11.81703125 12.70949219 -12.3996875 12.85257813 -13 13 C-14 12 -14 12 -14.0625 9.4375 C-14.041875 8.633125 -14.02125 7.82875 -14 7 C-1.93103448 0 -1.93103448 0 0 0 Z " fill="#C02F86" transform="translate(50,88)"/>
<path d="M0 0 C6.82258365 1.90397683 10.7200477 5.33522304 15 10.875 C15.68320313 11.74769531 16.36640625 12.62039062 17.0703125 13.51953125 C17.70710938 14.33808594 18.34390625 15.15664062 19 16 C22.01521714 20.05814597 22.01521714 20.05814597 26 23 C26 23.66 26 24.32 26 25 C27.32 25 28.64 25 30 25 C29.67 26.32 29.34 27.64 29 29 C28.01 29 27.02 29 26 29 C26 28.01 26 27.02 26 26 C24.68 25.67 23.36 25.34 22 25 C22 24.34 22 23.68 22 23 C21.01 22.67 20.02 22.34 19 22 C17.5 20.4765625 17.5 20.4765625 16 18.625 C14.52277732 16.81694099 13.07774218 15.07697435 11.41796875 13.43359375 C9.07627618 11.06609741 7 8.39995 7 5 C6.21625 4.9175 5.4325 4.835 4.625 4.75 C2 4 2 4 0.6875 1.9375 C0.460625 1.298125 0.23375 0.65875 0 0 Z " fill="#ED9741" transform="translate(132,203)"/>
<path d="M0 0 C0.33 0.66 0.66 1.32 1 2 C1.763125 1.814375 2.52625 1.62875 3.3125 1.4375 C6 1 6 1 9 2 C8.67 3.32 8.34 4.64 8 6 C7.01 6 6.02 6 5 6 C4.54625 6.515625 4.0925 7.03125 3.625 7.5625 C3.08875 8.036875 2.5525 8.51125 2 9 C0.32995171 8.68404492 -1.33637583 8.34820041 -3 8 C-6.24236568 8.85771342 -6.24236568 8.85771342 -9 10 C-10.5 8.625 -10.5 8.625 -12 7 C-12 6.34 -12 5.68 -12 5 C-11.34 5 -10.68 5 -10 5 C-9.67 4.34 -9.34 3.68 -9 3 C-6.93734178 2.6088062 -4.90556733 2.49325481 -2.8125 2.34375 C-2.214375 2.2303125 -1.61625 2.116875 -1 2 C-0.67 1.34 -0.34 0.68 0 0 Z " fill="#C73176" transform="translate(41,98)"/>
<path d="M0 0 C0.87914063 0.00902344 1.75828125 0.01804688 2.6640625 0.02734375 C4.8178271 0.05075423 6.97145014 0.0866199 9.125 0.125 C9.125 0.455 9.125 0.785 9.125 1.125 C8.01382813 1.31835938 6.90265625 1.51171875 5.7578125 1.7109375 C3.46738973 2.10955197 1.17822226 2.51305117 -1.10913086 2.92895508 C-4.38836754 3.52465296 -7.63819932 4.0970172 -10.94921875 4.48828125 C-17.96546437 5.40248594 -21.41703627 8.77046256 -25.875 14.125 C-25.875 11.125 -25.875 11.125 -23.6875 8.6875 C-15.89111796 1.5841297 -10.40620185 -0.20373588 0 0 Z " fill="#AD4397" transform="translate(94.875,60.875)"/>
<path d="M0 0 C5.94 0 11.88 0 18 0 C18.66 1.98 19.32 3.96 20 6 C19.01 7.485 19.01 7.485 18 9 C15.18060883 6.79020692 12.46941056 4.59937954 10 2 C9.34 2.66 8.68 3.32 8 4 C4.875 3.625 4.875 3.625 2 3 C2 2.34 2 1.68 2 1 C1.34 0.67 0.68 0.34 0 0 Z " fill="#ED7826" transform="translate(137,194)"/>
<path d="M0 0 C1.98 0.99 1.98 0.99 4 2 C4 2.66 4 3.32 4 4 C4.556875 4.2475 5.11375 4.495 5.6875 4.75 C8.4088901 6.22102167 10.61578522 8.03302281 13 10 C14.32901064 11.00573778 15.66073801 12.00795408 17 13 C14.69 14.32 12.38 15.64 10 17 C10.33 15.68 10.66 14.36 11 13 C10.4225 12.66226563 9.845 12.32453125 9.25 11.9765625 C8.5075 11.53054687 7.765 11.08453125 7 10.625 C6.2575 10.18414062 5.515 9.74328125 4.75 9.2890625 C4.1725 8.86367187 3.595 8.43828125 3 8 C3 7.34 3 6.68 3 6 C2.34 6 1.68 6 1 6 C0.67 4.02 0.34 2.04 0 0 Z " fill="#EDA84F" transform="translate(138,218)"/>
<path d="M0 0 C1.5 1.375 1.5 1.375 3 3 C3 3.66 3 4.32 3 5 C4.32 5 5.64 5 7 5 C7.33 6.65 7.66 8.3 8 10 C6.02 10.33 4.04 10.66 2 11 C2 10.34 2 9.68 2 9 C1.34 9 0.68 9 0 9 C-1 7 -2 5 -3 3 C-2.01 2.01 -1.02 1.02 0 0 Z " fill="#DE2689" transform="translate(174,70)"/>
<path d="M0 0 C0.66 0 1.32 0 2 0 C-0.16074073 9.36320984 -4.58447204 17.54651892 -9 26 C-9.33 25.01 -9.66 24.02 -10 23 C-9.07258433 21.31077859 -8.13496835 19.62557357 -7.125 17.984375 C-5.32068197 14.80175848 -4.20952105 11.447135 -3 8 C-3.66 7.67 -4.32 7.34 -5 7 C-3.68 6.67 -2.36 6.34 -1 6 C-0.67 4.02 -0.34 2.04 0 0 Z " fill="#D63377" transform="translate(234,153)"/>
<path d="M0 0 C0.33 0.66 0.66 1.32 1 2 C3.52733235 2.65555119 3.52733235 2.65555119 6 3 C6 3.99 6 4.98 6 6 C5.01 6.33 4.02 6.66 3 7 C2.34 7.99 1.68 8.98 1 10 C0.67 6.7 0.34 3.4 0 0 Z " fill="#D9434D" transform="translate(8,133)"/>
<path d="M0 0 C4.37859255 0.50522222 6.81651224 3.17827222 10 6 C9.67 6.99 9.34 7.98 9 9 C7.49704815 7.69088122 5.99770689 6.37761608 4.5 5.0625 C3.6646875 4.33160156 2.829375 3.60070312 1.96875 2.84765625 C1.3190625 2.23792969 0.669375 1.62820312 0 1 C0 0.67 0 0.34 0 0 Z " fill="#DE9A4B" transform="translate(41,202)"/>
<path d="M0 0 C2 2 2 2 2 5 C1.34 5 0.68 5 0 5 C-0.33 5.66 -0.66 6.32 -1 7 C-1.99 7.33 -2.98 7.66 -4 8 C-2.87548273 5.0280615 -1.77706209 2.66559313 0 0 Z " fill="#ED3760" transform="translate(105,104)"/>
<path d="M0 0 C3.79379058 1.49041773 5.68343758 3.69062512 8 7 C8 7.66 8 8.32 8 9 C7.01 9 6.02 9 5 9 C3 6 3 6 3 3 C2.01 3 1.02 3 0 3 C0 2.01 0 1.02 0 0 Z " fill="#D43993" transform="translate(172,66)"/>
<path d="M0 0 C0.33 0.66 0.66 1.32 1 2 C-1.38957269 5.24299151 -3.2047869 7.50902342 -7 9 C-5.44499019 5.18315774 -2.96404505 2.80804268 0 0 Z " fill="#DD4F4A" transform="translate(208,198)"/>
<path d="M0 0 C5.75 1.875 5.75 1.875 8 3 C8 3.66 8 4.32 8 5 C5.07120629 4.37240135 2.63904371 3.41377341 0 2 C0 1.34 0 0.68 0 0 Z " fill="#E8B258" transform="translate(70,222)"/>
<path d="M0 0 C6.75 1.875 6.75 1.875 9 3 C8.67 3.99 8.34 4.98 8 6 C6.66402348 5.19185349 5.331275 4.37836819 4 3.5625 C3.2575 3.11003906 2.515 2.65757812 1.75 2.19140625 C1.1725 1.79824219 0.595 1.40507812 0 1 C0 0.67 0 0.34 0 0 Z " fill="#DD9D52" transform="translate(53,213)"/>
<path d="M0 0 C2.88437779 1.29299694 4.87219421 2.65941363 7 5 C6.67 5.99 6.34 6.98 6 8 C4.9970458 6.85675161 3.99770973 5.71032809 3 4.5625 C2.443125 3.92441406 1.88625 3.28632813 1.3125 2.62890625 C0 1 0 1 0 0 Z " fill="#D9924C" transform="translate(34,194)"/>
<path d="" fill="#AC607B" transform="translate(0,0)"/>
<path d="" fill="#AC607B" transform="translate(0,0)"/>
<path d="" fill="#AC607B" transform="translate(0,0)"/>
</svg>
