<?xml version="1.0" encoding="UTF-8"?>
<svg version="1.1" xmlns="http://www.w3.org/2000/svg" width="432" height="430">
<path d="M0 0 C142.56 0 285.12 0 432 0 C432 141.9 432 283.8 432 430 C289.44 430 146.88 430 0 430 C0 288.1 0 146.2 0 0 Z " fill="#010101" transform="translate(0,0)"/>
<path d="M0 0 C142.56 0 285.12 0 432 0 C432 141.9 432 283.8 432 430 C289.44 430 146.88 430 0 430 C0 288.1 0 146.2 0 0 Z M132 19 C131.32195312 19.28101562 130.64390625 19.56203125 129.9453125 19.8515625 C117.29680501 25.22582105 105.15611477 31.99301636 94 40 C93.38801758 40.43683105 92.77603516 40.87366211 92.14550781 41.32373047 C83.04447715 47.85682616 74.52573077 54.7694458 66.48193359 62.56933594 C65.07265809 63.92985561 63.64038732 65.26643643 62.20703125 66.6015625 C54.13457007 74.31291791 47.52948066 82.97370637 41 92 C40.55269531 92.61327148 40.10539062 93.22654297 39.64453125 93.85839844 C28.80382141 108.87695107 19.82120903 125.651071 14.18359375 143.30859375 C13.38508599 145.79898925 12.50059308 148.26320573 11.5390625 150.6953125 C-5.0764794 194.49606595 -1.8955013 251.6015432 17 294 C17.41862305 294.96695801 17.83724609 295.93391602 18.26855469 296.93017578 C26.04514001 314.80440389 34.89934675 330.69245985 47 346 C47.72960938 346.92296875 48.45921875 347.8459375 49.2109375 348.796875 C56.79911389 358.22218884 64.63434633 367.30244049 74 375 C74.80824219 375.68449219 75.61648437 376.36898438 76.44921875 377.07421875 C98.35579589 395.39899058 122.69753507 409.41741959 150 418 C150.69351563 418.22139648 151.38703125 418.44279297 152.1015625 418.67089844 C157.35444834 420.32090547 162.64569681 421.71980946 168 423 C168.8053418 423.19899902 169.61068359 423.39799805 170.44042969 423.60302734 C184.83315607 427.00742853 199.09500926 427.39499176 213.8125 427.4375 C214.71894257 427.4436734 215.62538513 427.4498468 216.55929565 427.45620728 C233.36359937 427.52975948 249.33435505 425.32601882 265.6875 421.5 C266.58404297 421.30019531 267.48058594 421.10039062 268.40429688 420.89453125 C273.81105857 419.65259769 278.84805909 418.05744895 284 416 C284.77085937 415.70738281 285.54171875 415.41476562 286.3359375 415.11328125 C302.33736733 408.82919482 317.61422396 401.86673675 331.55078125 391.67578125 C334 390 334 390 337.328125 388.1875 C341.48012884 385.85189305 344.89794219 382.85197511 348.4375 379.6875 C349.09274658 379.11008057 349.74799316 378.53266113 350.4230957 377.93774414 C351.71058796 376.80266132 352.99607308 375.66529677 354.27929688 374.52539062 C356.40025036 372.64518101 358.54349348 370.79134022 360.6875 368.9375 C364.48760161 365.61673592 364.48760161 365.61673592 368 362 C368 361.34 368 360.68 368 360 C368.66 360 369.32 360 370 360 C372.76239283 357.02923703 375.21712333 353.80439908 377.72363281 350.61621094 C378.94534449 349.06920801 380.18708775 347.53808808 381.4296875 346.0078125 C388.46864237 337.16976374 394.35223066 327.77603478 400 318 C400.6175415 316.93990723 400.6175415 316.93990723 401.24755859 315.85839844 C407.2553941 305.43440103 411.56142162 294.79863307 415.23876953 283.35449219 C415.93583025 281.19847756 416.66291147 279.05582994 417.40234375 276.9140625 C422.78671046 260.9873141 426.14406221 243.86231732 426.16796875 227.03125 C426.17129715 226.19267456 426.17462555 225.35409912 426.17805481 224.4901123 C426.18309041 222.72192935 426.18546418 220.95373699 426.18530273 219.18554688 C426.18747137 216.53498839 426.20561391 213.88485912 426.22460938 211.234375 C426.27005389 197.690008 425.33893417 184.48640452 422.25 171.25 C422.08298584 170.51958496 421.91597168 169.78916992 421.74389648 169.03662109 C418.59377174 155.67647753 414.7038232 142.50249791 409 130 C408.57332031 129.00484375 408.14664062 128.0096875 407.70703125 126.984375 C398.74391468 106.59767849 386.03200575 87.69651241 370.55859375 71.69921875 C368 69 368 69 365.890625 66.3515625 C364.15097719 64.18778568 362.42686884 62.47385355 360.3125 60.6875 C358.16800482 58.86172795 356.04052372 57.03747859 353.97265625 55.125 C343.68642942 45.62412755 331.97695769 38.17072048 320 31 C319.11441406 30.443125 318.22882813 29.88625 317.31640625 29.3125 C312.55757012 26.34286747 307.89522634 24.00916795 302.640625 22.05078125 C299.80638252 20.92295399 297.15818999 19.56603143 294.4375 18.1875 C246.045867 -4.30037651 180.39649177 -3.11165325 132 19 Z " fill="#F6F6F6" transform="translate(0,0)"/>
<path d="M0 0 C9.57048262 -0.3724564 19.13843658 -0.65583409 28.71461105 -0.82899475 C33.1627853 -0.91215685 37.60596906 -1.02467259 42.05126953 -1.20703125 C73.19630065 -2.45123062 73.19630065 -2.45123062 79.7980957 3.27246094 C82.58797224 6.53513095 84.44575404 10.0617107 86.10662842 14.00317383 C87.37728383 16.84328876 89.18855508 19.1050822 91.13671875 21.515625 C91.7289624 22.30533691 92.32120605 23.09504883 92.93139648 23.90869141 C94.1559627 25.54133286 95.38075219 27.17380685 96.60571289 28.80615234 C99.29921144 32.39587698 101.99212555 35.98593301 104.671875 39.5859375 C108.12815003 44.22211332 111.62177704 48.80919543 115.25 53.3125 C124 64.18 124 64.18 124 67 C124.99 67 125.98 67 127 67 C127.24621094 66.43410156 127.49242187 65.86820312 127.74609375 65.28515625 C129.21536224 62.60751742 130.97752435 60.66956388 133.0625 58.4375 C136.29198338 54.91957792 139.38460518 51.34817625 142.375 47.625 C146.53963369 42.47745451 150.95305141 37.61647612 155.44921875 32.76171875 C161.30332064 26.42351042 166.8713409 19.83351876 172.47436523 13.27392578 C173.46286765 12.1176765 174.46598693 10.97378878 175.48217773 9.84179688 C177.06959441 8.01564232 177.06959441 8.01564232 178.28540039 5.79882812 C180.00976677 3.15325702 181.30761333 1.6888464 184 0 C190.17486549 -0.99448561 196.20784449 -0.75503273 202.4375 -0.5 C204.1398905 -0.45983324 205.84237183 -0.42333804 207.54492188 -0.390625 C211.69887035 -0.30284571 215.84843231 -0.16503442 220 0 C218.2250048 3.80125005 215.80964239 6.54953756 212.9375 9.5625 C209.34887672 13.39465791 205.90355389 17.26920432 202.625 21.375 C198.57462766 26.41255986 194.22907464 31.10143711 189.80175781 35.80371094 C185.74157304 40.13948461 181.96472116 44.64077083 178.25 49.27734375 C174.83731503 53.40692956 171.18979586 57.30883485 167.55078125 61.23828125 C163.24215366 65.90321189 159.10520468 70.70733739 154.9765625 75.53125 C154.43572021 76.16305176 153.89487793 76.79485352 153.33764648 77.44580078 C152.25278652 78.71411909 151.16893456 79.98330042 150.08618164 81.25341797 C148.11098642 83.56573273 146.1513307 85.8486693 144 88 C144.24576481 92.41631911 146.08459616 94.6834849 148.9375 97.9375 C152.49041655 102.12566903 155.78443696 106.37941455 158.9375 110.875 C162.55151912 116.00806598 166.27250887 121.02217231 170.12231445 125.98193359 C173.33377335 130.12252102 176.48920718 134.30186457 179.625 138.5 C184.38013563 144.86145313 189.18082014 151.18694281 194 157.5 C199.31356765 164.46069818 204.59794252 171.44142962 209.8371582 178.45825195 C212.91112703 182.56899382 216.0358013 186.63619021 219.1875 190.6875 C223.42174427 196.15302693 227.34167906 201.77436374 231.1875 207.515625 C232.76121482 210.07185331 232.76121482 210.07185331 235 211 C235 211.66 235 212.32 235 213 C210.58 213 186.16 213 161 213 C159.02 209.535 159.02 209.535 157 206 C156.17293837 204.83823871 155.31541699 203.69635348 154.40625 202.59765625 C153.93944824 202.0257959 153.47264648 201.45393555 152.99169922 200.86474609 C152.25330811 199.97263428 152.25330811 199.97263428 151.5 199.0625 C147.17473761 193.74906404 142.96587231 188.3710528 138.875 182.875 C134.51679069 177.02381095 130.11168715 171.21614754 125.65234375 165.44140625 C121.90276677 160.58416403 118.18507547 155.70242876 114.46508789 150.82250977 C113.4391693 149.47873213 112.41090789 148.13673865 111.37988281 146.796875 C110.1576517 145.20529308 108.94889861 143.60338086 107.7421875 142 C107.16726562 141.34 106.59234375 140.68 106 140 C103.9379297 139.76864807 103.9379297 139.76864807 102.6953125 141.2578125 C102.17710937 141.87398437 101.65890625 142.49015625 101.125 143.125 C100.50496094 143.85332031 99.88492188 144.58164063 99.24609375 145.33203125 C98.13427734 146.65267578 98.13427734 146.65267578 97 148 C95.06670004 150.27442909 93.12770135 152.54395689 91.1875 154.8125 C90.41490845 155.71693848 90.41490845 155.71693848 89.62670898 156.63964844 C85.57786668 161.36403506 81.4250122 165.97777986 77.22265625 170.56640625 C73.13950243 175.037065 69.18157621 179.61141889 65.25390625 184.21875 C59.71745678 190.70957449 54.13646934 197.13039149 48.3515625 203.40234375 C46.04011528 205.74528103 46.04011528 205.74528103 45.00634766 207.85620117 C43.5252115 210.28598877 42.44472383 211.49553455 40 213 C34.02314438 213.88717131 28.14739197 213.65845603 22.125 213.4375 C20.46621125 213.40236166 18.80735134 213.37042704 17.1484375 213.34179688 C13.09719472 213.26491707 9.04937988 213.14428096 5 213 C9.4279745 203.776776 17.53710962 196.2232147 24.44921875 188.76171875 C28.65098409 184.21248736 32.69442513 179.53632916 36.70703125 174.8203125 C41.61125839 169.06321111 46.5393296 163.35360496 51.6875 157.8125 C55.89029309 153.28801899 59.81689214 148.59186263 63.6875 143.78125 C66.63404178 140.23743624 69.74974139 136.87437956 72.89428711 133.50683594 C76.90966501 129.17745761 80.58692309 124.63916538 84.22265625 119.984375 C84.80917969 119.32953125 85.39570313 118.6746875 86 118 C86.66 118 87.32 118 88 118 C85.05811427 112.5568008 81.67815944 107.74743084 77.875 102.875 C77.30096436 102.13217773 76.72692871 101.38935547 76.13549805 100.62402344 C74.97245019 99.11941614 73.8076779 97.61614011 72.64111328 96.11425781 C70.76156155 93.69281807 68.89307091 91.26307746 67.02661133 88.83154297 C65.02078532 86.21868537 63.0099721 83.60966869 61 81 C40.86807363 54.86149888 40.86807363 54.86149888 32.0625 43.0625 C27.77607042 37.32095909 23.41123916 31.64614458 19 26 C14.32667411 20.01507967 9.69248506 14.00369109 5.125 7.9375 C4.60679688 7.25236328 4.08859375 6.56722656 3.5546875 5.86132812 C0 1.12011719 0 1.12011719 0 0 Z " fill="#F9F9F9" transform="translate(97,109)"/>
<path d="M0 0 C18.38134374 -2.19457135 18.38134374 -2.19457135 23.81396484 1.10009766 C26.90354169 4.19606453 28.80700765 8.0417404 30.81005859 11.89111328 C32.94237471 15.67013392 35.68812188 18.97971343 38.375 22.375 C39.49313421 23.82378806 40.60902112 25.2743133 41.72265625 26.7265625 C42.27195801 27.44102539 42.82125977 28.15548828 43.38720703 28.89160156 C45.88687355 32.15940659 48.35059761 35.45370284 50.8125 38.75 C54.78748527 44.07012986 58.79678297 49.36248381 62.83056641 54.63818359 C68.915176 62.59744004 74.96791101 70.57899853 80.9375 78.625 C81.833479 79.82443237 81.833479 79.82443237 82.74755859 81.0480957 C83.56667725 82.15737427 83.56667725 82.15737427 84.40234375 83.2890625 C84.88179443 83.93568848 85.36124512 84.58231445 85.85522461 85.24853516 C87 87 87 87 88 90 C88.66 90 89.32 90 90 90 C91.60524568 92.05131584 93.09312502 94.10410029 94.5625 96.25 C95.46889874 97.54638008 96.3764716 98.84193993 97.28515625 100.13671875 C97.74164551 100.78946777 98.19813477 101.4422168 98.66845703 102.11474609 C105.14743593 111.28795385 112.13726098 120.11167159 119 129 C124.61604381 136.27366166 130.19870988 143.56683899 135.6875 150.9375 C137.35438746 153.14499961 139.03702909 155.32896444 140.75 157.5 C141.20826172 158.08394531 141.66652344 158.66789063 142.13867188 159.26953125 C143.02507566 160.39629416 143.91675601 161.51893245 144.81445312 162.63671875 C146.9922213 165.4122371 148.289419 167.5612298 149 171 C142.66158028 172.02405303 136.23915183 172.93452397 130 171 C124.85773844 167.22398009 121.66118492 161.5133229 118.36962891 156.15429688 C116.48507642 153.19007385 114.34004695 150.61163473 112.0625 147.9375 C106.70563641 141.53695325 101.82999543 134.78049574 96.90112305 128.04907227 C92.00327905 121.36444092 87.08370615 114.73024343 81.84765625 108.3046875 C78.93133526 104.66699324 76.16753515 100.91750802 73.38671875 97.17578125 C71.67975495 94.90448572 69.95829708 92.65445983 68.20703125 90.41796875 C67.74538574 89.82669189 67.28374023 89.23541504 66.80810547 88.6262207 C65.90874756 87.47711236 65.00554466 86.33100083 64.09814453 85.18823242 C61 81.22154717 61 81.22154717 61 79 C60.34 79 59.68 79 59 79 C57.33483041 76.90928707 55.78471685 74.80924019 54.25 72.625 C49.97841624 66.6680002 45.58623766 60.83031234 41.0625 55.0625 C33.7790318 45.75590147 26.69358485 36.30991871 19.640625 26.828125 C16.47513569 22.58502231 13.2989984 18.3591596 10 14.21875 C9.23731812 13.2599292 9.23731812 13.2599292 8.45922852 12.28173828 C7.46161114 11.03171555 6.45963624 9.78515534 5.45288086 8.54248047 C2 4.21942168 2 4.21942168 2 2 C1.34 2 0.68 2 0 2 C0 1.34 0 0.68 0 0 Z " fill="#090909" transform="translate(139,129)"/>
<path d="M0 0 C18.15 0 36.3 0 55 0 C55 3.96 55 7.92 55 12 C54 13 54 13 50.18359375 13.09765625 C48.60152953 13.09191138 47.01948969 13.07889593 45.4375 13.0625 C42.653125 13.041875 39.86875 13.02125 37 13 C36.67 18.94 36.34 24.88 36 31 C30.06 31 24.12 31 18 31 C18 36.94 18 42.88 18 49 C19.7325 48.79375 21.465 48.5875 23.25 48.375 C27.2279708 47.90143205 29.55824478 47.85300031 33 50 C30.93035824 52.03674283 28.84640298 54.05363419 26.75 56.0625 C26.16347656 56.64322266 25.57695313 57.22394531 24.97265625 57.82226562 C24.39902344 58.36689453 23.82539062 58.91152344 23.234375 59.47265625 C22.44885254 60.23461304 22.44885254 60.23461304 21.64746094 61.01196289 C20 62 20 62 17.79785156 61.65795898 C16.90791504 61.33226929 16.90791504 61.33226929 16 61 C16.495 60.01 16.495 60.01 17 59 C17.06996014 57.29297265 17.08440154 55.58331997 17.0625 53.875 C17.041875 52.26625 17.02125 50.6575 17 49 C11.39 49 5.78 49 0 49 C0 43.06 0 37.12 0 31 C-5.94 31.33 -11.88 31.66 -18 32 C-18.33 37.61 -18.66 43.22 -19 49 C-24.94 49.33 -30.88 49.66 -37 50 C-37.020625 47.050625 -37.04125 44.10125 -37.0625 41.0625 C-37.071604 40.13187744 -37.08070801 39.20125488 -37.09008789 38.24243164 C-37.09258545 37.51403076 -37.09508301 36.78562988 -37.09765625 36.03515625 C-37.10289307 35.2862915 -37.10812988 34.53742676 -37.11352539 33.76586914 C-37 32 -37 32 -36 31 C-33.30764224 30.76321284 -30.63501844 30.57801975 -27.9375 30.4375 C-27.17888672 30.39431641 -26.42027344 30.35113281 -25.63867188 30.30664062 C-23.75934562 30.20026367 -21.87969756 30.09960066 -20 30 C-19.93941406 28.85660156 -19.87882812 27.71320312 -19.81640625 26.53515625 C-19.73201572 25.04425695 -19.64736698 23.55337225 -19.5625 22.0625 C-19.52318359 21.30775391 -19.48386719 20.55300781 -19.44335938 19.77539062 C-19.11328125 14.11328125 -19.11328125 14.11328125 -18 13 C-16.65984779 12.84417697 -15.31241097 12.74955858 -13.96484375 12.68359375 C-13.15595703 12.64169922 -12.34707031 12.59980469 -11.51367188 12.55664062 C-10.2384668 12.49766602 -10.2384668 12.49766602 -8.9375 12.4375 C-7.65649414 12.37272461 -7.65649414 12.37272461 -6.34960938 12.30664062 C-4.23327963 12.20023298 -2.11666187 12.09958269 0 12 C0 8.04 0 4.08 0 0 Z " fill="#FEFEFE" transform="translate(48,0)"/>
<path d="M0 0 C0 42.9 0 85.8 0 130 C-5.28 130 -10.56 130 -16 130 C-15.979375 132.248125 -15.95875 134.49625 -15.9375 136.8125 C-15.875 143.625 -15.875 143.625 -17 147 C-20.3 147.33 -23.6 147.66 -27 148 C-25.76162914 144.14979241 -24.37388795 140.45246453 -22.75 136.75 C-17.85753506 125.03686334 -14.08882387 113.12068807 -11.25 100.75 C-11.05148437 99.88842285 -10.85296875 99.0268457 -10.6484375 98.13916016 C-7.74955188 84.96263298 -6.67355046 72.18522753 -6.73925781 58.73291016 C-6.74995674 56.13550323 -6.73931161 53.53879205 -6.7265625 50.94140625 C-6.71351131 36.66272449 -8.15535069 22.99034786 -11.125 9 C-11.30675781 8.11828125 -11.48851562 7.2365625 -11.67578125 6.328125 C-12.11165076 4.21759897 -12.55494539 2.10860825 -13 0 C-11 -1 -11 -1 0 0 Z " fill="#FAFAFA" transform="translate(432,160)"/>
<path d="M0 0 C0 0.66 0 1.32 0 2 C-0.99 2 -1.98 2 -3 2 C-3 7.94 -3 13.88 -3 20 C-0.256875 20 2.48625 20 5.3125 20 C9.20833333 20 13.10416667 20 17 20 C16.67 20.66 16.34 21.32 16 22 C15.67 25.3 15.34 28.6 15 32 C-3.15 32 -21.3 32 -40 32 C-40 22 -40 22 -38 20 C-35.24678525 19.85448125 -32.62236578 19.81377887 -29.875 19.875 C-27.27625 19.91625 -24.6775 19.9575 -22 20 C-22 14.06 -22 8.12 -22 2 C-13.125 1.5625 -13.125 1.5625 -10.33251953 1.43188477 C-9.24366455 1.3747229 -9.24366455 1.3747229 -8.1328125 1.31640625 C-7.38918457 1.27974854 -6.64555664 1.24309082 -5.87939453 1.20532227 C-3.65464062 0.96226978 -2.26227007 0 0 0 Z " fill="#FDFDFD" transform="translate(106,398)"/>
<path d="M0 0 C5.94 0 11.88 0 18 0 C18 3.96 18 7.92 18 12 C23.94 12.33 29.88 12.66 36 13 C36.185625 15.784375 36.37125 18.56875 36.5625 21.4375 C36.62381104 22.31591553 36.68512207 23.19433105 36.74829102 24.09936523 C36.87142264 26.06417779 36.93756604 28.03232325 37 30 C36 31 36 31 34.23413086 31.11352539 C33.48526611 31.10828857 32.73640137 31.10305176 31.96484375 31.09765625 C30.87224243 31.09390991 30.87224243 31.09390991 29.75756836 31.09008789 C28.8269458 31.08098389 27.89632324 31.07187988 26.9375 31.0625 C22.5134375 31.0315625 22.5134375 31.0315625 18 31 C18 25.06 18 19.12 18 13 C12.06 13 6.12 13 0 13 C0 18.94 0 24.88 0 31 C0.66 31.33 1.32 31.66 2 32 C-5.33333333 32 -12.66666667 32 -20 32 C-19.84660156 30.97777344 -19.69320313 29.95554687 -19.53515625 28.90234375 C-19.06210052 25.45283515 -18.71041854 22.03246432 -18.4375 18.5625 C-18.293125 16.726875 -18.14875 14.89125 -18 13 C-9.585 12.505 -9.585 12.505 -1 12 C-0.67 8.04 -0.34 4.08 0 0 Z " fill="#FDFDFD" transform="translate(342,0)"/>
<path d="M0 0 C5.94 0 11.88 0 18 0 C18.09765625 9.27734375 18.09765625 9.27734375 18 12 C17 13 17 13 13.18359375 13.09765625 C11.60152953 13.09191138 10.01948969 13.07889593 8.4375 13.0625 C4.2609375 13.0315625 4.2609375 13.0315625 0 13 C0 18.94 0 24.88 0 31 C-5.94 31.33 -11.88 31.66 -18 32 C-18.33 37.61 -18.66 43.22 -19 49 C-24.94 49.33 -30.88 49.66 -37 50 C-37.020625 47.050625 -37.04125 44.10125 -37.0625 41.0625 C-37.071604 40.13187744 -37.08070801 39.20125488 -37.09008789 38.24243164 C-37.09258545 37.51403076 -37.09508301 36.78562988 -37.09765625 36.03515625 C-37.10289307 35.2862915 -37.10812988 34.53742676 -37.11352539 33.76586914 C-37 32 -37 32 -36 31 C-33.30764224 30.76321284 -30.63501844 30.57801975 -27.9375 30.4375 C-27.17888672 30.39431641 -26.42027344 30.35113281 -25.63867188 30.30664062 C-23.75934562 30.20026367 -21.87969756 30.09960066 -20 30 C-19.93941406 28.85660156 -19.87882812 27.71320312 -19.81640625 26.53515625 C-19.73201572 25.04425695 -19.64736698 23.55337225 -19.5625 22.0625 C-19.52318359 21.30775391 -19.48386719 20.55300781 -19.44335938 19.77539062 C-19.11328125 14.11328125 -19.11328125 14.11328125 -18 13 C-16.65984779 12.84417697 -15.31241097 12.74955858 -13.96484375 12.68359375 C-13.15595703 12.64169922 -12.34707031 12.59980469 -11.51367188 12.55664062 C-10.2384668 12.49766602 -10.2384668 12.49766602 -8.9375 12.4375 C-7.65649414 12.37272461 -7.65649414 12.37272461 -6.34960938 12.30664062 C-4.23327963 12.20023298 -2.11666187 12.09958269 0 12 C0 8.04 0 4.08 0 0 Z " fill="#FEFEFE" transform="translate(48,0)"/>
<path d="M0 0 C5.28 0 10.56 0 16 0 C16 4.29 16 8.58 16 13 C10.72 13 5.44 13 0 13 C0 18.94 0 24.88 0 31 C-5.94 31.33 -11.88 31.66 -18 32 C-18.33 37.61 -18.66 43.22 -19 49 C-24.94 49.33 -30.88 49.66 -37 50 C-37.020625 47.050625 -37.04125 44.10125 -37.0625 41.0625 C-37.071604 40.13187744 -37.08070801 39.20125488 -37.09008789 38.24243164 C-37.09258545 37.51403076 -37.09508301 36.78562988 -37.09765625 36.03515625 C-37.10289307 35.2862915 -37.10812988 34.53742676 -37.11352539 33.76586914 C-37 32 -37 32 -36 31 C-33.30764224 30.76321284 -30.63501844 30.57801975 -27.9375 30.4375 C-27.17888672 30.39431641 -26.42027344 30.35113281 -25.63867188 30.30664062 C-23.75934562 30.20026367 -21.87969756 30.09960066 -20 30 C-19.93941406 28.85660156 -19.87882812 27.71320312 -19.81640625 26.53515625 C-19.73201572 25.04425695 -19.64736698 23.55337225 -19.5625 22.0625 C-19.52318359 21.30775391 -19.48386719 20.55300781 -19.44335938 19.77539062 C-19.11328125 14.11328125 -19.11328125 14.11328125 -18 13 C-16.65984779 12.84417697 -15.31241097 12.74955858 -13.96484375 12.68359375 C-13.15595703 12.64169922 -12.34707031 12.59980469 -11.51367188 12.55664062 C-10.2384668 12.49766602 -10.2384668 12.49766602 -8.9375 12.4375 C-7.65649414 12.37272461 -7.65649414 12.37272461 -6.34960938 12.30664062 C-4.23327963 12.20023298 -2.11666187 12.09958269 0 12 C0 8.04 0 4.08 0 0 Z " fill="#FEFEFE" transform="translate(416,0)"/>
<path d="M0 0 C0.99 0 1.98 0 3 0 C3 0.66 3 1.32 3 2 C3.66 1.67 4.32 1.34 5 1 C7.37402501 0.92883618 9.75000677 0.91590915 12.125 0.9375 C13.40632813 0.94652344 14.68765625 0.95554687 16.0078125 0.96484375 C17.48894531 0.98224609 17.48894531 0.98224609 19 1 C20.59412284 4.18824568 20.10174735 7.62896662 20.0625 11.125 C20.05798828 11.87910156 20.05347656 12.63320313 20.04882812 13.41015625 C20.03703499 15.27347127 20.01909942 17.13674555 20 19 C15.81329571 19.79836553 11.88454802 20.10982831 7.625 20.0625 C6.03558594 20.04896484 6.03558594 20.04896484 4.4140625 20.03515625 C3.21910156 20.01775391 3.21910156 20.01775391 2 20 C2.01160156 21.21558594 2.02320313 22.43117188 2.03515625 23.68359375 C2.04453278 25.26822764 2.05363313 26.85286318 2.0625 28.4375 C2.07087891 29.23994141 2.07925781 30.04238281 2.08789062 30.86914062 C2.0965143 32.91295221 2.0522815 34.95683902 2 37 C1 38 1 38 -2.81640625 38.09765625 C-4.39846682 38.09098089 -5.98051159 38.07901875 -7.5625 38.0625 C-8.36880859 38.05798828 -9.17511719 38.05347656 -10.00585938 38.04882812 C-12.00393756 38.03700518 -14.00197783 38.01906914 -16 38 C-16 34.7 -16 31.4 -16 28 C-16.66 27.67 -17.32 27.34 -18 27 C-16.73161506 24.32671905 -15.35160595 21.9728381 -13.57421875 19.609375 C-13.10951172 18.98554932 -12.64480469 18.36172363 -12.16601562 17.71899414 C-11.67810547 17.06922607 -11.19019531 16.41945801 -10.6875 15.75 C-7.60124501 11.61447836 -4.60419638 7.52569194 -2 3.0625 C-1.01 1.5465625 -1.01 1.5465625 0 0 Z M-15 26 C-14 28 -14 28 -14 28 Z " fill="#E9E9E9" transform="translate(395,325)"/>
<path d="M0 0 C5.61 0 11.22 0 17 0 C18.49297212 2.98594424 18.11755228 5.70853624 18 9 C17.67 9.66 17.34 10.32 17 11 C17.66 11.66 18.32 12.32 19 13 C18.26136719 13.70382813 17.52273437 14.40765625 16.76171875 15.1328125 C9.08284784 22.56710093 2.41708185 30.46073361 -4 39 C-4.66 38.34 -5.32 37.68 -6 37 C-8.8595077 36.57354771 -8.8595077 36.57354771 -12.0625 36.4375 C-17.90277778 36.09722222 -17.90277778 36.09722222 -19 35 C-19.07330331 32.13530675 -19.09217831 29.30106326 -19.0625 26.4375 C-19.0315625 22.2609375 -19.0315625 22.2609375 -19 18 C-12.73 18 -6.46 18 0 18 C0 12.06 0 6.12 0 0 Z " fill="#EAEAEA" transform="translate(48,50)"/>
<path d="M0 0 C18.48 0 36.96 0 56 0 C56 3.96 56 7.92 56 12 C51.8568469 13.38105103 47.69243273 13.35052705 43.36132812 13.51757812 C39.22941871 13.61848535 39.22941871 13.61848535 36 16 C36 15.01 36 14.02 36 13 C28.08 13.495 28.08 13.495 20 14 C19.67 17.3 19.34 20.6 19 24 C18.67 24 18.34 24 18 24 C18 20.37 18 16.74 18 13 C17.03578125 13.01160156 16.0715625 13.02320313 15.078125 13.03515625 C13.18320312 13.04869141 13.18320312 13.04869141 11.25 13.0625 C9.99703125 13.07410156 8.7440625 13.08570313 7.453125 13.09765625 C4 13 4 13 0 12 C0 8.04 0 4.08 0 0 Z " fill="#FDFDFD" transform="translate(360,0)"/>
<path d="M0 0 C0 6.27 0 12.54 0 19 C5.94 19 11.88 19 18 19 C18.020625 21.59875 18.04125 24.1975 18.0625 26.875 C18.071604 27.69210449 18.08070801 28.50920898 18.09008789 29.35107422 C18.11111111 34.77777778 18.11111111 34.77777778 17 37 C11.39 37 5.78 37 0 37 C-0.33 31.06 -0.66 25.12 -1 19 C-6.94 19 -12.88 19 -19 19 C-19.020625 16.215625 -19.04125 13.43125 -19.0625 10.5625 C-19.071604 9.68408447 -19.08070801 8.80566895 -19.09008789 7.90063477 C-19.09723091 5.93354026 -19.05031893 3.96646379 -19 2 C-16.8881822 -0.1118178 -12.43016828 0.58187824 -9.5 0.4375 C-8.70207031 0.39431641 -7.90414062 0.35113281 -7.08203125 0.30664062 C-1.34833829 0 -1.34833829 0 0 0 Z " fill="#FEFEFE" transform="translate(48,381)"/>
<path d="M0 0 C-0.33 5.94 -0.66 11.88 -1 18 C4.28 18 9.56 18 15 18 C15 23.94 15 29.88 15 36 C9.72 36 4.44 36 -1 36 C-1.33 30.06 -1.66 24.12 -2 18 C-7.94 18 -13.88 18 -20 18 C-20.020625 15.215625 -20.04125 12.43125 -20.0625 9.5625 C-20.071604 8.68408447 -20.08070801 7.80566895 -20.09008789 6.90063477 C-20.09723091 4.93354026 -20.05031893 2.96646379 -20 1 C-17.88695955 -1.11304045 -13.48840485 -0.46337406 -10.5625 -0.625 C-9.77294922 -0.6765625 -8.98339844 -0.728125 -8.16992188 -0.78125 C-2.24898539 -1.12449269 -2.24898539 -1.12449269 0 0 Z " fill="#FEFEFE" transform="translate(417,382)"/>
<path d="M0 0 C5.94 0 11.88 0 18 0 C18.09765625 9.27734375 18.09765625 9.27734375 18 12 C15.94077598 14.05922402 11.78291876 13.41427579 8.9375 13.5625 C7.79958008 13.62727539 7.79958008 13.62727539 6.63867188 13.69335938 C4.75934562 13.79973633 2.87969756 13.90039934 1 14 C0.90912109 15.71509766 0.90912109 15.71509766 0.81640625 17.46484375 C0.73201572 18.95574305 0.64736698 20.44662775 0.5625 21.9375 C0.52318359 22.69224609 0.48386719 23.44699219 0.44335938 24.22460938 C0.11328125 29.88671875 0.11328125 29.88671875 -1 31 C-3.86267567 31.07325168 -6.700719 31.09238205 -9.5625 31.0625 C-10.36880859 31.05798828 -11.17511719 31.05347656 -12.00585938 31.04882812 C-14.00393756 31.03700518 -16.00197783 31.01906914 -18 31 C-19.0676162 24.66547722 -18.70606401 19.35457607 -18 13 C-9.585 12.505 -9.585 12.505 -1 12 C-0.67 8.04 -0.34 4.08 0 0 Z " fill="#EAEAEA" transform="translate(66,0)"/>
<path d="M0 0 C5.94 0 11.88 0 18 0 C18.09765625 9.27734375 18.09765625 9.27734375 18 12 C15.75375416 14.24624584 9.90757472 13.45789602 6.7265625 13.60546875 C3.05812952 13.46158649 3.05812952 13.46158649 0 15 C-0.21063107 17.50416935 -0.37572077 19.99140081 -0.5 22.5 C-0.86486486 29.86486486 -0.86486486 29.86486486 -2 31 C-4.86267567 31.07325168 -7.700719 31.09238205 -10.5625 31.0625 C-11.36880859 31.05798828 -12.17511719 31.05347656 -13.00585938 31.04882812 C-15.00393756 31.03700518 -17.00197783 31.01906914 -19 31 C-19.02690844 28.37493198 -19.04679404 25.75013827 -19.0625 23.125 C-19.07087891 22.37863281 -19.07925781 21.63226562 -19.08789062 20.86328125 C-19.11328125 15.2265625 -19.11328125 15.2265625 -18 13 C-9.585 12.505 -9.585 12.505 -1 12 C-0.67 8.04 -0.34 4.08 0 0 Z " fill="#EBEBEB" transform="translate(103,0)"/>
<path d="M0 0 C5.94 0 11.88 0 18 0 C18 5.94 18 11.88 18 18 C9.585 18.495 9.585 18.495 1 19 C0.67 22.63 0.34 26.26 0 30 C-5.94 30 -11.88 30 -18 30 C-18 26.7 -18 23.4 -18 20 C-12.09523804 17.04761902 -6.5759309 17.36532949 0 17 C0 11.39 0 5.78 0 0 Z " fill="#FDFDFD" transform="translate(342,400)"/>
<path d="M0 0 C1.72089844 0.00580078 1.72089844 0.00580078 3.4765625 0.01171875 C6.375 0.3125 6.375 0.3125 8.375 2.3125 C9.11394293 7.04005534 7.16408117 10.0782315 4.875 14.125 C4.54113281 14.72248047 4.20726563 15.31996094 3.86328125 15.93554688 C3.04327367 17.39984612 2.21040688 18.85693137 1.375 20.3125 C0.385 19.9825 -0.605 19.6525 -1.625 19.3125 C-3.69118749 19.40518505 -3.69118749 19.40518505 -5.8125 19.75 C-7.070625 19.935625 -8.32875 20.12125 -9.625 20.3125 C-9.68558594 21.28832031 -9.74617187 22.26414062 -9.80859375 23.26953125 C-9.89238281 24.54183594 -9.97617188 25.81414062 -10.0625 27.125 C-10.14371094 28.38957031 -10.22492187 29.65414062 -10.30859375 30.95703125 C-10.625 34.3125 -10.625 34.3125 -11.625 37.3125 C-13.625 38.3125 -13.625 38.3125 -21.625 38.3125 C-21.625 32.0425 -21.625 25.7725 -21.625 19.3125 C-18.325 18.9825 -15.025 18.6525 -11.625 18.3125 C-11.59921875 17.26449219 -11.5734375 16.21648437 -11.546875 15.13671875 C-11.49059142 13.75777098 -11.43324412 12.37886635 -11.375 11 C-11.36082031 10.30970703 -11.34664062 9.61941406 -11.33203125 8.90820312 C-11.18178147 5.79803259 -11.01663563 3.78283753 -8.9921875 1.3515625 C-5.87413121 -0.01708927 -3.39754334 -0.04985109 0 0 Z " fill="#FCFCFC" transform="translate(21.625,103.6875)"/>
<path d="M0 0 C3.38958412 3.34141952 6.64172281 6.76312255 9.8125 10.3125 C10.60269531 11.19550781 11.39289062 12.07851563 12.20703125 12.98828125 C12.79871094 13.65214844 13.39039062 14.31601562 14 15 C9.87477326 17.57826671 7.45556967 17.31805379 2 18 C1.67 23.61 1.34 29.22 1 35 C-1.97922593 35.02683987 -4.95821295 35.04676037 -7.9375 35.0625 C-8.78763672 35.07087891 -9.63777344 35.07925781 -10.51367188 35.08789062 C-11.32255859 35.09111328 -12.13144531 35.09433594 -12.96484375 35.09765625 C-13.7137085 35.10289307 -14.46257324 35.10812988 -15.23413086 35.11352539 C-17 35 -17 35 -18 34 C-18.12653198 31.50761431 -18.18519825 29.05529559 -18.1875 26.5625 C-18.19974609 25.86833984 -18.21199219 25.17417969 -18.22460938 24.45898438 C-18.22989842 22.63779099 -18.12169207 20.8171308 -18 19 C-16 17 -16 17 -12.0859375 16.8046875 C-10.51550649 16.81799624 -8.94513779 16.84186398 -7.375 16.875 C-6.57320312 16.88402344 -5.77140625 16.89304687 -4.9453125 16.90234375 C-2.96341477 16.92593777 -0.98167019 16.96180935 1 17 C0.67 16.34 0.34 15.68 0 15 C-0.0716735 12.44842345 -0.09308442 9.92527029 -0.0625 7.375 C-0.05798828 6.66859375 -0.05347656 5.9621875 -0.04882812 5.234375 C-0.03703875 3.48954725 -0.01910324 1.744763 0 0 Z " fill="#EBEBEB" transform="translate(47,346)"/>
<path d="M0 0 C0.5775 0.2475 1.155 0.495 1.75 0.75 C1.875 7.375 1.875 7.375 0.75 10.75 C7.35 10.75 13.95 10.75 20.75 10.75 C20.42 11.41 20.09 12.07 19.75 12.75 C19.51713087 15.63067737 19.3305406 18.49012519 19.1875 21.375 C19.043125 24.13875 18.89875 26.9025 18.75 29.75 C12.48 30.08 6.21 30.41 -0.25 30.75 C-0.25 24.48 -0.25 18.21 -0.25 11.75 C-2.56 11.75 -4.87 11.75 -7.25 11.75 C-7.25 11.09 -7.25 10.43 -7.25 9.75 C-8.57 10.08 -9.89 10.41 -11.25 10.75 C-10.92 9.76 -10.59 8.77 -10.25 7.75 C-9.59 7.75 -8.93 7.75 -8.25 7.75 C-8.0025 7.1725 -7.755 6.595 -7.5 6 C-3.9244186 -0.43604651 -3.9244186 -0.43604651 0 0 Z " fill="#FBFBFB" transform="translate(378.25,352.25)"/>
<path d="M0 0 C0.66 0.99 1.32 1.98 2 3 C4.66653905 3.36460453 4.66653905 3.36460453 7.625 3.1875 C10.285625 3.0946875 10.285625 3.0946875 13 3 C13 9.27 13 15.54 13 22 C7.72 22 2.44 22 -3 22 C-2.979375 24.248125 -2.95875 26.49625 -2.9375 28.8125 C-2.875 35.625 -2.875 35.625 -4 39 C-8.95 39.495 -8.95 39.495 -14 40 C-12.76162914 36.14979241 -11.37388795 32.45246453 -9.75 28.75 C-5.84140324 19.49034816 -2.35621484 9.78400528 0 0 Z " fill="#EBEBEB" transform="translate(419,268)"/>
<path d="M0 0 C1.65 0 3.3 0 5 0 C6.33934716 2.95564708 7.67044247 5.9149378 9 8.875 C9.3815625 9.71675781 9.763125 10.55851562 10.15625 11.42578125 C10.5171875 12.23144531 10.878125 13.03710938 11.25 13.8671875 C11.58515625 14.61081543 11.9203125 15.35444336 12.265625 16.12060547 C13 18 13 18 13 20 C11.68 19.67 10.36 19.34 9 19 C8.34 19.99 7.68 20.98 7 22 C6.34 21.01 5.68 20.02 5 19 C3.02 19.33 1.04 19.66 -1 20 C-1 25.28 -1 30.56 -1 36 C-4.3 36 -7.6 36 -11 36 C-11 30.06 -11 24.12 -11 18 C-8.03 17.67 -5.06 17.34 -2 17 C-1.03159447 13.1263779 -1.29710067 10.83735799 -1.875 6.97265625 C-2.04614333 4.27180052 -1.25443043 2.36128082 0 0 Z " fill="#F2F2F2" transform="translate(11,290)"/>
<path d="M0 0 C2.11230471 3.4336899 2.11230471 3.4336899 1.61621094 5.93530273 C1.32520508 6.59473877 1.03419922 7.2541748 0.734375 7.93359375 C0.42113281 8.66513672 0.10789062 9.39667969 -0.21484375 10.15039062 C-0.55644531 10.90513672 -0.89804687 11.65988281 -1.25 12.4375 C-1.57613281 13.18837891 -1.90226562 13.93925781 -2.23828125 14.71289062 C-2.87041192 16.16781485 -3.50760325 17.62055319 -4.15039062 19.07080078 C-7.41689753 26.48802423 -9.31565069 34.09789314 -11 42 C-11.33 40.68 -11.66 39.36 -12 38 C-14.64 38 -17.28 38 -20 38 C-20 32.06 -20 26.12 -20 20 C-16.7 19.67 -13.4 19.34 -10 19 C-9.67 13.39 -9.34 7.78 -9 2 C-7.35 1.67 -5.7 1.34 -4 1 C-2.66457061 0.67516582 -1.33038449 0.3449145 0 0 Z " fill="#E9E9E9" transform="translate(20,122)"/>
<path d="M0 0 C5.94 0 11.88 0 18 0 C18 2.97 18 5.94 18 9 C18.495 9.99 18.495 9.99 19 11 C18.43079834 11.16604736 17.86159668 11.33209473 17.27514648 11.50317383 C14.66126125 12.26846591 12.04939132 13.0404315 9.4375 13.8125 C8.54224609 14.07353516 7.64699219 14.33457031 6.72460938 14.60351562 C1.63707397 16.11300415 -3.15863131 17.83159541 -8 20 C-9.59495725 20.60806237 -11.19802975 21.19582107 -12.8125 21.75 C-13.56144531 22.01296875 -14.31039062 22.2759375 -15.08203125 22.546875 C-17 23 -17 23 -19 22 C-19 19.36 -19 16.72 -19 14 C-16.703463 12.8517315 -15.41686833 12.88438825 -12.8671875 12.90234375 C-12.06152344 12.90556641 -11.25585938 12.90878906 -10.42578125 12.91210938 C-9.58402344 12.92048828 -8.74226562 12.92886719 -7.875 12.9375 C-7.02550781 12.94201172 -6.17601562 12.94652344 -5.30078125 12.95117188 C-3.20049091 12.96297126 -1.1002367 12.98090694 1 13 C0.67 12.01 0.34 11.02 0 10 C-0.13143471 6.66155835 -0.04340976 3.34255132 0 0 Z " fill="#E7E7E7" transform="translate(140,0)"/>
<path d="M0 0 C5.61 0 11.22 0 17 0 C18.65285959 3.30571917 18.1005118 6.995378 18.0625 10.625 C18.041875 13.38875 18.02125 16.1525 18 19 C12.06 19 6.12 19 0 19 C0 12.73 0 6.46 0 0 Z " fill="#EBEBEB" transform="translate(48,381)"/>
<path d="M0 0 C1.32 0 2.64 0 4 0 C5.07518216 6.04789966 5.07583363 11.85747593 5 18 C-1.27 18 -7.54 18 -14 18 C-14 12.06 -14 6.12 -14 0 C-4.80392157 -1.23529412 -4.80392157 -1.23529412 0 0 Z " fill="#FDFDFD" transform="translate(43,345)"/>
<path d="M0 0 C4.1765625 -0.0309375 4.1765625 -0.0309375 8.4375 -0.0625 C9.75512329 -0.07615601 9.75512329 -0.07615601 11.09936523 -0.09008789 C13.06645974 -0.09723091 15.03353621 -0.05031893 17 0 C19.02367538 2.02367538 18.43792233 6.00632603 18.62109375 8.75 C18.74613281 9.4925 18.87117188 10.235 19 11 C19.66 11.33 20.32 11.66 21 12 C20.69108003 14.98622637 20.16753715 15.86118351 17.8125 17.8125 C14.29370155 19.2982149 12.70920774 18.7846401 9 18 C6.03 18 3.06 18 0 18 C0 12.06 0 6.12 0 0 Z " fill="#EAEAEA" transform="translate(66,31)"/>
<path d="M0 0 C5.94 0 11.88 0 18 0 C18.495 8.415 18.495 8.415 19 17 C14.53109435 19.23445283 12.68763143 19.10681182 7.8125 18.6875 C6.56082031 18.58824219 5.30914062 18.48898437 4.01953125 18.38671875 C1 18 1 18 0 17 C-0.07330331 14.13530675 -0.09217831 11.30106326 -0.0625 8.4375 C-0.041875 5.653125 -0.02125 2.86875 0 0 Z " fill="#FDFDFD" transform="translate(379,400)"/>
<path d="M0 0 C0.66 0.66 1.32 1.32 2 2 C3.32 2 4.64 2 6 2 C7.32 2 8.64 2 10 2 C12 4 12 4 12.1953125 7.9140625 C12.18386556 9.48450818 12.15788715 11.05485698 12.125 12.625 C12.08375 15.38875 12.0425 18.1525 12 21 C6.06 21 0.12 21 -6 21 C-6 5 -6 5 -4.6875 3.61328125 C-3.125 2.40885417 -1.5625 1.20442708 0 0 Z " fill="#EAEAEA" transform="translate(348,379)"/>
<path d="M0 0 C0 5.61 0 11.22 0 17 C0.99 16.67 1.98 16.34 3 16 C3.33 16.66 3.66 17.32 4 18 C3.0625 20.125 3.0625 20.125 2 22 C1.34 22 0.68 22 0 22 C-0.33 20.68 -0.66 19.36 -1 18 C-6.61 17.67 -12.22 17.34 -18 17 C-18 11.39 -18 5.78 -18 0 C-11.29444902 -0.95793585 -6.6156766 -0.73507518 0 0 Z " fill="#EAEAEA" transform="translate(29,87)"/>
<path d="M0 0 C5.94 0 11.88 0 18 0 C18 5.94 18 11.88 18 18 C12.06 18 6.12 18 0 18 C0 12.06 0 6.12 0 0 Z " fill="#EAEAEA" transform="translate(342,13)"/>
<path d="M0 0 C5.94 0 11.88 0 18 0 C18 5.94 18 11.88 18 18 C12.06 18 6.12 18 0 18 C0 12.06 0 6.12 0 0 Z " fill="#EBEBEB" transform="translate(397,400)"/>
<path d="M0 0 C5.94 0 11.88 0 18 0 C18 5.94 18 11.88 18 18 C12.06 18 6.12 18 0 18 C0 12.06 0 6.12 0 0 Z " fill="#EBEBEB" transform="translate(29,400)"/>
<path d="M0 0 C3.31121369 0.59432041 5.03995485 1.8110685 7.34375 4.23828125 C9.67377677 8.92329936 8.25188729 14.447527 7.4375 19.4375 C8.4275 19.7675 9.4175 20.0975 10.4375 20.4375 C9.1175 20.7675 7.7975 21.0975 6.4375 21.4375 C6.4375 20.7775 6.4375 20.1175 6.4375 19.4375 C0.8275 19.4375 -4.7825 19.4375 -10.5625 19.4375 C-10.583125 16.653125 -10.60375 13.86875 -10.625 11 C-10.634104 10.12158447 -10.64320801 9.24316895 -10.65258789 8.33813477 C-10.65973091 6.37104026 -10.61281893 4.40396379 -10.5625 2.4375 C-8.17949897 0.05449897 -3.23820344 0.552864 0 0 Z " fill="#FDFDFD" transform="translate(58.5625,361.5625)"/>
<path d="M0 0 C0.74886475 0.00523682 1.49772949 0.01047363 2.26928711 0.01586914 C3.07817383 0.0190918 3.88706055 0.02231445 4.72045898 0.02563477 C5.5705957 0.03401367 6.42073242 0.04239258 7.29663086 0.05102539 C8.15063477 0.05553711 9.00463867 0.06004883 9.88452148 0.06469727 C12.00108749 0.07652166 14.11761771 0.0944577 16.23413086 0.11352539 C16.09393394 2.92641245 15.94725131 5.73869424 15.79663086 8.55102539 C15.75731445 9.3534668 15.71799805 10.1559082 15.67749023 10.98266602 C15.34741211 17.00024414 15.34741211 17.00024414 14.23413086 18.11352539 C11.55681706 18.21333753 8.91108911 18.25232414 6.23413086 18.23852539 C5.1087793 18.24432617 5.1087793 18.24432617 3.96069336 18.25024414 C-1.63925861 18.24013592 -1.63925861 18.24013592 -2.76586914 17.11352539 C-2.86568128 14.43621159 -2.90466789 11.79048365 -2.89086914 9.11352539 C-2.89473633 8.36329102 -2.89860352 7.61305664 -2.90258789 6.84008789 C-2.8905766 0.18583134 -2.8905766 0.18583134 0 0 Z " fill="#EBEBEB" transform="translate(399.765869140625,30.886474609375)"/>
<path d="M0 0 C0.74886475 0.00523682 1.49772949 0.01047363 2.26928711 0.01586914 C3.07817383 0.0190918 3.88706055 0.02231445 4.72045898 0.02563477 C5.5705957 0.03401367 6.42073242 0.04239258 7.29663086 0.05102539 C8.15063477 0.05553711 9.00463867 0.06004883 9.88452148 0.06469727 C12.00108749 0.07652166 14.11761771 0.0944577 16.23413086 0.11352539 C16.09393394 2.92641245 15.94725131 5.73869424 15.79663086 8.55102539 C15.75731445 9.3534668 15.71799805 10.1559082 15.67749023 10.98266602 C15.34741211 17.00024414 15.34741211 17.00024414 14.23413086 18.11352539 C11.55681706 18.21333753 8.91108911 18.25232414 6.23413086 18.23852539 C5.1087793 18.24432617 5.1087793 18.24432617 3.96069336 18.25024414 C-1.63925861 18.24013592 -1.63925861 18.24013592 -2.76586914 17.11352539 C-2.86568128 14.43621159 -2.90466789 11.79048365 -2.89086914 9.11352539 C-2.89473633 8.36329102 -2.89860352 7.61305664 -2.90258789 6.84008789 C-2.8905766 0.18583134 -2.8905766 0.18583134 0 0 Z " fill="#EBEBEB" transform="translate(31.765869140625,30.886474609375)"/>
<path d="M0 0 C1.48831242 0.00667405 2.97660807 0.01863442 4.46484375 0.03515625 C5.22345703 0.03966797 5.98207031 0.04417969 6.76367188 0.04882812 C8.64326246 0.06064945 10.52281274 0.07858547 12.40234375 0.09765625 C13.99507519 3.28311914 13.50376208 6.72964973 13.46484375 10.22265625 C13.44421875 12.82140625 13.42359375 15.42015625 13.40234375 18.09765625 C7.46234375 18.09765625 1.52234375 18.09765625 -4.59765625 18.09765625 C-4.61828125 15.31328125 -4.63890625 12.52890625 -4.66015625 9.66015625 C-4.66926025 8.78174072 -4.67836426 7.9033252 -4.68774414 6.99829102 C-4.69488716 5.03119651 -4.64797518 3.06412004 -4.59765625 1.09765625 C-3.59765625 0.09765625 -3.59765625 0.09765625 0 0 Z " fill="#EAEAEA" transform="translate(383.59765625,381.90234375)"/>
<path d="M0 0 C1.48831242 0.00667405 2.97660807 0.01863442 4.46484375 0.03515625 C5.22345703 0.03966797 5.98207031 0.04417969 6.76367188 0.04882812 C8.64326246 0.06064945 10.52281274 0.07858547 12.40234375 0.09765625 C13.99507519 3.28311914 13.50376208 6.72964973 13.46484375 10.22265625 C13.44421875 12.82140625 13.42359375 15.42015625 13.40234375 18.09765625 C7.46234375 18.09765625 1.52234375 18.09765625 -4.59765625 18.09765625 C-4.61828125 15.31328125 -4.63890625 12.52890625 -4.66015625 9.66015625 C-4.66926025 8.78174072 -4.67836426 7.9033252 -4.68774414 6.99829102 C-4.69488716 5.03119651 -4.64797518 3.06412004 -4.59765625 1.09765625 C-3.59765625 0.09765625 -3.59765625 0.09765625 0 0 Z " fill="#EAEAEA" transform="translate(15.59765625,381.90234375)"/>
<path d="M0 0 C5.61 0 11.22 0 17 0 C17.020625 2.784375 17.04125 5.56875 17.0625 8.4375 C17.071604 9.31591553 17.08070801 10.19433105 17.09008789 11.09936523 C17.09723091 13.06645974 17.05031893 15.03353621 17 17 C16 18 16 18 12.18359375 18.09765625 C10.60153318 18.09098089 9.01948841 18.07901875 7.4375 18.0625 C6.63119141 18.05798828 5.82488281 18.05347656 4.99414062 18.04882812 C2.99606244 18.03700518 0.99802217 18.01906914 -1 18 C-1.02690844 15.37493198 -1.04679404 12.75013827 -1.0625 10.125 C-1.07087891 9.37863281 -1.07925781 8.63226563 -1.08789062 7.86328125 C-1.11328125 2.2265625 -1.11328125 2.2265625 0 0 Z " fill="#EAEAEA" transform="translate(12,345)"/>
<path d="M0 0 C1.48831242 0.00667405 2.97660807 0.01863442 4.46484375 0.03515625 C5.22345703 0.03966797 5.98207031 0.04417969 6.76367188 0.04882812 C8.64326246 0.06064945 10.52281274 0.07858547 12.40234375 0.09765625 C13.58029228 3.63150184 13.53498692 6.50043178 13.52734375 10.22265625 C13.53121094 12.11371094 13.53121094 12.11371094 13.53515625 14.04296875 C13.40234375 17.09765625 13.40234375 17.09765625 12.40234375 18.09765625 C9.91175461 18.19763267 7.4550698 18.23645252 4.96484375 18.22265625 C3.92360352 18.22845703 3.92360352 18.22845703 2.86132812 18.234375 C-2.34437637 18.22429619 -2.34437637 18.22429619 -4.59765625 17.09765625 C-4.62450304 14.45175611 -4.64441982 11.80612529 -4.66015625 9.16015625 C-4.66853516 8.40541016 -4.67691406 7.65066406 -4.68554688 6.87304688 C-4.69418066 4.94771312 -4.64989958 3.02230044 -4.59765625 1.09765625 C-3.59765625 0.09765625 -3.59765625 0.09765625 0 0 Z " fill="#EAEAEA" transform="translate(15.59765625,12.90234375)"/>
<path d="M0 0 C5.61 0 11.22 0 17 0 C17.71070856 4.26425135 18.11400687 7.65143644 18.0625 11.875 C18.05347656 12.84179688 18.04445313 13.80859375 18.03515625 14.8046875 C18.02355469 15.52914063 18.01195312 16.25359375 18 17 C14.81453711 18.59273144 11.36800652 18.10141833 7.875 18.0625 C5.27625 18.041875 2.6775 18.02125 0 18 C0 12.06 0 6.12 0 0 Z " fill="#EAEAEA" transform="translate(324,400)"/>
<path d="M0 0 C5.61 0 11.22 0 17 0 C17 5.94 17 11.88 17 18 C11.39 18 5.78 18 0 18 C0 12.06 0 6.12 0 0 Z " fill="#EAEAEA" transform="translate(361,400)"/>
<path d="M0 0 C5.61 0 11.22 0 17 0 C17.86626993 4.33134963 17.98617411 7.02868398 17.5625 11.3125 C17.46066406 12.38113281 17.35882813 13.44976562 17.25390625 14.55078125 C17.17011719 15.35902344 17.08632813 16.16726562 17 17 C12.36126179 18.01825961 8.62469549 18.17719522 4 17 C1.1875 14.6875 1.1875 14.6875 -1 12 C-1.495 11.401875 -1.99 10.80375 -2.5 10.1875 C-3.35979717 6.42588739 -1.50180902 3.46571313 0 0 Z " fill="#FAFAFA" transform="translate(361,50)"/>
<path d="M0 0 C3.58072917 0.06510417 7.16145833 0.13020833 10.7421875 0.1953125 C10.7421875 6.4653125 10.7421875 12.7353125 10.7421875 19.1953125 C5.4621875 19.1953125 0.1821875 19.1953125 -5.2578125 19.1953125 C-5.31161828 16.40339045 -5.35138919 13.6124984 -5.3828125 10.8203125 C-5.39957031 10.02625 -5.41632813 9.2321875 -5.43359375 8.4140625 C-5.45116723 6.34039235 -5.36116418 4.26648009 -5.2578125 2.1953125 C-3.2578125 0.1953125 -3.2578125 0.1953125 0 0 Z " fill="#FEFEFE" transform="translate(421.2578125,325.8046875)"/>
<path d="M0 0 C5.28 0 10.56 0 16 0 C16 5.94 16 11.88 16 18 C10.72 18 5.44 18 0 18 C-0.95793585 11.29444902 -0.73507518 6.6156766 0 0 Z " fill="#EBEBEB" transform="translate(416,13)"/>
<path d="M0 0 C5.28 2.64 10.56 5.28 16 8 C15.125 18.875 15.125 18.875 14 20 C11.13530675 20.07330331 8.30106326 20.09217831 5.4375 20.0625 C1.2609375 20.0315625 1.2609375 20.0315625 -3 20 C-3 14.06 -3 8.12 -3 2 C-2.01 2 -1.02 2 0 2 C0 1.34 0 0.68 0 0 Z " fill="#EAEAEA" transform="translate(106,398)"/>
<path d="M0 0 C5.28 0 10.56 0 16 0 C16 5.94 16 11.88 16 18 C10.72 18 5.44 18 0 18 C-0.90375653 11.67370431 -0.90375653 6.32629569 0 0 Z " fill="#FEFEFE" transform="translate(416,290)"/>
<path d="M0 0 C0 5.94 0 11.88 0 18 C-5.28 18 -10.56 18 -16 18 C-16.185625 15.40125 -16.37125 12.8025 -16.5625 10.125 C-16.62381104 9.30789551 -16.68512207 8.49079102 -16.74829102 7.64892578 C-17.11111111 2.22222222 -17.11111111 2.22222222 -16 0 C-10.58114061 -1.52839624 -5.49978187 -0.66889239 0 0 Z " fill="#FEFEFE" transform="translate(432,105)"/>
<path d="M0 0 C5.28 0 10.56 0 16 0 C16 5.94 16 11.88 16 18 C10.72 18 5.44 18 0 18 C-0.185625 15.40125 -0.37125 12.8025 -0.5625 10.125 C-0.62381104 9.30789551 -0.68512207 8.49079102 -0.74829102 7.64892578 C-1.11111111 2.22222222 -1.11111111 2.22222222 0 0 Z " fill="#EBEBEB" transform="translate(416,308)"/>
<path d="M0 0 C5.28 0 10.56 0 16 0 C16 5.94 16 11.88 16 18 C10.72 18 5.44 18 0 18 C-1.52346928 11.90612288 -0.52060316 6.24723795 0 0 Z " fill="#EAEAEA" transform="translate(416,123)"/>
<path d="M0 0 C5.28 0 10.56 0 16 0 C16 5.94 16 11.88 16 18 C10.72 18 5.44 18 0 18 C-1.26709547 11.66452265 -0.58468691 6.43155599 0 0 Z " fill="#FEFEFE" transform="translate(416,68)"/>
<path d="M0 0 C5.28 0 10.56 0 16 0 C16 5.94 16 11.88 16 18 C10.72 18 5.44 18 0 18 C0 12.06 0 6.12 0 0 Z " fill="#EAEAEA" transform="translate(416,382)"/>
<path d="M0 0 C5.28 0 10.56 0 16 0 C16 5.94 16 11.88 16 18 C10.72 18 5.44 18 0 18 C0 12.06 0 6.12 0 0 Z " fill="#EBEBEB" transform="translate(416,345)"/>
<path d="M0 0 C5.28 0 10.56 0 16 0 C16 5.94 16 11.88 16 18 C10.72 18 5.44 18 0 18 C0 12.06 0 6.12 0 0 Z " fill="#EBEBEB" transform="translate(416,50)"/>
<path d="M0 0 C5.28 0 10.56 0 16 0 C16 5.94 16 11.88 16 18 C10.72 18 5.44 18 0 18 C0 12.06 0 6.12 0 0 Z " fill="#FEFEFE" transform="translate(416,31)"/>
<path d="M0 0 C5.28 0 10.56 0 16 0 C16 5.94 16 11.88 16 18 C10.72 17.67 5.44 17.34 0 17 C0 11.39 0 5.78 0 0 Z " fill="#EAEAEA" transform="translate(416,87)"/>
<path d="M0 0 C5.61 0 11.22 0 17 0 C17.20625 2.3925 17.4125 4.785 17.625 7.25 C17.73062256 8.37003418 17.73062256 8.37003418 17.83837891 9.51269531 C18.1237244 13.26150992 18.13556183 15.83741225 16 19 C12.6914198 18.05469137 10.10621671 17.07242049 7.25 15.125 C3.06755712 12.39032581 -1.33205801 10.73433418 -6 9 C-3 7 -3 7 -1 7 C-0.67 4.69 -0.34 2.38 0 0 Z " fill="#E6E6E6" transform="translate(306,13)"/>
<path d="M0 0 C0 6.27 0 12.54 0 19 C-4.95 19.495 -4.95 19.495 -10 20 C-10.8353125 18.02 -10.8353125 18.02 -11.6875 16 C-13.47425207 11.94618617 -15.58200079 8.3039446 -18.046875 4.62890625 C-19 3 -19 3 -19 1 C-16.20837429 0.83262201 -13.41670379 0.66606598 -10.625 0.5 C-9.8309375 0.45230469 -9.036875 0.40460938 -8.21875 0.35546875 C-2.2265625 0 -2.2265625 0 0 0 Z " fill="#EAEAEA" transform="translate(415,104)"/>
<path d="M0 0 C6.27 0 12.54 0 19 0 C19.09765625 9.27734375 19.09765625 9.27734375 19 12 C18 13 18 13 14.98046875 13.1328125 C13.72878906 13.13023438 12.47710937 13.12765625 11.1875 13.125 C9.32158203 13.12886719 9.32158203 13.12886719 7.41796875 13.1328125 C4 13 4 13 0 12 C0 8.04 0 4.08 0 0 Z " fill="#EBEBEB" transform="translate(360,0)"/>
<path d="M0 0 C5.94 0 11.88 0 18 0 C18.09765625 8.49609375 18.09765625 8.49609375 18 11 C17 12 17 12 13.18359375 12.09765625 C11.60153318 12.09098089 10.01948841 12.07901875 8.4375 12.0625 C7.63119141 12.05798828 6.82488281 12.05347656 5.99414062 12.04882812 C3.99606244 12.03700518 1.99802217 12.01906914 0 12 C0.33 13.32 0.66 14.64 1 16 C-1.64 15.34 -4.28 14.68 -7 14 C-6.01 13.34 -5.02 12.68 -4 12 C-1.68832016 10.4391141 -1.68832016 10.4391141 0 8 C0 5.36 0 2.72 0 0 Z " fill="#EAEAEA" transform="translate(287,0)"/>
<path d="M0 0 C6.27 0 12.54 0 19 0 C19 3.96 19 7.92 19 12 C13.06 12 7.12 12 1 12 C-0.82089479 8.35821043 -0.05121113 3.99446852 0 0 Z " fill="#EBEBEB" transform="translate(397,0)"/>
<path d="M0 0 C6.27 0 12.54 0 19 0 C19 3.96 19 7.92 19 12 C13.06 12 7.12 12 1 12 C-0.82089479 8.35821043 -0.05121113 3.99446852 0 0 Z " fill="#EBEBEB" transform="translate(29,0)"/>
<path d="M0 0 C5.94 0 11.88 0 18 0 C19 4 19 4 19 12 C12.73 12 6.46 12 0 12 C0 8.04 0 4.08 0 0 Z " fill="#EBEBEB" transform="translate(84,418)"/>
<path d="M0 0 C6.27 0 12.54 0 19 0 C19.33 2.97 19.66 5.94 20 9 C19.34 9 18.68 9 18 9 C17.67 9.99 17.34 10.98 17 12 C13.85658007 13.57170996 10.44228549 13.23175783 7 13 C6.01 12.67 5.02 12.34 4 12 C4 11.34 4 10.68 4 10 C2.68 9.67 1.36 9.34 0 9 C0 6.03 0 3.06 0 0 Z " fill="#F9F9F9" transform="translate(268,0)"/>
<path d="M0 0 C5.94 0 11.88 0 18 0 C18.09765625 9.27734375 18.09765625 9.27734375 18 12 C17.67 12.33 17.34 12.66 17 13 C14.13311752 12.90903444 11.29699485 12.76232012 8.4375 12.5625 C7.63119141 12.51029297 6.82488281 12.45808594 5.99414062 12.40429688 C3.99578262 12.27422624 1.99784614 12.13770944 0 12 C0 8.04 0 4.08 0 0 Z " fill="#EAEAEA" transform="translate(324,0)"/>
<path d="M0 0 C1.72089844 0.02126953 1.72089844 0.02126953 3.4765625 0.04296875 C5.18972656 0.05263672 5.18972656 0.05263672 6.9375 0.0625 C10.1015625 0.23046875 10.1015625 0.23046875 14.1015625 1.23046875 C13.7715625 4.86046875 13.4415625 8.49046875 13.1015625 12.23046875 C7.1615625 12.23046875 1.2215625 12.23046875 -4.8984375 12.23046875 C-5.09375 4.61328125 -5.09375 4.61328125 -4.8984375 2.23046875 C-2.8984375 0.23046875 -2.8984375 0.23046875 0 0 Z " fill="#EBEBEB" transform="translate(125.8984375,417.76953125)"/>
<path d="M0 0 C0.66 1.32 1.32 2.64 2 4 C1.67 4.33 1.34 4.66 1 5 C0.76807135 6.51469448 0.58784762 8.03754562 0.4375 9.5625 C0.293125 11.026875 0.14875 12.49125 0 14 C-5.94 14 -11.88 14 -18 14 C-18 11.69 -18 9.38 -18 7 C-18.33 6.34 -18.66 5.68 -19 5 C-18.67 4.34 -18.34 3.68 -18 3 C-15.3313938 2.73993649 -12.73724286 2.57860091 -10.0625 2.5 C-4.53016399 2.65548137 -4.53016399 2.65548137 0 0 Z " fill="#FDFDFD" transform="translate(305,416)"/>
<path d="M0 0 C0.99 0 1.98 0 3 0 C3.33 2.31 3.66 4.62 4 7 C2.68 7.33 1.36 7.66 0 8 C-0.91448759 11.25151142 -0.96613994 13.77386779 -0.4375 17.0625 C0 21 0 21 -2 25 C-4.97 25 -7.94 25 -11 25 C-11 19.06 -11 13.12 -11 7 C-7.7 6.67 -4.4 6.34 -1 6 C-0.67 4.02 -0.34 2.04 0 0 Z " fill="#EAEAEA" transform="translate(11,283)"/>
<path d="M0 0 C2.97 0 5.94 0 9 0 C9 0.66 9 1.32 9 2 C9.66 2 10.32 2 11 2 C11.66 5.96 12.32 9.92 13 14 C12.34 14 11.68 14 11 14 C10.87625 14.639375 10.7525 15.27875 10.625 15.9375 C10.41875 16.618125 10.2125 17.29875 10 18 C8 19 8 19 0 19 C0 12.73 0 6.46 0 0 Z " fill="#F9F9F9" transform="translate(0,271)"/>
<path d="M0 0 C0.33 0 0.66 0 1 0 C1.33 4.95 1.66 9.9 2 15 C3.32 15.33 4.64 15.66 6 16 C1.91459423 19.39524985 -2.38289169 22.33366458 -6.8125 25.25 C-7.50537109 25.70890625 -8.19824219 26.1678125 -8.91210938 26.640625 C-10.60666887 27.76254025 -12.30314034 28.88156672 -14 30 C-14.33 29.34 -14.66 28.68 -15 28 C-15.99 27.67 -16.98 27.34 -18 27 C-18.33 23.37 -18.66 19.74 -19 16 C-13.06 15.67 -7.12 15.34 -1 15 C-0.67 10.05 -0.34 5.1 0 0 Z " fill="#F5F5F5" transform="translate(102,15)"/>
<path d="M0 0 C5.61 0 11.22 0 17 0 C18 2 18 2 18 11 C11.73 11 5.46 11 -1 11 C-1 3 -1 3 0 0 Z " fill="#FDFDFD" transform="translate(361,419)"/>
<path d="M0 0 C1 3 1 3 1 11 C-4.94 11 -10.88 11 -17 11 C-17 7.7 -17 4.4 -17 1 C-11.87717638 -1.10167123 -5.19603792 -2.59801896 0 0 Z " fill="#EBEBEB" transform="translate(396,419)"/>
<path d="M0 0 C0 3.63 0 7.26 0 11 C-5.94 11 -11.88 11 -18 11 C-18 2 -18 2 -16 0 C-10.85976065 -1.5118351 -5.07480332 -1.69160111 0 0 Z " fill="#EBEBEB" transform="translate(323,419)"/>
<path d="M0 0 C1 3 1 3 1 11 C-4.94 11 -10.88 11 -17 11 C-17 7.7 -17 4.4 -17 1 C-11.87717638 -1.10167123 -5.19603792 -2.59801896 0 0 Z " fill="#EBEBEB" transform="translate(28,419)"/>
<path d="M0 0 C0 6.27 0 12.54 0 19 C-3.96 19.33 -7.92 19.66 -12 20 C-12.41693222 13.74601675 -11.3495415 7.83034371 -9 2 C-6 0 -6 0 0 0 Z " fill="#FBFBFB" transform="translate(432,252)"/>
<path d="M0 0 C5.94 0 11.88 0 18 0 C18 3.63 18 7.26 18 11 C12.06 11 6.12 11 0 11 C0 7.37 0 3.74 0 0 Z " fill="#EAEAEA" transform="translate(342,419)"/>
<path d="M0 0 C2.660625 0.2784375 2.660625 0.2784375 5.375 0.5625 C5.375 6.5025 5.375 12.4425 5.375 18.5625 C2.735 18.5625 0.095 18.5625 -2.625 18.5625 C-2.955 19.2225 -3.285 19.8825 -3.625 20.5625 C-4.945 13.9625 -6.265 7.3625 -7.625 0.5625 C-4.89657939 -0.80171031 -3.01546682 -0.31557211 0 0 Z " fill="#E9E9E9" transform="translate(426.625,159.4375)"/>
<path d="M0 0 C3.3 0 6.6 0 10 0 C11.52491129 3.04982258 11.14361434 6.22122539 11.125 9.5625 C11.12886719 10.26052734 11.13273438 10.95855469 11.13671875 11.67773438 C11.12663994 16.87336006 11.12663994 16.87336006 10 18 C6.66381769 18.14257189 3.34024394 18.04228157 0 18 C0 12.06 0 6.12 0 0 Z " fill="#EBEBEB" transform="translate(0,105)"/>
<path d="M0 0 C3.3 0 6.6 0 10 0 C11.52491129 3.04982258 11.14361434 6.22122539 11.125 9.5625 C11.12886719 10.26052734 11.13273438 10.95855469 11.13671875 11.67773438 C11.12663994 16.87336006 11.12663994 16.87336006 10 18 C6.66381769 18.14257189 3.34024394 18.04228157 0 18 C0 12.06 0 6.12 0 0 Z " fill="#EBEBEB" transform="translate(0,68)"/>
<path d="M0 0 C6.40987767 4.22680339 12.72664703 8.57329164 19 13 C17.39441516 14.92536938 16.52230522 15.91074167 14.00708008 16.34057617 C12.89949341 16.3170105 12.89949341 16.3170105 11.76953125 16.29296875 C10.96708984 16.28330078 10.16464844 16.27363281 9.33789062 16.26367188 C8.08782227 16.2259668 8.08782227 16.2259668 6.8125 16.1875 C5.5450293 16.16719727 5.5450293 16.16719727 4.25195312 16.14648438 C2.16769616 16.11115799 0.08376723 16.05735139 -2 16 C-2 11.38 -2 6.76 -2 2 C-1.34 2 -0.68 2 0 2 C0 1.34 0 0.68 0 0 Z " fill="#E8E8E8" transform="translate(86,384)"/>
<path d="M0 0 C1.39456452 0.00667256 2.78911118 0.01863093 4.18359375 0.03515625 C4.89451172 0.03966797 5.60542969 0.04417969 6.33789062 0.04882812 C8.09899388 0.06064761 9.86005411 0.07858362 11.62109375 0.09765625 C11.62109375 4.05765625 11.62109375 8.01765625 11.62109375 12.09765625 C6.34109375 12.09765625 1.06109375 12.09765625 -4.37890625 12.09765625 C-4.4765625 3.6015625 -4.4765625 3.6015625 -4.37890625 1.09765625 C-3.37890625 0.09765625 -3.37890625 0.09765625 0 0 Z " fill="#EBEBEB" transform="translate(420.37890625,417.90234375)"/>
<path d="M0 0 C3.42813968 0.60469787 6.49643138 1.4758121 9.72265625 2.77734375 C10.59083984 3.12603516 11.45902344 3.47472656 12.35351562 3.83398438 C13.24748047 4.19814453 14.14144531 4.56230469 15.0625 4.9375 C15.96033203 5.29779297 16.85816406 5.65808594 17.78320312 6.02929688 C21.59549832 7.56838706 25.3413679 9.11932649 29 11 C22.43565479 11.95288882 16.1091574 12.04360896 9.5 11.75 C8.69836426 11.72365479 7.89672852 11.69730957 7.07080078 11.67016602 C4.78125 11.546875 4.78125 11.546875 1 11 C-1.78637633 6.8204355 -0.79562512 4.85331323 0 0 Z M-16 11 C-11.05 11 -6.1 11 -1 11 C-1 11.33 -1 11.66 -1 12 C-5.95 12 -10.9 12 -16 12 C-16 11.67 -16 11.34 -16 11 Z " fill="#F9F9F9" transform="translate(121,407)"/>
<path d="M0 0 C3.3 0 6.6 0 10 0 C10.1954625 2.24932227 10.38108226 4.49950142 10.5625 6.75 C10.66691406 8.00296875 10.77132813 9.2559375 10.87890625 10.546875 C11 14 11 14 10 18 C6.7 18 3.4 18 0 18 C0 12.06 0 6.12 0 0 Z " fill="#FEFEFE" transform="translate(0,13)"/>
<path d="M0 0 C0.66 0 1.32 0 2 0 C2.66 2.31 3.32 4.62 4 7 C4 5.35 4 3.7 4 2 C6.81962165 4.60614872 8.95334682 7.57433573 11.1875 10.6875 C11.90292969 11.68136719 12.61835937 12.67523438 13.35546875 13.69921875 C13.89816406 14.45847656 14.44085938 15.21773438 15 16 C14.34 17.32 13.68 18.64 13 20 C12.34 19.835 11.68 19.67 11 19.5 C8.45960721 19.0766012 6.30503202 18.96323695 3.75 19 C2.5125 19 1.275 19 0 19 C-1.8855253 17.1144747 -1.13246689 14.42231169 -1.13671875 11.91796875 C-1.13285156 11.12003906 -1.12898438 10.32210938 -1.125 9.5 C-1.12886719 8.70207031 -1.13273437 7.90414063 -1.13671875 7.08203125 C-1.12660767 1.12660767 -1.12660767 1.12660767 0 0 Z " fill="#E6E6E6" transform="translate(30,326)"/>
<path d="M0 0 C3.3 0 6.6 0 10 0 C10.95973961 3.89668715 11.0169791 7.25691005 10.6875 11.25 C10.56955078 12.83554687 10.56955078 12.83554687 10.44921875 14.453125 C10.30097656 15.29359375 10.15273437 16.1340625 10 17 C8 18 8 18 0 18 C0 12.06 0 6.12 0 0 Z " fill="#FEFEFE" transform="translate(0,50)"/>
<path d="M0 0 C2 2 2 2 2 4 C-16.48 4 -34.96 4 -54 4 C-53.67 3.01 -53.34 2.02 -53 1 C-51.83017578 0.97494385 -50.66035156 0.9498877 -49.45507812 0.92407227 C-45.08649018 0.82941271 -40.71803972 0.72933847 -36.34960938 0.62768555 C-34.46422558 0.58455691 -32.57880826 0.54286778 -30.69335938 0.50268555 C-27.97255376 0.4444442 -25.25191352 0.38090932 -22.53125 0.31640625 C-21.69758911 0.29969376 -20.86392822 0.28298126 -20.00500488 0.26576233 C-16.15999595 0.16992744 -12.39834611 -0.03158944 -8.58398438 -0.53930664 C-5.28261664 -0.96367183 -3.14052784 -1.01605313 0 0 Z " fill="#F2F2F2" transform="translate(248,426)"/>
<path d="M0 0 C3.3 0 6.6 0 10 0 C10 5.94 10 11.88 10 18 C6.7 18 3.4 18 0 18 C0 12.06 0 6.12 0 0 Z " fill="#EAEAEA" transform="translate(0,400)"/>
<path d="M0 0 C3.3 0 6.6 0 10 0 C10 5.94 10 11.88 10 18 C6.7 18 3.4 18 0 18 C0 12.06 0 6.12 0 0 Z " fill="#FEFEFE" transform="translate(0,382)"/>
<path d="M0 0 C3.3 0 6.6 0 10 0 C10 5.94 10 11.88 10 18 C6.7 18 3.4 18 0 18 C0 12.06 0 6.12 0 0 Z " fill="#FEFEFE" transform="translate(0,308)"/>
<path d="M0 0 C2.97 0 5.94 0 9 0 C10 1 10 1 10.09765625 4.81640625 C10.09098089 6.39846682 10.07901875 7.98051159 10.0625 9.5625 C10.05798828 10.36880859 10.05347656 11.17511719 10.04882812 12.00585938 C10.03700518 14.00393756 10.01906914 16.00197783 10 18 C6.7 18 3.4 18 0 18 C0 12.06 0 6.12 0 0 Z " fill="#EAEAEA" transform="translate(0,31)"/>
<path d="M0 0 C3.3 0 6.6 0 10 0 C10 5.61 10 11.22 10 17 C8 18 8 18 0 18 C0 12.06 0 6.12 0 0 Z " fill="#EAEAEA" transform="translate(0,327)"/>
<path d="M0 0 C0.79341797 -0.00386719 1.58683594 -0.00773437 2.40429688 -0.01171875 C8.31086933 -0.00163067 8.31086933 -0.00163067 9.4375 1.125 C9.67277773 3.47487262 9.85136417 5.83056039 10 8.1875 C10.12568359 10.12302734 10.12568359 10.12302734 10.25390625 12.09765625 C10.31449219 13.09667969 10.37507813 14.09570312 10.4375 15.125 C6.54247465 13.31903587 2.978859 11.00399919 -0.625 8.6875 C-1.24955078 8.29240234 -1.87410156 7.89730469 -2.51757812 7.49023438 C-5.4762592 5.59251044 -8.23275729 3.77902924 -10.5625 1.125 C-7.26572112 -0.52338944 -3.61933956 -0.01772738 0 0 Z " fill="#E4E4E4" transform="translate(332.5625,30.875)"/>
<path d="M0 0 C0 0.66 0 1.32 0 2 C-1.32 2.33 -2.64 2.66 -4 3 C-4 5.31 -4 7.62 -4 10 C-7.12492251 10.05791844 -10.24970766 10.09356746 -13.375 10.125 C-14.26445312 10.14175781 -15.15390625 10.15851563 -16.0703125 10.17578125 C-16.92109375 10.18222656 -17.771875 10.18867188 -18.6484375 10.1953125 C-19.82672119 10.21102295 -19.82672119 10.21102295 -21.02880859 10.22705078 C-23 10 -23 10 -25 8 C-25.66 7.01 -26.32 6.02 -27 5 C-22.87562418 4.16355701 -18.75040082 3.33137162 -14.625 2.5 C-13.449375 2.26152344 -12.27375 2.02304687 -11.0625 1.77734375 C-9.38027344 1.43896484 -9.38027344 1.43896484 -7.6640625 1.09375 C-6.62717285 0.88427734 -5.5902832 0.67480469 -4.52197266 0.45898438 C-2 0 -2 0 0 0 Z " fill="#F7F7F7" transform="translate(273,420)"/>
<path d="M0 0 C5.94 0 11.88 0 18 0 C18.16276042 2.27864583 18.32552083 4.55729167 18.48828125 6.8359375 C18.82990528 9.37921338 18.82990528 9.37921338 22 11 C16.28462574 10.26328283 10.69457444 9.14957381 5.0625 7.9375 C4.18787109 7.75123047 3.31324219 7.56496094 2.41210938 7.37304688 C0.27429472 6.91744703 -1.86291582 6.45901408 -4 6 C-3.525625 5.566875 -3.05125 5.13375 -2.5625 4.6875 C-0.76313043 2.97690387 -0.76313043 2.97690387 0 0 Z " fill="#E3E3E3" transform="translate(250,0)"/>
<path d="M0 0 C0.99 0.66 1.98 1.32 3 2 C2.34 2 1.68 2 1 2 C1.185625 2.825 1.37125 3.65 1.5625 4.5 C2.08474269 8.67794155 1.77138098 11.86259295 1 16 C-1.64458379 17.32229189 -3.67761301 17.09677194 -6.625 17.0625 C-7.62789063 17.05347656 -8.63078125 17.04445313 -9.6640625 17.03515625 C-10.43492187 17.02355469 -11.20578125 17.01195312 -12 17 C-11.44028286 12.84316735 -10.09822127 10.22467722 -7.6875 6.8125 C-7.09324219 5.95269531 -6.49898438 5.09289062 -5.88671875 4.20703125 C-4.01284851 2.01502983 -2.65206716 1.04794707 0 0 Z " fill="#F4F4F4" transform="translate(396,328)"/>
<path d="M0 0 C5.61 0 11.22 0 17 0 C17.33 1.65 17.66 3.3 18 5 C13.92394543 9.07605457 6.90223991 9.90327594 1.3125 10.1875 C0.549375 10.125625 -0.21375 10.06375 -1 10 C-0.67 6.7 -0.34 3.4 0 0 Z " fill="#FBFBFB" transform="translate(158,0)"/>
<path d="M0 0 C3.63 0 7.26 0 11 0 C11.02686553 1.97909398 11.04633375 3.95828971 11.0625 5.9375 C11.07410156 7.03964844 11.08570313 8.14179688 11.09765625 9.27734375 C11 12 11 12 10 13 C6.66381769 13.14257189 3.34024394 13.04228157 0 13 C0 8.71 0 4.42 0 0 Z " fill="#EBEBEB" transform="translate(0,0)"/>
<path d="M0 0 C1.65 0 3.3 0 5 0 C5 5.94 5 11.88 5 18 C2.03 18.66 -0.94 19.32 -4 20 C-3.71897755 17.04029545 -3.4257082 14.082712 -3.125 11.125 C-3.00705078 9.86236328 -3.00705078 9.86236328 -2.88671875 8.57421875 C-2.76103516 7.36572266 -2.76103516 7.36572266 -2.6328125 6.1328125 C-2.55949707 5.38918457 -2.48618164 4.64555664 -2.41064453 3.87939453 C-2 2 -2 2 0 0 Z " fill="#EAEAEA" transform="translate(427,234)"/>
<path d="M0 0 C1.39572052 -0.02736707 2.79160221 -0.04655989 4.1875 -0.0625 C4.96480469 -0.07410156 5.74210937 -0.08570312 6.54296875 -0.09765625 C9 0 9 0 14 1 C14 6.61 14 12.22 14 18 C13.34 18.33 12.68 18.66 12 19 C3.55353075 6.51480638 3.55353075 6.51480638 0 0 Z " fill="#E6E6E6" transform="translate(383,86)"/>
<path d="M0 0 C2.64 0 5.28 0 8 0 C8.40850553 7.08076251 6.90420731 13.19925959 5 20 C4.67 19.34 4.34 18.68 4 18 C2.68 18 1.36 18 0 18 C0 12.06 0 6.12 0 0 Z " fill="#FAFAFA" transform="translate(0,160)"/>
<path d="M0 0 C0.66 0 1.32 0 2 0 C2 0.99 2 1.98 2 3 C2.99 2.01 3.98 1.02 5 0 C5.69951063 2.413762 6.38483919 4.83010234 7.0625 7.25 C7.26166016 7.93191406 7.46082031 8.61382812 7.66601562 9.31640625 C9.40009269 15.58342161 9.40009269 15.58342161 8 19 C8 18.34 8 17.68 8 17 C5.03 17 2.06 17 -1 17 C-1.02721176 15.10424749 -1.04649136 13.20838021 -1.0625 11.3125 C-1.07410156 10.25675781 -1.08570312 9.20101563 -1.09765625 8.11328125 C-1.00865425 5.27589738 -0.64939838 2.7561081 0 0 Z " fill="#DFDFDF" transform="translate(1,254)"/>
<path d="M0 0 C-3.00168774 3.7163753 -6.1059584 7.26217771 -9.625 10.5 C-10.17414063 11.0053125 -10.72328125 11.510625 -11.2890625 12.03125 C-13 13 -13 13 -15.2109375 12.65625 C-16.09652344 12.33140625 -16.09652344 12.33140625 -17 12 C-16.67 11.34 -16.34 10.68 -16 10 C-15.95537091 8.47982163 -15.96095455 6.95783203 -16 5.4375 C-16.03785426 3.95881779 -16.04629173 2.47844212 -16 1 C-12.62416879 -2.37583121 -4.1066008 -0.94767711 0 0 Z " fill="#F5F5F5" transform="translate(81,49)"/>
<path d="M0 0 C3.38958412 3.34141952 6.64172281 6.76312255 9.8125 10.3125 C10.60269531 11.19550781 11.39289062 12.07851563 12.20703125 12.98828125 C12.79871094 13.65214844 13.39039063 14.31601562 14 15 C10.93753253 16.78409802 8.77920727 17.22880021 5.25 17.125 C4.45078125 17.10695313 3.6515625 17.08890625 2.828125 17.0703125 C2.22484375 17.04710937 1.6215625 17.02390625 1 17 C-0.53266582 13.93466836 -0.10276471 10.73245728 -0.0625 7.375 C-0.05798828 6.66859375 -0.05347656 5.9621875 -0.04882812 5.234375 C-0.03703875 3.48954725 -0.01910324 1.744763 0 0 Z " fill="#E6E6E6" transform="translate(47,346)"/>
<path d="M0 0 C0.33 0 0.66 0 1 0 C1 4.29 1 8.58 1 13 C2.32 13 3.64 13 5 13 C5 18.94 5 24.88 5 31 C3.02 31.33 1.04 31.66 -1 32 C-0.67 21.44 -0.34 10.88 0 0 Z " fill="#FBFBFB" transform="translate(427,203)"/>
<path d="M0 0 C0.65355469 0.56267578 0.65355469 0.56267578 1.3203125 1.13671875 C5.18607599 4.45859777 9.07657648 7.74642927 13 11 C12.67 11.66 12.34 12.32 12 13 C9.6739143 13.38063221 7.33944736 13.71269945 5 14 C4.01 14.495 4.01 14.495 3 15 C3 14.34 3 13.68 3 13 C1.68 13 0.36 13 -1 13 C-2.20577428 8.05632546 -1.6290678 4.79137588 0 0 Z " fill="#E3E3E3" transform="translate(67,368)"/>
<path d="M0 0 C1.98 0 3.96 0 6 0 C6 5.94 6 11.88 6 18 C4.68 18 3.36 18 2 18 C1.67 20.64 1.34 23.28 1 26 C0.67 26 0.34 26 0 26 C0 17.42 0 8.84 0 0 Z " fill="#E0E0E0" transform="translate(426,198)"/>
<path d="M0 0 C6.6 0 13.2 0 20 0 C20 0.99 20 1.98 20 3 C21.65 3 23.3 3 25 3 C25 3.33 25 3.66 25 4 C23.70964844 4.13277344 22.41929687 4.26554688 21.08984375 4.40234375 C19.37238852 4.58065877 17.65494101 4.75904813 15.9375 4.9375 C14.66616211 5.06801758 14.66616211 5.06801758 13.36914062 5.20117188 C8.56087034 5.70242013 3.78050517 6.28000533 -1 7 C-0.67 4.69 -0.34 2.38 0 0 Z " fill="#EAEAEA" transform="translate(175,0)"/>
<path d="M0 0 C0.99 0.33 1.98 0.66 3 1 C5.5541347 17.23699915 5.5541347 17.23699915 5 23 C4.01 23.66 3.02 24.32 2 25 C2.33 23.68 2.66 22.36 3 21 C2.34 21 1.68 21 1 21 C1 22.65 1 24.3 1 26 C0.67 26 0.34 26 0 26 C0 17.42 0 8.84 0 0 Z " fill="#F7F7F7" transform="translate(0,233)"/>
<path d="M0 0 C0.99 0.99 1.98 1.98 3 3 C2.67 3.66 2.34 4.32 2 5 C2.66 5 3.32 5 4 5 C5.125 10.625 5.125 10.625 4 14 C0.7 14.33 -2.6 14.66 -6 15 C-4.40109514 9.80355921 -2.25861997 4.93387858 0 0 Z " fill="#E9E9E9" transform="translate(411,293)"/>
<path d="M0 0 C1.35629442 0.09716339 2.71181023 0.20570753 4.06640625 0.32421875 C4.74767578 0.37255859 5.42894531 0.42089844 6.13085938 0.47070312 C9.1481821 0.70416884 11.74647097 1.05090699 14.62890625 2.01171875 C14.29890625 3.00171875 13.96890625 3.99171875 13.62890625 5.01171875 C7.68890625 5.01171875 1.74890625 5.01171875 -4.37109375 5.01171875 C-4.70109375 4.02171875 -5.03109375 3.03171875 -5.37109375 2.01171875 C-3.37109375 0.01171875 -3.37109375 0.01171875 0 0 Z " fill="#FAFAFA" transform="translate(180.37109375,424.98828125)"/>
<path d="M0 0 C0.99 0.33 1.98 0.66 3 1 C3.97961897 3.93885692 4.03775226 5.05758525 3.66015625 8.01171875 C3.56669922 8.76904297 3.47324219 9.52636719 3.37695312 10.30664062 C3.27318359 11.09232422 3.16941406 11.87800781 3.0625 12.6875 C2.96259766 13.48478516 2.86269531 14.28207031 2.75976562 15.10351562 C2.51251153 17.06977435 2.25704363 19.03499706 2 21 C1.01 20.67 0.02 20.34 -1 20 C-1.02888514 16.85418577 -1.04675923 13.70840531 -1.0625 10.5625 C-1.07087891 9.66466797 -1.07925781 8.76683594 -1.08789062 7.84179688 C-1.09111328 6.98779297 -1.09433594 6.13378906 -1.09765625 5.25390625 C-1.10551147 4.06776733 -1.10551147 4.06776733 -1.11352539 2.85766602 C-1 1 -1 1 0 0 Z " fill="#EAEAEA" transform="translate(1,177)"/>
<path d="M0 0 C-0.33 0.99 -0.66 1.98 -1 3 C-2.32488113 3.36548445 -3.66018514 3.6937566 -5 4 C-6.34275169 4.98731742 -7.67732273 5.98594743 -9 7 C-9.66 7 -10.32 7 -11 7 C-11 4.36 -11 1.72 -11 -1 C-3.375 -2.25 -3.375 -2.25 0 0 Z " fill="#FBFBFB" transform="translate(59,69)"/>
<path d="M0 0 C9.57 0 19.14 0 29 0 C29 0.33 29 0.66 29 1 C25.37 1.33 21.74 1.66 18 2 C18 2.33 18 2.66 18 3 C11.73 3 5.46 3 -1 3 C-0.67 2.01 -0.34 1.02 0 0 Z " fill="#D4D4D4" transform="translate(195,427)"/>
<path d="M0 0 C2.64 0 5.28 0 8 0 C9.15837626 4.05431692 8.83691257 6.21812119 7 10 C5.82512964 9.24172908 4.66027408 8.46792245 3.5 7.6875 C2.52546875 7.04361328 2.52546875 7.04361328 1.53125 6.38671875 C0.77328125 5.70029297 0.77328125 5.70029297 0 5 C0 3.33333333 0 1.66666667 0 0 Z " fill="#E7E7E7" transform="translate(351,49)"/>
<path d="M0 0 C0.33 1.32 0.66 2.64 1 4 C6.28 4 11.56 4 17 4 C17 4.33 17 4.66 17 5 C11.72 5 6.44 5 1 5 C1 7.97 1 10.94 1 14 C0.01 13.67 -0.98 13.34 -2 13 C-3.35384615 5.73846154 -3.35384615 5.73846154 -1.5625 2 C-1.046875 1.34 -0.53125 0.68 0 0 Z " fill="#EDEDED" transform="translate(415,285)"/>
<path d="M0 0 C5.94 0 11.88 0 18 0 C18 0.99 18 1.98 18 3 C12.06 3 6.12 3 0 3 C0 2.01 0 1.02 0 0 Z " fill="#FCFCFC" transform="translate(195,0)"/>
<path d="M0 0 C3.72433382 1.2125738 7.37802806 2.50859979 11 4 C10.67 4.66 10.34 5.32 10 6 C7.6739143 6.38063221 5.33944736 6.71269945 3 7 C2.01 7.495 2.01 7.495 1 8 C1 7.34 1 6.68 1 6 C-0.32 6 -1.64 6 -3 6 C-2 4 -1 2 0 0 Z " fill="#E9E9E9" transform="translate(69,375)"/>
<path d="M0 0 C0 4.06032791 -1.64183437 6.52994005 -4.375 9.48828125 C-6.06064692 11.05641913 -7.80060112 12.37023097 -9.6875 13.6875 C-10.62142578 14.34298828 -10.62142578 14.34298828 -11.57421875 15.01171875 C-12.04472656 15.33785156 -12.51523438 15.66398438 -13 16 C-11.3383196 11.87582937 -8.37661982 8.93445961 -5.375 5.75 C-4.859375 5.19570312 -4.34375 4.64140625 -3.8125 4.0703125 C-2.54574965 2.7097288 -1.27342185 1.35434163 0 0 Z M-14 16 C-13.67 16.99 -13.34 17.98 -13 19 C-14.65 20.32 -16.3 21.64 -18 23 C-18.66 22.67 -19.32 22.34 -20 22 C-18.02 20.02 -16.04 18.04 -14 16 Z " fill="#282828" transform="translate(260,175)"/>
<path d="M0 0 C2.64 0 5.28 0 8 0 C8.37211538 6.57403846 8.37211538 6.57403846 6.48828125 8.73046875 C5.99714844 9.14941406 5.50601562 9.56835938 5 10 C4.16121545 8.71186658 3.32913217 7.41936744 2.5 6.125 C2.0359375 5.40570313 1.571875 4.68640625 1.09375 3.9453125 C0 2 0 2 0 0 Z " fill="#E4E4E4" transform="translate(396,105)"/>
<path d="M0 0 C0.66 0.66 1.32 1.32 2 2 C0.62500127 3.70451912 -0.77579293 5.38825686 -2.1875 7.0625 C-2.96480469 8.00222656 -3.74210937 8.94195312 -4.54296875 9.91015625 C-7 12 -7 12 -9.80078125 11.80859375 C-10.52652344 11.54175781 -11.25226563 11.27492188 -12 11 C-10.36587557 9.29159719 -9.13093906 8.06546953 -7 7 C-6.5978125 5.7934375 -6.5978125 5.7934375 -6.1875 4.5625 C-5 2 -5 2 -2.375 0.6875 C-1.59125 0.460625 -0.8075 0.23375 0 0 Z M-5 5 C-5.33 5.66 -5.66 6.32 -6 7 C-5.34 7 -4.68 7 -4 7 C-4.33 6.34 -4.66 5.68 -5 5 Z " fill="#090909" transform="translate(121,295)"/>
<path d="M0 0 C0.66 0 1.32 0 2 0 C2 0.99 2 1.98 2 3 C2.99 2.67 3.98 2.34 5 2 C4.50269348 6.97306516 3.44697666 10.63799813 1 15 C-2.34146341 4.97560976 -2.34146341 4.97560976 -1.125 1.5 C-0.75375 1.005 -0.3825 0.51 0 0 Z " fill="#EFEFEF" transform="translate(10,138)"/>
<path d="M0 0 C0.33 1.32 0.66 2.64 1 4 C-0.0828125 4.93972656 -0.0828125 4.93972656 -1.1875 5.8984375 C-2.115625 6.71570313 -3.04375 7.53296875 -4 8.375 C-4.928125 9.18710938 -5.85625 9.99921875 -6.8125 10.8359375 C-7.8953125 11.90714844 -7.8953125 11.90714844 -9 13 C-9 13.66 -9 14.32 -9 15 C-10.32267727 16.01405257 -11.65724831 17.01268258 -13 18 C-13.66 18.99 -14.32 19.98 -15 21 C-15.33 20.01 -15.66 19.02 -16 18 C-15.02160156 16.93072266 -15.02160156 16.93072266 -14.0234375 15.83984375 C-9.26660294 10.62697048 -4.55366772 5.39250124 0 0 Z " fill="#1D1D1D" transform="translate(301,128)"/>
<path d="M0 0 C6.27 0 12.54 0 19 0 C19 0.66 19 1.32 19 2 C12.62641289 2.96205088 6.44070471 3.10655578 0 3 C0 2.01 0 1.02 0 0 Z " fill="#EBEBEB" transform="translate(213,0)"/>
<path d="M0 0 C-0.33 0.99 -0.66 1.98 -1 3 C-1.66 3 -2.32 3 -3 3 C-3.66 4.32 -4.32 5.64 -5 7 C-5.66 7 -6.32 7 -7 7 C-6.67 8.32 -6.34 9.64 -6 11 C-6.66 11 -7.32 11 -8 11 C-8.33 11.66 -8.66 12.32 -9 13 C-9 11.68 -9 10.36 -9 9 C-9.66 8.34 -10.32 7.68 -11 7 C-9.9296491 5.82141137 -8.84316035 4.6574639 -7.75 3.5 C-7.14671875 2.8503125 -6.5434375 2.200625 -5.921875 1.53125 C-4 0 -4 0 0 0 Z " fill="#E6E6E6" transform="translate(370,363)"/>
<path d="M0 0 C4.86777176 0.44252471 6.70587263 1.47869144 10 5 C10.99 5 11.98 5 13 5 C12.67 7.64 12.34 10.28 12 13 C10.85872377 11.85872377 9.71776264 10.71713121 8.578125 9.57421875 C7.42694314 8.42588635 6.26987213 7.28344889 5.109375 6.14453125 C4.47515625 5.51933594 3.8409375 4.89414063 3.1875 4.25 C2.58292969 3.65703125 1.97835938 3.0640625 1.35546875 2.453125 C0 1 0 1 0 0 Z " fill="#E2E2E2" transform="translate(366,67)"/>
<path d="M0 0 C0.33 0 0.66 0 1 0 C1.33 1.65 1.66 3.3 2 5 C4.49361571 3.79618552 6.68143083 2.54571278 9 1 C9 4.58912412 8.33563446 5.10857029 6 7.6875 C5.443125 8.31011719 4.88625 8.93273437 4.3125 9.57421875 C3.879375 10.04472656 3.44625 10.51523438 3 11 C2.01 10.67 1.02 10.34 0 10 C0 6.7 0 3.4 0 0 Z " fill="#F2F2F2" transform="translate(47,70)"/>
<path d="M0 0 C0.33 0.99 0.66 1.98 1 3 C1.66 3.33 2.32 3.66 3 4 C2.67 4.33 2.34 4.66 2 5 C1.84417697 6.34015221 1.74955858 7.68758903 1.68359375 9.03515625 C1.64169922 9.84404297 1.59980469 10.65292969 1.55664062 11.48632812 C1.51732422 12.33646484 1.47800781 13.18660156 1.4375 14.0625 C1.39431641 14.91650391 1.35113281 15.77050781 1.30664062 16.65039062 C1.20023298 18.76672037 1.09958269 20.88333813 1 23 C1.66 23.33 2.32 23.66 3 24 C2.34 24.66 1.68 25.32 1 26 C0.67 25.01 0.34 24.02 0 23 C-3.3 23 -6.6 23 -10 23 C-10 22.67 -10 22.34 -10 22 C-6.7 22 -3.4 22 0 22 C-0.12568359 20.12054688 -0.12568359 20.12054688 -0.25390625 18.203125 C-0.35709509 16.55210357 -0.45994178 14.90106073 -0.5625 13.25 C-0.61857422 12.425 -0.67464844 11.6 -0.73242188 10.75 C-0.78076172 9.95078125 -0.82910156 9.1515625 -0.87890625 8.328125 C-0.9260376 7.5949707 -0.97316895 6.86181641 -1.02172852 6.10644531 C-0.99913793 3.91642774 -0.61487456 2.09512813 0 0 Z " fill="#F2F2F2" transform="translate(10,27)"/>
<path d="M0 0 C1.0625 1.8125 1.0625 1.8125 2 4 C1.67 4.99 1.34 5.98 1 7 C1.66 7.33 2.32 7.66 3 8 C3 8.66 3 9.32 3 10 C2.38125 10.2475 1.7625 10.495 1.125 10.75 C-1.35068687 12.20628639 -1.95125002 13.37812506 -3 16 C-2.34 16.33 -1.68 16.66 -1 17 C-1.66 17.99 -2.32 18.98 -3 20 C-4.1484375 18.515625 -4.1484375 18.515625 -5 16 C-4.33545663 13.12223827 -3.59384863 10.519537 -2.625 7.75 C-2.3775 7.00492187 -2.13 6.25984375 -1.875 5.4921875 C-1.26326523 3.65698319 -0.63337124 1.82784987 0 0 Z " fill="#CDCDCD" transform="translate(419,268)"/>
<path d="M0 0 C0 0.99 0 1.98 0 3 C-0.639375 3.12375 -1.27875 3.2475 -1.9375 3.375 C-2.618125 3.58125 -3.29875 3.7875 -4 4 C-4.33 4.66 -4.66 5.32 -5 6 C-6.65 5.67 -8.3 5.34 -10 5 C-10.33 4.01 -10.66 3.02 -11 2 C-3.57142857 -1.57142857 -3.57142857 -1.57142857 0 0 Z " fill="#D7D7D7" transform="translate(305,409)"/>
<path d="M0 0 C2.9375 0.25 2.9375 0.25 6 1 C6.66 1.99 7.32 2.98 8 4 C2.58461538 7.07692308 2.58461538 7.07692308 -0.375 6.6875 C-0.91125 6.460625 -1.4475 6.23375 -2 6 C-1.125 1.125 -1.125 1.125 0 0 Z " fill="#EBEBEB" transform="translate(123,16)"/>
<path d="M0 0 C0.33 0 0.66 0 1 0 C1 3.96 1 7.92 1 12 C4.96 12 8.92 12 13 12 C13 12.33 13 12.66 13 13 C9.04 13 5.08 13 1 13 C1 16.96 1 20.92 1 25 C0.67 25 0.34 25 0 25 C-0.89073566 16.50375215 -0.99418527 8.48881273 0 0 Z " fill="#F4F4F4" transform="translate(323,0)"/>
<path d="M0 0 C6 7.71428571 6 7.71428571 6 11 C4.68 11 3.36 11 2 11 C2 11.66 2 12.32 2 13 C1.34 13 0.68 13 0 13 C0.66 11.02 1.32 9.04 2 7 C1.34 7 0.68 7 0 7 C-0.93423645 3.98968256 -1.04449911 3.13349732 0 0 Z " fill="#DDDDDD" transform="translate(25,312)"/>
<path d="M0 0 C2.86688248 0.09096556 5.70300515 0.23767988 8.5625 0.4375 C9.36880859 0.48970703 10.17511719 0.54191406 11.00585938 0.59570312 C13.00421738 0.72577376 15.00215386 0.86229056 17 1 C17 1.33 17 1.66 17 2 C9.08 2.495 9.08 2.495 1 3 C0.67 7.95 0.34 12.9 0 18 C-0.33 18 -0.66 18 -1 18 C-1.02684312 15.18743719 -1.04676188 12.37512759 -1.0625 9.5625 C-1.07087891 8.76005859 -1.07925781 7.95761719 -1.08789062 7.13085938 C-1.0965143 5.08704779 -1.0522815 3.04316098 -1 1 C-0.67 0.67 -0.34 0.34 0 0 Z " fill="#F2F2F2" transform="translate(66,11)"/>
<path d="M0 0 C4.875 4.625 4.875 4.625 6 8 C5.34 8.66 4.68 9.32 4 10 C4 10.66 4 11.32 4 12 C3.01 12.33 2.02 12.66 1 13 C0.67 8.71 0.34 4.42 0 0 Z " fill="#D9D9D9" transform="translate(47,346)"/>
<path d="M0 0 C0.33 0 0.66 0 1 0 C1.22786458 2.05078125 1.45572917 4.1015625 1.68359375 6.15234375 C1.81886614 8.01140229 1.81886614 8.01140229 3 9 C3.66 7.68 4.32 6.36 5 5 C5.66 5 6.32 5 7 5 C6.62403791 7.78211944 6.32681541 9.5879284 4.5625 11.8125 C3 13 3 13 1 13 C-0.00496852 9.98509443 -0.10335303 7.95818308 -0.0625 4.8125 C-0.05347656 3.91144531 -0.04445313 3.01039063 -0.03515625 2.08203125 C-0.02355469 1.39496094 -0.01195312 0.70789063 0 0 Z " fill="#E2E2E2" transform="translate(11,128)"/>
<path d="M0 0 C0.33 0.99 0.66 1.98 1 3 C-0.5954349 5.05727132 -2.26526288 7.05874656 -4 9 C-4.33 9.66 -4.66 10.32 -5 11 C-7.31 10.67 -9.62 10.34 -12 10 C-11.67 9.34 -11.34 8.68 -11 8 C-9.63875 7.62875 -9.63875 7.62875 -8.25 7.25 C-4.00160748 5.61600288 -2.67476433 3.61879879 0 0 Z " fill="#1D1D1D" transform="translate(143,314)"/>
<path d="M0 0 C5.57142857 5.14285714 5.57142857 5.14285714 6 9 C5.01 9 4.02 9 3 9 C1.61328125 7.25 1.61328125 7.25 0.3125 5 C-0.12449219 4.2575 -0.56148437 3.515 -1.01171875 2.75 C-1.33785156 2.1725 -1.66398438 1.595 -2 1 C-1.34 0.67 -0.68 0.34 0 0 Z " fill="#0E0E0E" transform="translate(251,210)"/>
<path d="M0 0 C0.66 0.99 1.32 1.98 2 3 C0.02 5.31 -1.96 7.62 -4 10 C-4.99 9.34 -5.98 8.68 -7 8 C-4.69 5.36 -2.38 2.72 0 0 Z " fill="#212121" transform="translate(268,165)"/>
<path d="M0 0 C0.66 0.99 1.32 1.98 2 3 C-0.31 5.64 -2.62 8.28 -5 11 C-5.66 10.67 -6.32 10.34 -7 10 C-5.63055898 7.05043472 -4.12169591 4.47531189 -2 2 C-1.34 2 -0.68 2 0 2 C0 1.34 0 0.68 0 0 Z " fill="#101010" transform="translate(252,138)"/>
<path d="M0 0 C0.66 0 1.32 0 2 0 C2.33 1.98 2.66 3.96 3 6 C1.68 6.99 0.36 7.98 -1 9 C-1.66 7.68 -2.32 6.36 -3 5 C-2.505 4.360625 -2.01 3.72125 -1.5 3.0625 C0.09802862 1.29025661 0.09802862 1.29025661 0 0 Z " fill="#101010" transform="translate(172,232)"/>
<path d="M0 0 C0.99 0 1.98 0 3 0 C2.04735876 4.19162145 1.36739592 5.7207791 -2.125 8.375 C-3.07375 8.91125 -4.0225 9.4475 -5 10 C-5.66 9.67 -6.32 9.34 -7 9 C-5.38405168 6.95880212 -3.7143618 4.95927063 -2 3 C-1.34 3 -0.68 3 0 3 C0 2.01 0 1.02 0 0 Z " fill="#E5E5E5" transform="translate(185,224)"/>
<path d="M0 0 C0.66 0.33 1.32 0.66 2 1 C1.175 1.598125 0.35 2.19625 -0.5 2.8125 C-1.325 3.534375 -2.15 4.25625 -3 5 C-3 5.99 -3 6.98 -3 8 C-5.31 8.33 -7.62 8.66 -10 9 C-6.83047153 5.73991357 -3.60062011 2.77762123 0 0 Z " fill="#252525" transform="translate(88,44)"/>
<path d="M0 0 C2.3125 1.5 2.3125 1.5 4 3 C1.00519083 3.8723412 -1.63575911 4.10829766 -4.75 4.0625 C-5.54921875 4.05347656 -6.3484375 4.04445313 -7.171875 4.03515625 C-7.77515625 4.02355469 -8.3784375 4.01195312 -9 4 C-6.98987658 -0.02024684 -4.12142836 -0.50261322 0 0 Z " fill="#E1E1E1" transform="translate(240,426)"/>
<path d="M0 0 C3.8063457 0.67170806 7.35206816 1.72746564 11 3 C11 3.33 11 3.66 11 4 C3.57142857 5.28571429 3.57142857 5.28571429 0 4 C0 2.68 0 1.36 0 0 Z " fill="#DDDDDD" transform="translate(139,414)"/>
<path d="M0 0 C0.99 1.32 1.98 2.64 3 4 C-0.72965139 6.03435531 -2.66905042 7 -7 7 C-4.66666667 4.66666667 -2.33333333 2.33333333 0 0 Z " fill="#DEDEDE" transform="translate(348,379)"/>
<path d="M0 0 C0.99 0.33 1.98 0.66 3 1 C2.67 2.32 2.34 3.64 2 5 C1.01 5 0.02 5 -1 5 C-2.69088222 6.97956942 -4.35830472 8.97945196 -6 11 C-6.66 11 -7.32 11 -8 11 C-6.63629701 8.00779732 -5.05091917 5.70973471 -2.875 3.25 C-2.33617187 2.63640625 -1.79734375 2.0228125 -1.2421875 1.390625 C-0.62730469 0.70226562 -0.62730469 0.70226562 0 0 Z " fill="#2B2B2B" transform="translate(164,290)"/>
<path d="M0 0 C0.66 0.33 1.32 0.66 2 1 C2.625 3.0625 2.625 3.0625 3 5 C2.05125 5.28875 1.1025 5.5775 0.125 5.875 C-3.05211578 6.76825109 -3.05211578 6.76825109 -5 9 C-5 4.61031544 -2.87194899 3.23094261 0 0 Z " fill="#1C1C1C" transform="translate(189,262)"/>
<path d="M0 0 C0.99 0 1.98 0 3 0 C3.33 2.31 3.66 4.62 4 7 C2.35 7.33 0.7 7.66 -1 8 C-1.125 2.25 -1.125 2.25 0 0 Z " fill="#E4E4E4" transform="translate(11,283)"/>
<path d="M0 0 C0.33 1.98 0.66 3.96 1 6 C-4.75 4.25 -4.75 4.25 -7 2 C-4 0 -4 0 0 0 Z " fill="#1A1A1A" transform="translate(121,400)"/>
<path d="M0 0 C0.66 0 1.32 0 2 0 C2.33 2.31 2.66 4.62 3 7 C3.99 7 4.98 7 6 7 C5.34 8.32 4.68 9.64 4 11 C3.13341385 9.73760288 2.28207941 8.46472499 1.4375 7.1875 C0.72400391 6.12595703 0.72400391 6.12595703 -0.00390625 5.04296875 C-1 3 -1 3 0 0 Z " fill="#131313" transform="translate(32,320)"/>
<path d="M0 0 C0 4.24170573 -1.83750763 6.75139708 -4.6875 9.8125 C-5.120625 10.204375 -5.55375 10.59625 -6 11 C-6.71484375 9.234375 -6.71484375 9.234375 -7 7 C-5.56640625 5.078125 -5.56640625 5.078125 -3.5625 3.25 C-2.90378906 2.63640625 -2.24507813 2.0228125 -1.56640625 1.390625 C-1.04949219 0.93171875 -0.53257812 0.4728125 0 0 Z " fill="#1E1E1E" transform="translate(260,175)"/>
<path d="M0 0 C0.33 0.66 0.66 1.32 1 2 C5.95 2 10.9 2 16 2 C16 2.33 16 2.66 16 3 C14.94039063 3.04898437 13.88078125 3.09796875 12.7890625 3.1484375 C11.40101503 3.22346709 10.01299549 3.29901485 8.625 3.375 C7.57699219 3.42140625 7.57699219 3.42140625 6.5078125 3.46875 C2.29814173 3.59499498 2.29814173 3.59499498 -1 6 C-1 5.01 -1 4.02 -1 3 C-1.99 2.67 -2.98 2.34 -4 2 C-2.68 2 -1.36 2 0 2 C0 1.34 0 0.68 0 0 Z " fill="#F4F4F4" transform="translate(397,10)"/>
<path d="M0 0 C0.33 0.66 0.66 1.32 1 2 C5.95 2 10.9 2 16 2 C16 2.33 16 2.66 16 3 C14.94039062 3.04898437 13.88078125 3.09796875 12.7890625 3.1484375 C11.40101503 3.22346709 10.01299549 3.29901485 8.625 3.375 C7.57699219 3.42140625 7.57699219 3.42140625 6.5078125 3.46875 C2.29814173 3.59499498 2.29814173 3.59499498 -1 6 C-1 5.01 -1 4.02 -1 3 C-1.99 2.67 -2.98 2.34 -4 2 C-2.68 2 -1.36 2 0 2 C0 1.34 0 0.68 0 0 Z " fill="#F4F4F4" transform="translate(29,10)"/>
<path d="M0 0 C3.96 0 7.92 0 12 0 C12 0.99 12 1.98 12 3 C8.37 3 4.74 3 1 3 C0.67 2.01 0.34 1.02 0 0 Z " fill="#EEEEEE" transform="translate(183,0)"/>
<path d="M0 0 C0.66 0.99 1.32 1.98 2 3 C1.01 3.33 0.02 3.66 -1 4 C-1 4.66 -1 5.32 -1 6 C-3.02392288 8.42870746 -5.13302508 9.71480435 -8 11 C-6.63629701 8.00779732 -5.05091917 5.70973471 -2.875 3.25 C-2.33617188 2.63640625 -1.79734375 2.0228125 -1.2421875 1.390625 C-0.62730469 0.70226562 -0.62730469 0.70226562 0 0 Z " fill="#DADADA" transform="translate(113,307)"/>
<path d="M0 0 C2.64752004 2.57784846 4.94432065 4.91648098 7 8 C7 8.99 7 9.98 7 11 C4.59260552 10.03704221 3.25157752 9.38398674 1.8125 7.1875 C0.92912413 4.80918034 0.41664625 2.49987748 0 0 Z " fill="#272727" transform="translate(178,216)"/>
<path d="M0 0 C1.32 1.32 2.64 2.64 4 4 C3.34 5.32 2.68 6.64 2 8 C0.68 6.68 -0.64 5.36 -2 4 C-1.34 2.68 -0.68 1.36 0 0 Z " fill="#121212" transform="translate(195,197)"/>
<path d="M0 0 C0 1.66666667 0 3.33333333 0 5 C-1.53125 6.5078125 -1.53125 6.5078125 -3.5 8.125 C-4.1496875 8.66382813 -4.799375 9.20265625 -5.46875 9.7578125 C-5.9740625 10.16773438 -6.479375 10.57765625 -7 11 C-7.66 10.67 -8.32 10.34 -9 10 C-6.03 6.7 -3.06 3.4 0 0 Z " fill="#D6D6D6" transform="translate(234,163)"/>
<path d="M0 0 C2.64 0 5.28 0 8 0 C8.33 0.66 8.66 1.32 9 2 C8.34 2 7.68 2 7 2 C6.67 2.66 6.34 3.32 6 4 C5.34 3.67 4.68 3.34 4 3 C3.67 3.99 3.34 4.98 3 6 C2.01 5.67 1.02 5.34 0 5 C0 3.33333333 0 1.66666667 0 0 Z " fill="#DDDDDD" transform="translate(351,49)"/>
<path d="M0 0 C0 2.83967231 -0.40267181 5.23735711 -1 8 C-2.66666667 8 -4.33333333 8 -6 8 C-4.26440562 4.942048 -2.61527381 2.36620011 0 0 Z " fill="#252525" transform="translate(182,270)"/>
<path d="M0 0 C0 3.66184524 -0.919642 5.02806 -3 8 C-5.1875 9.8125 -5.1875 9.8125 -7 11 C-7.66 10.67 -8.32 10.34 -9 10 C-6.03 6.7 -3.06 3.4 0 0 Z " fill="#D9D9D9" transform="translate(151,264)"/>
<path d="M0 0 C0.66 0.99 1.32 1.98 2 3 C1.34 4.32 0.68 5.64 0 7 C-0.66 7 -1.32 7 -2 7 C-2.33 7.66 -2.66 8.32 -3 9 C-3 8.34 -3 7.68 -3 7 C-3.66 6.67 -4.32 6.34 -5 6 C-3.35 4.02 -1.7 2.04 0 0 Z " fill="#D8D8D8" transform="translate(259,134)"/>
<path d="M0 0 C0.33 1.32 0.66 2.64 1 4 C-1.97 6.475 -1.97 6.475 -5 9 C-5.33 8.34 -5.66 7.68 -6 7 C-4.02 4.69 -2.04 2.38 0 0 Z " fill="#1C1C1C" transform="translate(308,120)"/>
<path d="M0 0 C1.17949219 0.10183594 2.35898438 0.20367187 3.57421875 0.30859375 C4.47785156 0.39238281 5.38148438 0.47617187 6.3125 0.5625 C6.3125 0.8925 6.3125 1.2225 6.3125 1.5625 C4.02204632 1.78377098 1.73005236 1.9891504 -0.5625 2.1875 C-2.47675781 2.36152344 -2.47675781 2.36152344 -4.4296875 2.5390625 C-5.50476563 2.54679688 -6.57984375 2.55453125 -7.6875 2.5625 C-8.3475 1.9025 -9.0075 1.2425 -9.6875 0.5625 C-6.14075997 -0.61974668 -3.71227005 -0.33079634 0 0 Z " fill="#DFDFDF" transform="translate(193.6875,2.4375)"/>
<path d="M0 0 C1.9375 0.3125 1.9375 0.3125 4 1 C4.33 1.99 4.66 2.98 5 4 C2.525 5.485 2.525 5.485 0 7 C-1.125 2.25 -1.125 2.25 0 0 Z " fill="#101010" transform="translate(208,196)"/>
<path d="M0 0 C2 2 2 2 2.125 4.625 C2.08375 5.40875 2.0425 6.1925 2 7 C-0.64 6.34 -3.28 5.68 -6 5 C-5.01 4.34 -4.02 3.68 -3 3 C-1.98131338 2.01904252 -0.97648017 1.02297922 0 0 Z " fill="#E1E1E1" transform="translate(286,9)"/>
<path d="M0 0 C2.91517292 1.07401108 4.77810176 1.77810176 7 4 C2.25 5.125 2.25 5.125 0 4 C-0.33 3.01 -0.66 2.02 -1 1 C-0.67 0.67 -0.34 0.34 0 0 Z " fill="#E1E1E1" transform="translate(97,393)"/>
<path d="M0 0 C0.33 0.99 0.66 1.98 1 3 C-0.65 4.32 -2.3 5.64 -4 7 C-5.32 6.34 -6.64 5.68 -8 5 C-2.25 2 -2.25 2 0 2 C0 1.34 0 0.68 0 0 Z " fill="#111111" transform="translate(117,300)"/>
<path d="M0 0 C3.11089621 1.55544811 6.03851491 3.19020355 9 5 C8.01 5.495 8.01 5.495 7 6 C6.67 6.99 6.34 7.98 6 9 C4.02 6.03 2.04 3.06 0 0 Z " fill="#151515" transform="translate(263,230)"/>
<path d="M0 0 C0.33 0.99 0.66 1.98 1 3 C-1.84936103 6.00765886 -4.23511958 8.27845212 -8 10 C-7.59007812 9.52949219 -7.18015625 9.05898438 -6.7578125 8.57421875 C-6.21898437 7.95160156 -5.68015625 7.32898438 -5.125 6.6875 C-4.59132812 6.07261719 -4.05765625 5.45773437 -3.5078125 4.82421875 C-1.8359553 2.86501788 -1.8359553 2.86501788 0 0 Z " fill="#D3D3D3" transform="translate(141,275)"/>
<path d="M0 0 C1.32 0 2.64 0 4 0 C4 1.98 4 3.96 4 6 C3.01 6.495 3.01 6.495 2 7 C1.01 5.02 0.02 3.04 -1 1 C-0.67 0.67 -0.34 0.34 0 0 Z " fill="#E1E1E1" transform="translate(393,98)"/>
<path d="M0 0 C1.98 0.66 3.96 1.32 6 2 C5.34 3.32 4.68 4.64 4 6 C2 4.6875 2 4.6875 0 3 C0 2.01 0 1.02 0 0 Z " fill="#ECECEC" transform="translate(372,67)"/>
<path d="M0 0 C0.66 0.33 1.32 0.66 2 1 C0.625 2.5 0.625 2.5 -1 4 C-1.66 4 -2.32 4 -3 4 C-3.33 4.66 -3.66 5.32 -4 6 C-5.32 5.34 -6.64 4.68 -8 4 C-6.71349294 3.30289269 -5.42059335 2.61757124 -4.125 1.9375 C-3.40570313 1.55464844 -2.68640625 1.17179687 -1.9453125 0.77734375 C-1.30335937 0.52082031 -0.66140625 0.26429687 0 0 Z " fill="#252525" transform="translate(123,23)"/>
<path d="M0 0 C2.0625 0.4375 2.0625 0.4375 4 1 C3.67 2.65 3.34 4.3 3 6 C2.01 6 1.02 6 0 6 C0.33 4.68 0.66 3.36 1 2 C0.34 1.67 -0.32 1.34 -1 1 C-0.67 0.67 -0.34 0.34 0 0 Z " fill="#F2F2F2" transform="translate(376,352)"/>
<path d="M0 0 C0 3 0 3 -2.5 5.6875 C-3.325 6.450625 -4.15 7.21375 -5 8 C-5.33 7.34 -5.66 6.68 -6 6 C-4.75 3.4375 -4.75 3.4375 -3 1 C-2.01 0.67 -1.02 0.34 0 0 Z " fill="#CDCDCD" transform="translate(411,300)"/>
<path d="M0 0 C0.99 0.99 1.98 1.98 3 3 C2.67 3.66 2.34 4.32 2 5 C2.66 5 3.32 5 4 5 C4 5.66 4 6.32 4 7 C1.03 6.505 1.03 6.505 -2 6 C-1.34 4.02 -0.68 2.04 0 0 Z " fill="#CECECE" transform="translate(411,293)"/>
<path d="M0 0 C0.66 0.33 1.32 0.66 2 1 C0.84224472 4.47326585 -0.13793148 4.91849562 -3 7 C-3.66 7.99 -4.32 8.98 -5 10 C-5.33 9.01 -5.66 8.02 -6 7 C-4.78515625 5.17578125 -4.78515625 5.17578125 -3.0625 3.3125 C-2.49660156 2.68988281 -1.93070312 2.06726563 -1.34765625 1.42578125 C-0.90292969 0.95527344 -0.45820313 0.48476562 0 0 Z " fill="#252525" transform="translate(291,139)"/>
<path d="M0 0 C1.65 0 3.3 0 5 0 C5 1.98 5 3.96 5 6 C4.01 6.495 4.01 6.495 3 7 C2.01 4.69 1.02 2.38 0 0 Z " fill="#191919" transform="translate(25,311)"/>
<path d="M0 0 C0.33 0.66 0.66 1.32 1 2 C0.06553465 4.03144641 -0.93224776 6.03533587 -2 8 C-3.32 7.67 -4.64 7.34 -6 7 C-4.02 4.69 -2.04 2.38 0 0 Z " fill="#D5D5D5" transform="translate(126,292)"/>
<path d="M0 0 C-0.33 1.65 -0.66 3.3 -1 5 C-1.66 5 -2.32 5 -3 5 C-3.33 5.66 -3.66 6.32 -4 7 C-4 6.34 -4 5.68 -4 5 C-4.66 4.67 -5.32 4.34 -6 4 C-2.25 0 -2.25 0 0 0 Z " fill="#181818" transform="translate(200,252)"/>
<path d="M0 0 C0.33 0.99 0.66 1.98 1 3 C1.66 3 2.32 3 3 3 C2.67 4.32 2.34 5.64 2 7 C1.01 6.67 0.02 6.34 -1 6 C-1.042721 4.33388095 -1.04063832 2.66617115 -1 1 C-0.67 0.67 -0.34 0.34 0 0 Z " fill="#E3E3E3" transform="translate(426,235)"/>
<path d="M0 0 C2.31 0 4.62 0 7 0 C6.01 0.495 6.01 0.495 5 1 C4.67 1.99 4.34 2.98 4 4 C3.01 4 2.02 4 1 4 C0.67 2.68 0.34 1.36 0 0 Z " fill="#DCDCDC" transform="translate(396,105)"/>
<path d="M0 0 C0.66 0.99 1.32 1.98 2 3 C0 5 0 5 -2 6 C-3.13350534 8.01669827 -3.13350534 8.01669827 -4 10 C-4.33 9.01 -4.66 8.02 -5 7 C-4.00390625 5.17578125 -4.00390625 5.17578125 -2.5625 3.3125 C-2.08941406 2.68988281 -1.61632813 2.06726563 -1.12890625 1.42578125 C-0.75636719 0.95527344 -0.38382813 0.48476562 0 0 Z " fill="#1E1E1E" transform="translate(47,84)"/>
<path d="M0 0 C2.97 0.495 2.97 0.495 6 1 C6.33 2.98 6.66 4.96 7 7 C5.83040013 6.02433888 4.66438823 5.044375 3.5 4.0625 C2.8503125 3.51722656 2.200625 2.97195312 1.53125 2.41015625 C1.0259375 1.94480469 0.520625 1.47945313 0 1 C0 0.67 0 0.34 0 0 Z " fill="#D5D5D5" transform="translate(366,67)"/>
<path d="M0 0 C0.66 0.33 1.32 0.66 2 1 C2 3.31 2 5.62 2 8 C0.68 6.68 -0.64 5.36 -2 4 C-1.34 2.68 -0.68 1.36 0 0 Z " fill="#181818" transform="translate(311,288)"/>
<path d="M0 0 C0.99 0.33 1.98 0.66 3 1 C1.515 3.475 1.515 3.475 0 6 C-0.99 5.34 -1.98 4.68 -3 4 C-2 2 -2 2 0 0 Z " fill="#141414" transform="translate(234,158)"/>
<path d="M0 0 C1.65 0.33 3.3 0.66 5 1 C5 1.66 5 2.32 5 3 C2.69 3.33 0.38 3.66 -2 4 C-2 3.34 -2 2.68 -2 2 C-1.34 2 -0.68 2 0 2 C0 1.34 0 0.68 0 0 Z " fill="#EDEDED" transform="translate(141,12)"/>
<path d="M0 0 C0.99 0.33 1.98 0.66 3 1 C3.6875 3.0625 3.6875 3.0625 4 5 C-0.875 3.25 -0.875 3.25 -2 1 C-1.34 0.67 -0.68 0.34 0 0 Z " fill="#1D1D1D" transform="translate(97,389)"/>
<path d="M0 0 C1.98 0.66 3.96 1.32 6 2 C6 2.66 6 3.32 6 4 C5.21625 3.814375 4.4325 3.62875 3.625 3.4375 C1.02910225 2.74037734 1.02910225 2.74037734 -1 4 C-0.67 2.68 -0.34 1.36 0 0 Z " fill="#F0F0F0" transform="translate(410,298)"/>
<path d="M0 0 C1.32 1.32 2.64 2.64 4 4 C3.01 4.66 2.02 5.32 1 6 C0.01 5.01 -0.98 4.02 -2 3 C-1.34 2.01 -0.68 1.02 0 0 Z " fill="#141414" transform="translate(210,258)"/>
<path d="M0 0 C2.1519437 3.22791555 2.20086443 4.28400809 2 8 C1.34 8 0.68 8 0 8 C-0.38063221 5.6739143 -0.71269945 3.33944736 -1 1 C-0.67 0.67 -0.34 0.34 0 0 Z " fill="#EEEEEE" transform="translate(5,259)"/>
<path d="M0 0 C2 3 2 3 2 5 C0.625 6.625 0.625 6.625 -1 8 C-1.66 8 -2.32 8 -3 8 C-1.125 2.25 -1.125 2.25 0 0 Z " fill="#262626" transform="translate(26,116)"/>
<path d="M0 0 C3.77545388 1.09068668 6.47043472 1.9083091 9 5 C8.01 5.33 7.02 5.66 6 6 C5.7525 5.360625 5.505 4.72125 5.25 4.0625 C4.18437567 1.81258459 4.18437567 1.81258459 1.875 1.25 C0.946875 1.12625 0.946875 1.12625 0 1 C0 0.67 0 0.34 0 0 Z " fill="#383838" transform="translate(285,15)"/>
</svg>
